<?xml version="1.0" encoding="UTF-8" standalone="no"?>
<!DOCTYPE svg PUBLIC "-//W3C//DTD SVG 1.1//EN"
 "http://www.w3.org/Graphics/SVG/1.1/DTD/svg11.dtd">
<!-- Generated by graphviz version 11.0.0 (20240428.1522)
 -->
<!-- Title: MadDeps Pages: 1 -->
<svg width="2953pt" height="1170pt"
 viewBox="0.00 0.00 2953.08 1170.34" xmlns="http://www.w3.org/2000/svg" xmlns:xlink="http://www.w3.org/1999/xlink">
<g id="graph0" class="graph" transform="scale(1 1) rotate(0) translate(4 1166.34)">
<title>MadDeps</title>
<polygon fill="#343434" stroke="none" points="-4,4 -4,-1166.34 2949.08,-1166.34 2949.08,4 -4,4"/>
<!-- Dye&#45;&gt;@/RenderDot -->
<g id="edge21" class="edge">
<title>Dye&#45;&gt;@/RenderDot</title>
<path fill="none" stroke="#f72585" stroke-width="2" d="M1370.09,-371.71C1336.91,-305.76 1265.81,-164.45 1227.94,-89.19"/>
<polygon fill="#f72585" stroke="#f72585" stroke-width="2" points="1231.14,-87.76 1223.52,-80.4 1224.89,-90.91 1231.14,-87.76"/>
</g>
<!-- Dye/Hexadecimal&#45;&gt;@/RenderDot -->
<g id="edge22" class="edge">
<title>Dye/Hexadecimal&#45;&gt;@/RenderDot</title>
<path fill="none" stroke="#f72585" stroke-width="2" d="M2080.23,-373.86C1904.34,-306.84 1508.96,-156.2 1314.84,-82.24"/>
<polygon fill="#f72585" stroke="#f72585" stroke-width="2" points="1316.33,-79.06 1305.74,-78.77 1313.84,-85.6 1316.33,-79.06"/>
</g>
<!-- @/Dependencies&#45;&gt;@/RenderDot -->
<g id="edge17" class="edge">
<title>@/Dependencies&#45;&gt;@/RenderDot</title>
<path fill="none" stroke="#7209b7" stroke-width="2" d="M2534.32,-369.25C2249.56,-298.74 1642.96,-148.55 1357.54,-77.89"/>
<polygon fill="#7209b7" stroke="#7209b7" stroke-width="2" points="1358.51,-74.52 1347.96,-75.52 1356.83,-81.32 1358.51,-74.52"/>
</g>
<!-- @/External&#45;&gt;@/Ripgrep -->
<g id="edge37" class="edge">
<title>@/External&#45;&gt;@/Ripgrep</title>
<path fill="none" stroke="#7209b7" stroke-width="2" d="M890.79,-739C862.25,-672.18 803.07,-533.58 771.28,-459.14"/>
<polygon fill="#7209b7" stroke="#7209b7" stroke-width="2" points="774.57,-457.93 767.43,-450.11 768.14,-460.68 774.57,-457.93"/>
</g>
<!-- @/MadlibJson&#45;&gt;@/Dependencies -->
<g id="edge1" class="edge">
<title>@/MadlibJson&#45;&gt;@/Dependencies</title>
<path fill="none" stroke="#7209b7" stroke-width="2" d="M2513.13,-739C2548.65,-672.04 2622.39,-533.01 2661.81,-458.68"/>
<polygon fill="#7209b7" stroke="#7209b7" stroke-width="2" points="2664.82,-460.48 2666.41,-450 2658.63,-457.2 2664.82,-460.48"/>
</g>
<!-- @/Palettes&#45;&gt;@/Theme/OhNo -->
<g id="edge50" class="edge">
<title>@/Palettes&#45;&gt;@/Theme/OhNo</title>
<path fill="none" stroke="#7209b7" stroke-width="2" d="M135.89,-369.33C169.22,-302.37 238.43,-163.34 275.42,-89.01"/>
<polygon fill="#7209b7" stroke="#7209b7" stroke-width="2" points="278.4,-90.88 279.72,-80.37 272.13,-87.76 278.4,-90.88"/>
</g>
<!-- @/String&#45;&gt;@/RenderDot -->
<g id="edge18" class="edge">
<title>@/String&#45;&gt;@/RenderDot</title>
<path fill="none" stroke="#7209b7" stroke-width="2" d="M481.01,-739.01C424.25,-662.23 313.76,-485.57 395,-365.25 541.09,-148.87 857.55,-76.25 1048.19,-51.89"/>
<polygon fill="#7209b7" stroke="#7209b7" stroke-width="2" points="1048.35,-55.4 1057.84,-50.69 1047.48,-48.45 1048.35,-55.4"/>
</g>
<!-- @/String&#45;&gt;@/RenderMermaid -->
<g id="edge30" class="edge">
<title>@/String&#45;&gt;@/RenderMermaid</title>
<path fill="none" stroke="#7209b7" stroke-width="2" d="M607.91,-746.25C815.33,-680.51 1302.58,-526.07 1538.45,-451.31"/>
<polygon fill="#7209b7" stroke="#7209b7" stroke-width="2" points="1539.51,-454.65 1547.98,-448.29 1537.39,-447.97 1539.51,-454.65"/>
</g>
<!-- @/String&#45;&gt;@/Theme -->
<g id="edge45" class="edge">
<title>@/String&#45;&gt;@/Theme</title>
<path fill="none" stroke="#7209b7" stroke-width="2" d="M511,-739C511,-672.45 511,-534.72 511,-460.06"/>
<polygon fill="#7209b7" stroke="#7209b7" stroke-width="2" points="514.5,-460.35 511,-450.35 507.5,-460.35 514.5,-460.35"/>
</g>
<!-- @/String&#45;&gt;@/Theme/OhNo -->
<g id="edge51" class="edge">
<title>@/String&#45;&gt;@/Theme/OhNo</title>
<path fill="none" stroke="#7209b7" stroke-width="2" d="M489.48,-739.23C456.65,-679.93 394.46,-560.38 362,-451.34 324.33,-324.78 308.85,-169.19 303.07,-90.45"/>
<polygon fill="#7209b7" stroke="#7209b7" stroke-width="2" points="306.57,-90.33 302.38,-80.6 299.59,-90.82 306.57,-90.33"/>
</g>
<!-- @/Theme&#45;&gt;@/RenderDot -->
<g id="edge19" class="edge">
<title>@/Theme&#45;&gt;@/RenderDot</title>
<path fill="none" stroke="#7209b7" stroke-width="2" d="M582.45,-369.33C711.6,-300.72 983.17,-156.43 1120.19,-83.62"/>
<polygon fill="#7209b7" stroke="#7209b7" stroke-width="2" points="1121.56,-86.86 1128.75,-79.08 1118.27,-80.68 1121.56,-86.86"/>
</g>
<!-- @/Theme&#45;&gt;@/Theme/OhNo -->
<g id="edge52" class="edge">
<title>@/Theme&#45;&gt;@/Theme/OhNo</title>
<path fill="none" stroke="#7209b7" stroke-width="2" d="M489.21,-369.33C450.71,-302.23 370.67,-162.76 328.08,-88.55"/>
<polygon fill="#7209b7" stroke="#7209b7" stroke-width="2" points="331.35,-87.21 323.33,-80.28 325.27,-90.7 331.35,-87.21"/>
</g>
<!-- Dictionary&#45;&gt;@/Dependencies -->
<g id="edge2" class="edge">
<title>Dictionary&#45;&gt;@/Dependencies</title>
<path fill="none" stroke="#ef9b0f" stroke-width="2" stroke-dasharray="5,2" d="M1434.76,-747.15C1443.96,-744.48 1453.15,-741.84 1462,-739.34 1844.12,-631.32 2295.57,-511.89 2529.54,-450.6"/>
<polygon fill="#ef9b0f" stroke="#ef9b0f" stroke-width="2" points="2530.17,-454.05 2538.96,-448.13 2528.4,-447.28 2530.17,-454.05"/>
</g>
<!-- Dictionary&#45;&gt;@/RenderDot -->
<g id="edge20" class="edge">
<title>Dictionary&#45;&gt;@/RenderDot</title>
<path fill="none" stroke="#ef9b0f" stroke-width="2" stroke-dasharray="5,2" d="M1435.49,-747.1C1444.45,-744.47 1453.39,-741.85 1462,-739.34 1908.52,-609.29 2188.03,-822.71 2468,-451.34 2491.03,-420.79 2491.44,-395.49 2468,-365.25 2332.03,-189.85 1664.54,-92.31 1357.75,-56.11"/>
<polygon fill="#ef9b0f" stroke="#ef9b0f" stroke-width="2" points="1358.55,-52.68 1348.21,-54.99 1357.73,-59.63 1358.55,-52.68"/>
</g>
<!-- Dictionary&#45;&gt;@/RenderMermaid -->
<g id="edge31" class="edge">
<title>Dictionary&#45;&gt;@/RenderMermaid</title>
<path fill="none" stroke="#ef9b0f" stroke-width="2" stroke-dasharray="5,2" d="M1362.21,-747.19C1420.42,-683.5 1557.42,-533.58 1627.72,-456.66"/>
<polygon fill="#ef9b0f" stroke="#ef9b0f" stroke-width="2" points="1630.16,-459.18 1634.32,-449.43 1624.99,-454.45 1630.16,-459.18"/>
</g>
<!-- Dictionary&#45;&gt;@/Ripgrep -->
<g id="edge38" class="edge">
<title>Dictionary&#45;&gt;@/Ripgrep</title>
<path fill="none" stroke="#ef9b0f" stroke-width="2" stroke-dasharray="5,2" d="M1287.62,-747.19C1185.15,-682.78 942.39,-530.22 821.28,-454.1"/>
<polygon fill="#ef9b0f" stroke="#ef9b0f" stroke-width="2" points="823.2,-451.17 812.87,-448.81 819.47,-457.09 823.2,-451.17"/>
</g>
<!-- Dictionary&#45;&gt;@/Theme -->
<g id="edge46" class="edge">
<title>Dictionary&#45;&gt;@/Theme</title>
<path fill="none" stroke="#ef9b0f" stroke-width="2" stroke-dasharray="5,2" d="M1268.27,-747.19C1123,-682.37 777.61,-528.26 608.15,-452.65"/>
<polygon fill="#ef9b0f" stroke="#ef9b0f" stroke-width="2" points="609.58,-449.45 599.03,-448.57 606.73,-455.84 609.58,-449.45"/>
</g>
<!-- Either&#45;&gt;@/Dependencies -->
<g id="edge3" class="edge">
<title>Either&#45;&gt;@/Dependencies</title>
<path fill="none" stroke="#e44d2e" stroke-width="2" stroke-dasharray="5,2" d="M2688,-1102.77C2688,-991.8 2688,-600.64 2688,-460.08"/>
<polygon fill="#e44d2e" stroke="#e44d2e" stroke-width="2" points="2691.5,-460.3 2688,-450.3 2684.5,-460.3 2691.5,-460.3"/>
</g>
<!-- Either&#45;&gt;@/MadlibJson -->
<g id="edge14" class="edge">
<title>Either&#45;&gt;@/MadlibJson</title>
<path fill="none" stroke="#e44d2e" stroke-width="2" stroke-dasharray="5,2" d="M2671.54,-1102.63C2637.99,-1041.8 2561.37,-902.91 2520.26,-828.39"/>
<polygon fill="#e44d2e" stroke="#e44d2e" stroke-width="2" points="2523.34,-826.72 2515.44,-819.65 2517.21,-830.1 2523.34,-826.72"/>
</g>
<!-- Float&#45;&gt;@/RenderDot -->
<g id="edge23" class="edge">
<title>Float&#45;&gt;@/RenderDot</title>
<path fill="none" stroke="#16166b" stroke-width="2" stroke-dasharray="5,2" d="M1006.33,-377.52C1043.18,-314.22 1129.59,-165.74 1174.61,-88.4"/>
<polygon fill="#16166b" stroke="#16166b" stroke-width="2" points="1177.41,-90.55 1179.42,-80.14 1171.36,-87.02 1177.41,-90.55"/>
</g>
<!-- Function&#45;&gt;@/Dependencies -->
<g id="edge4" class="edge">
<title>Function&#45;&gt;@/Dependencies</title>
<path fill="none" stroke="#8806ce" stroke-width="2" stroke-dasharray="5,2" d="M615.97,-1106.25C903.15,-1034.42 1683.97,-838.34 1737,-816.59 1800.25,-790.65 1808.59,-769.37 1870,-739.34 2111.41,-621.28 2406.22,-509.99 2567.79,-451.67"/>
<polygon fill="#8806ce" stroke="#8806ce" stroke-width="2" points="2568.6,-455.1 2576.82,-448.42 2566.22,-448.51 2568.6,-455.1"/>
</g>
<!-- Function&#45;&gt;@/RenderDot -->
<g id="edge24" class="edge">
<title>Function&#45;&gt;@/RenderDot</title>
<path fill="none" stroke="#8806ce" stroke-width="2" stroke-dasharray="5,2" d="M491.14,-1102.9C420.72,-994.04 195.9,-609.24 363,-365.25 517.04,-140.33 850.71,-70.74 1048.01,-49.23"/>
<polygon fill="#8806ce" stroke="#8806ce" stroke-width="2" points="1048.21,-52.72 1057.79,-48.19 1047.48,-45.76 1048.21,-52.72"/>
</g>
<!-- Function&#45;&gt;@/Ripgrep -->
<g id="edge39" class="edge">
<title>Function&#45;&gt;@/Ripgrep</title>
<path fill="none" stroke="#8806ce" stroke-width="2" stroke-dasharray="5,2" d="M521.02,-1102.88C539.92,-1046.99 582.1,-922.03 617,-816.59 659.57,-687.99 708.88,-536.24 733.8,-459.36"/>
<polygon fill="#8806ce" stroke="#8806ce" stroke-width="2" points="737.04,-460.7 736.79,-450.11 730.38,-458.55 737.04,-460.7"/>
</g>
<!-- Function&#45;&gt;@/String -->
<g id="edge43" class="edge">
<title>Function&#45;&gt;@/String</title>
<path fill="none" stroke="#8806ce" stroke-width="2" stroke-dasharray="5,2" d="M511,-1102.63C511,-1042.18 511,-904.63 511,-829.78"/>
<polygon fill="#8806ce" stroke="#8806ce" stroke-width="2" points="514.5,-830.03 511,-820.03 507.5,-830.03 514.5,-830.03"/>
</g>
<!-- IO&#45;&gt;@/Dependencies -->
<g id="edge5" class="edge">
<title>IO&#45;&gt;@/Dependencies</title>
<path fill="none" stroke="#40e0d0" stroke-width="2" stroke-dasharray="5,2" d="M2244.46,-1102.73C2248.99,-1034.14 2267.15,-861.4 2338,-739.34 2409.22,-616.64 2540.04,-511.45 2619.99,-454.57"/>
<polygon fill="#40e0d0" stroke="#40e0d0" stroke-width="2" points="2621.81,-457.56 2627.97,-448.94 2617.78,-451.84 2621.81,-457.56"/>
</g>
<!-- IO&#45;&gt;@/External -->
<g id="edge10" class="edge">
<title>IO&#45;&gt;@/External</title>
<path fill="none" stroke="#40e0d0" stroke-width="2" stroke-dasharray="5,2" d="M2206.22,-1122.74C2037.47,-1078.08 1332.86,-891.65 1037.82,-813.58"/>
<polygon fill="#40e0d0" stroke="#40e0d0" stroke-width="2" points="1038.85,-810.23 1028.29,-811.06 1037.06,-817 1038.85,-810.23"/>
</g>
<!-- IO&#45;&gt;@/RenderDot -->
<g id="edge25" class="edge">
<title>IO&#45;&gt;@/RenderDot</title>
<path fill="none" stroke="#40e0d0" stroke-width="2" stroke-dasharray="5,2" d="M2279.62,-1115.03C2449.39,-1031.98 3141.02,-668.11 2891,-365.25 2696.95,-130.19 1737.99,-62.93 1358.24,-45.35"/>
<polygon fill="#40e0d0" stroke="#40e0d0" stroke-width="2" points="1358.42,-41.85 1348.27,-44.89 1358.1,-48.85 1358.42,-41.85"/>
</g>
<!-- IO&#45;&gt;@/RenderMermaid -->
<g id="edge32" class="edge">
<title>IO&#45;&gt;@/RenderMermaid</title>
<path fill="none" stroke="#40e0d0" stroke-width="2" stroke-dasharray="5,2" d="M2219.51,-1102.77C2131.12,-991.01 1817.97,-595.11 1708.84,-457.14"/>
<polygon fill="#40e0d0" stroke="#40e0d0" stroke-width="2" points="1711.86,-455.32 1702.92,-449.65 1706.37,-459.66 1711.86,-455.32"/>
</g>
<!-- Integer&#45;&gt;@/RenderDot -->
<g id="edge26" class="edge">
<title>Integer&#45;&gt;@/RenderDot</title>
<path fill="none" stroke="#0000ff" stroke-width="2" stroke-dasharray="5,2" d="M1203,-377.52C1203,-314.73 1203,-168.17 1203,-90.32"/>
<polygon fill="#0000ff" stroke="#0000ff" stroke-width="2" points="1206.5,-90.55 1203,-80.55 1199.5,-90.55 1206.5,-90.55"/>
</g>
<!-- Json/Parse&#45;&gt;@/MadlibJson -->
<g id="edge15" class="edge">
<title>Json/Parse&#45;&gt;@/MadlibJson</title>
<path fill="none" stroke="#9f4576" stroke-width="2" stroke-dasharray="5,2" d="M2472.86,-1102.63C2476.62,-1042.18 2485.18,-904.63 2489.84,-829.78"/>
<polygon fill="#9f4576" stroke="#9f4576" stroke-width="2" points="2493.32,-830.22 2490.44,-820.02 2486.33,-829.79 2493.32,-830.22"/>
</g>
<!-- List&#45;&gt;@/Dependencies -->
<g id="edge6" class="edge">
<title>List&#45;&gt;@/Dependencies</title>
<path fill="none" stroke="#ffd700" stroke-width="2" stroke-dasharray="5,2" d="M1188.62,-747.65C1195.38,-744.59 1202.28,-741.74 1209,-739.34 1446.93,-654.57 2160.02,-511.28 2501.6,-444.95"/>
<polygon fill="#ffd700" stroke="#ffd700" stroke-width="2" points="2502.22,-448.4 2511.37,-443.06 2500.89,-441.53 2502.22,-448.4"/>
</g>
<!-- List&#45;&gt;@/RenderDot -->
<g id="edge27" class="edge">
<title>List&#45;&gt;@/RenderDot</title>
<path fill="none" stroke="#ffd700" stroke-width="2" stroke-dasharray="5,2" d="M1097.31,-747.28C1020.48,-681.27 854.37,-516.23 912,-365.25 957.61,-245.75 1069.48,-142.34 1140.48,-85.71"/>
<polygon fill="#ffd700" stroke="#ffd700" stroke-width="2" points="1142.58,-88.51 1148.26,-79.57 1138.24,-83.01 1142.58,-88.51"/>
</g>
<!-- List&#45;&gt;@/RenderMermaid -->
<g id="edge33" class="edge">
<title>List&#45;&gt;@/RenderMermaid</title>
<path fill="none" stroke="#ffd700" stroke-width="2" stroke-dasharray="5,2" d="M1177.49,-747.19C1271.46,-682.85 1493.94,-530.52 1605.23,-454.33"/>
<polygon fill="#ffd700" stroke="#ffd700" stroke-width="2" points="1606.87,-457.45 1613.15,-448.91 1602.92,-451.67 1606.87,-457.45"/>
</g>
<!-- List&#45;&gt;@/Ripgrep -->
<g id="edge40" class="edge">
<title>List&#45;&gt;@/Ripgrep</title>
<path fill="none" stroke="#ffd700" stroke-width="2" stroke-dasharray="5,2" d="M1102.9,-747.19C1036.24,-683.37 879.17,-532.97 798.97,-456.19"/>
<polygon fill="#ffd700" stroke="#ffd700" stroke-width="2" points="801.41,-453.68 791.77,-449.29 796.57,-458.74 801.41,-453.68"/>
</g>
<!-- List&#45;&gt;@/Theme -->
<g id="edge47" class="edge">
<title>List&#45;&gt;@/Theme</title>
<path fill="none" stroke="#ffd700" stroke-width="2" stroke-dasharray="5,2" d="M1083.55,-747.19C974.19,-682.65 714.85,-529.6 586.14,-453.64"/>
<polygon fill="#ffd700" stroke="#ffd700" stroke-width="2" points="588.22,-450.8 577.83,-448.74 584.66,-456.83 588.22,-450.8"/>
</g>
<!-- Maybe&#45;&gt;@/Dependencies -->
<g id="edge7" class="edge">
<title>Maybe&#45;&gt;@/Dependencies</title>
<path fill="none" stroke="#de3163" stroke-width="2" stroke-dasharray="5,2" d="M787.22,-1106.63C789.5,-1105.94 791.77,-1105.26 794,-1104.59 1268.5,-963.41 1406.99,-991.8 1870,-816.59 2153.69,-709.24 2469.91,-535.05 2611.82,-453.74"/>
<polygon fill="#de3163" stroke="#de3163" stroke-width="2" points="2613.41,-456.87 2620.34,-448.85 2609.93,-450.8 2613.41,-456.87"/>
</g>
<!-- Maybe&#45;&gt;@/MadlibJson -->
<g id="edge16" class="edge">
<title>Maybe&#45;&gt;@/MadlibJson</title>
<path fill="none" stroke="#de3163" stroke-width="2" stroke-dasharray="5,2" d="M787.16,-1106.42C789.46,-1105.79 791.74,-1105.18 794,-1104.59 1353.32,-959.91 2031.37,-848.81 2333.92,-802.51"/>
<polygon fill="#de3163" stroke="#de3163" stroke-width="2" points="2334.37,-805.98 2343.73,-801.01 2333.32,-799.06 2334.37,-805.98"/>
</g>
<!-- Maybe&#45;&gt;@/Theme -->
<g id="edge48" class="edge">
<title>Maybe&#45;&gt;@/Theme</title>
<path fill="none" stroke="#de3163" stroke-width="2" stroke-dasharray="5,2" d="M702.89,-1102.67C689.18,-1036.75 654.25,-873.77 617,-739.34 589.2,-639.03 550.58,-523.6 528.45,-459.27"/>
<polygon fill="#de3163" stroke="#de3163" stroke-width="2" points="531.81,-458.28 525.24,-449.97 525.19,-460.57 531.81,-458.28"/>
</g>
<!-- Maybe&#45;&gt;@/Theme/OhNo -->
<g id="edge53" class="edge">
<title>Maybe&#45;&gt;@/Theme/OhNo</title>
<path fill="none" stroke="#de3163" stroke-width="2" stroke-dasharray="5,2" d="M667.42,-1102.6C600.36,-1051.98 469.34,-942.48 405,-816.59 278.01,-568.13 287.07,-219.38 295.72,-90.27"/>
<polygon fill="#de3163" stroke="#de3163" stroke-width="2" points="299.2,-90.65 296.42,-80.43 292.22,-90.15 299.2,-90.65"/>
</g>
<!-- Process&#45;&gt;@/External -->
<g id="edge11" class="edge">
<title>Process&#45;&gt;@/External</title>
<path fill="none" stroke="#03c03c" stroke-width="2" stroke-dasharray="5,2" d="M1031.52,-1102.63C1008.17,-1041.93 954.9,-903.48 926.19,-828.85"/>
<polygon fill="#03c03c" stroke="#03c03c" stroke-width="2" points="929.58,-827.9 922.72,-819.83 923.04,-830.42 929.58,-827.9"/>
</g>
<!-- Set&#45;&gt;@/Dependencies -->
<g id="edge8" class="edge">
<title>Set&#45;&gt;@/Dependencies</title>
<path fill="none" stroke="#eedc82" stroke-width="2" stroke-dasharray="5,2" d="M1563.71,-747.24C1568.76,-744.37 1573.92,-741.66 1579,-739.34 1750.38,-661.06 2266.05,-520.29 2529.44,-450.64"/>
<polygon fill="#eedc82" stroke="#eedc82" stroke-width="2" points="2530.09,-454.09 2538.86,-448.15 2528.3,-447.32 2530.09,-454.09"/>
</g>
<!-- Set&#45;&gt;@/RenderDot -->
<g id="edge28" class="edge">
<title>Set&#45;&gt;@/RenderDot</title>
<path fill="none" stroke="#eedc82" stroke-width="2" stroke-dasharray="5,2" d="M1478.02,-747.32C1376.49,-675.2 1124.49,-493.39 1104,-451.34 1044.27,-328.73 1123.11,-167.6 1171.04,-88.18"/>
<polygon fill="#eedc82" stroke="#eedc82" stroke-width="2" points="1173.75,-90.46 1176,-80.1 1167.78,-86.79 1173.75,-90.46"/>
</g>
<!-- Set&#45;&gt;@/RenderMermaid -->
<g id="edge34" class="edge">
<title>Set&#45;&gt;@/RenderMermaid</title>
<path fill="none" stroke="#eedc82" stroke-width="2" stroke-dasharray="5,2" d="M1532.23,-747.19C1558.12,-684.15 1618.71,-536.63 1650.58,-459.03"/>
<polygon fill="#eedc82" stroke="#eedc82" stroke-width="2" points="1653.72,-460.58 1654.28,-450 1647.25,-457.92 1653.72,-460.58"/>
</g>
<!-- Set&#45;&gt;@/Ripgrep -->
<g id="edge41" class="edge">
<title>Set&#45;&gt;@/Ripgrep</title>
<path fill="none" stroke="#eedc82" stroke-width="2" stroke-dasharray="5,2" d="M1474.62,-747.19C1470.07,-744.45 1465.47,-741.79 1461,-739.34 1251.23,-624.43 994.38,-511.74 853.96,-452.38"/>
<polygon fill="#eedc82" stroke="#eedc82" stroke-width="2" points="855.34,-449.17 844.77,-448.51 852.62,-455.62 855.34,-449.17"/>
</g>
<!-- String&#45;&gt;@/Dependencies -->
<g id="edge9" class="edge">
<title>String&#45;&gt;@/Dependencies</title>
<path fill="none" stroke="#4b0082" stroke-width="2" stroke-dasharray="5,2" d="M1318.07,-1109.94C1473.55,-1065.16 1822.31,-957.03 2094,-816.59 2304.48,-707.79 2528.82,-536.9 2631.18,-455.45"/>
<polygon fill="#4b0082" stroke="#4b0082" stroke-width="2" points="2633.29,-458.25 2638.92,-449.27 2628.92,-452.77 2633.29,-458.25"/>
</g>
<!-- String&#45;&gt;@/External -->
<g id="edge12" class="edge">
<title>String&#45;&gt;@/External</title>
<path fill="none" stroke="#4b0082" stroke-width="2" stroke-dasharray="5,2" d="M1209.15,-1102.63C1151.78,-1041.18 1020.03,-900.05 951.01,-826.11"/>
<polygon fill="#4b0082" stroke="#4b0082" stroke-width="2" points="953.95,-824.14 944.57,-819.21 948.84,-828.91 953.95,-824.14"/>
</g>
<!-- String&#45;&gt;@/RenderDot -->
<g id="edge29" class="edge">
<title>String&#45;&gt;@/RenderDot</title>
<path fill="none" stroke="#4b0082" stroke-width="2" stroke-dasharray="5,2" d="M1318.04,-1122.75C1584.51,-1089.52 2429.01,-973.74 2648,-816.59 2738.81,-751.42 2941.06,-451.53 2870,-365.25 2678.84,-133.14 1734.27,-64.19 1358.03,-45.75"/>
<polygon fill="#4b0082" stroke="#4b0082" stroke-width="2" points="1358.34,-42.26 1348.19,-45.27 1358.01,-49.25 1358.34,-42.26"/>
</g>
<!-- String&#45;&gt;@/RenderMermaid -->
<g id="edge35" class="edge">
<title>String&#45;&gt;@/RenderMermaid</title>
<path fill="none" stroke="#4b0082" stroke-width="2" stroke-dasharray="5,2" d="M1317.99,-1108.77C1435.08,-1069.62 1647.43,-979.13 1737,-816.59 1801.09,-700.29 1737.75,-538.84 1697.93,-458.62"/>
<polygon fill="#4b0082" stroke="#4b0082" stroke-width="2" points="1701.25,-457.43 1693.61,-450.09 1695,-460.6 1701.25,-457.43"/>
</g>
<!-- String&#45;&gt;@/Ripgrep -->
<g id="edge42" class="edge">
<title>String&#45;&gt;@/Ripgrep</title>
<path fill="none" stroke="#4b0082" stroke-width="2" stroke-dasharray="5,2" d="M1221.29,-1102.98C1191.67,-1047.25 1125.72,-922.54 1072,-816.59 1054.7,-782.47 1055.09,-771.27 1034,-739.34 961.86,-630.16 857.42,-517.72 797.35,-456.35"/>
<polygon fill="#4b0082" stroke="#4b0082" stroke-width="2" points="800.09,-454.15 790.58,-449.47 795.1,-459.05 800.09,-454.15"/>
</g>
<!-- String&#45;&gt;@/String -->
<g id="edge44" class="edge">
<title>String&#45;&gt;@/String</title>
<path fill="none" stroke="#4b0082" stroke-width="2" stroke-dasharray="5,2" d="M1175.73,-1102.63C1047.46,-1040.18 750.18,-895.43 600.51,-822.55"/>
<polygon fill="#4b0082" stroke="#4b0082" stroke-width="2" points="602.36,-819.56 591.84,-818.33 599.29,-825.85 602.36,-819.56"/>
</g>
<!-- String&#45;&gt;@/Theme -->
<g id="edge49" class="edge">
<title>String&#45;&gt;@/Theme</title>
<path fill="none" stroke="#4b0082" stroke-width="2" stroke-dasharray="5,2" d="M1180.22,-1102.68C1088.4,-1052.56 905,-944.26 780,-816.59 669.67,-703.91 577.6,-539.82 535.54,-458.61"/>
<polygon fill="#4b0082" stroke="#4b0082" stroke-width="2" points="538.77,-457.23 531.08,-449.94 532.54,-460.43 538.77,-457.23"/>
</g>
<!-- Tuple&#45;&gt;@/RenderMermaid -->
<g id="edge36" class="edge">
<title>Tuple&#45;&gt;@/RenderMermaid</title>
<path fill="none" stroke="#ababab" stroke-width="2" stroke-dasharray="5,2" d="M1659.05,-747.19C1661.27,-684.41 1666.45,-537.84 1669.21,-459.99"/>
<polygon fill="#ababab" stroke="#ababab" stroke-width="2" points="1672.7,-460.34 1669.55,-450.22 1665.7,-460.09 1672.7,-460.34"/>
</g>
<!-- Wish&#45;&gt;@/External -->
<g id="edge13" class="edge">
<title>Wish&#45;&gt;@/External</title>
<path fill="none" stroke="#ed2939" stroke-width="2" stroke-dasharray="5,2" d="M869.46,-1102.63C876.47,-1042.18 892.43,-904.63 901.11,-829.78"/>
<polygon fill="#ed2939" stroke="#ed2939" stroke-width="2" points="904.56,-830.35 902.24,-820.01 897.61,-829.54 904.56,-830.35"/>
</g>
<!-- Dye -->
<g id="node1" class="node">
<title>Dye</title>
<polygon fill="#f72585" stroke="black" points="1311.09,-394.99 1388,-365.25 1464.91,-394.99 1464.84,-443.12 1311.16,-443.12 1311.09,-394.99"/>
<text text-anchor="middle" x="1388" y="-390.92" font-family="Obviously Narrow" font-size="40.00" fill="#fcfbf9">Dye</text>
</g>
<!-- Dye/Hexadecimal -->
<g id="node2" class="node">
<title>Dye/Hexadecimal</title>
<polygon fill="#f72585" stroke="black" points="1877.38,-394.99 2168,-365.25 2458.62,-394.99 2458.34,-443.12 1877.66,-443.12 1877.38,-394.99"/>
<text text-anchor="middle" x="2168" y="-390.92" font-family="Obviously Narrow" font-size="40.00" fill="#fcfbf9">Dye/Hexadecimal</text>
</g>
<!-- @/Dependencies -->
<g id="node3" class="node">
<title>@/Dependencies</title>
<path fill="#7209b7" stroke="black" d="M2849.25,-446.92C2849.25,-446.92 2526.75,-446.92 2526.75,-446.92 2520.75,-446.92 2514.75,-440.92 2514.75,-434.92 2514.75,-434.92 2514.75,-381.67 2514.75,-381.67 2514.75,-375.67 2520.75,-369.67 2526.75,-369.67 2526.75,-369.67 2849.25,-369.67 2849.25,-369.67 2855.25,-369.67 2861.25,-375.67 2861.25,-381.67 2861.25,-381.67 2861.25,-434.92 2861.25,-434.92 2861.25,-440.92 2855.25,-446.92 2849.25,-446.92"/>
<text text-anchor="middle" x="2688" y="-390.92" font-family="Obviously Narrow" font-size="40.00" fill="#fcfbf9">@/Dependencies</text>
</g>
<!-- @/External -->
<g id="node4" class="node">
<title>@/External</title>
<path fill="#7209b7" stroke="black" d="M1013.12,-816.59C1013.12,-816.59 800.88,-816.59 800.88,-816.59 794.88,-816.59 788.88,-810.59 788.88,-804.59 788.88,-804.59 788.88,-751.34 788.88,-751.34 788.88,-745.34 794.88,-739.34 800.88,-739.34 800.88,-739.34 1013.12,-739.34 1013.12,-739.34 1019.12,-739.34 1025.12,-745.34 1025.12,-751.34 1025.12,-751.34 1025.12,-804.59 1025.12,-804.59 1025.12,-810.59 1019.12,-816.59 1013.12,-816.59"/>
<text text-anchor="middle" x="907" y="-760.59" font-family="Obviously Narrow" font-size="40.00" fill="#fcfbf9">@/External</text>
</g>
<!-- @/MadlibJson -->
<g id="node5" class="node">
<title>@/MadlibJson</title>
<path fill="#7209b7" stroke="black" d="M2626.88,-816.59C2626.88,-816.59 2359.12,-816.59 2359.12,-816.59 2353.12,-816.59 2347.12,-810.59 2347.12,-804.59 2347.12,-804.59 2347.12,-751.34 2347.12,-751.34 2347.12,-745.34 2353.12,-739.34 2359.12,-739.34 2359.12,-739.34 2626.88,-739.34 2626.88,-739.34 2632.88,-739.34 2638.88,-745.34 2638.88,-751.34 2638.88,-751.34 2638.88,-804.59 2638.88,-804.59 2638.88,-810.59 2632.88,-816.59 2626.88,-816.59"/>
<text text-anchor="middle" x="2493" y="-760.59" font-family="Obviously Narrow" font-size="40.00" fill="#fcfbf9">@/MadlibJson</text>
</g>
<!-- @/Palettes -->
<g id="node6" class="node">
<title>@/Palettes</title>
<path fill="#7209b7" stroke="black" d="M222,-446.92C222,-446.92 12,-446.92 12,-446.92 6,-446.92 0,-440.92 0,-434.92 0,-434.92 0,-381.67 0,-381.67 0,-375.67 6,-369.67 12,-369.67 12,-369.67 222,-369.67 222,-369.67 228,-369.67 234,-375.67 234,-381.67 234,-381.67 234,-434.92 234,-434.92 234,-440.92 228,-446.92 222,-446.92"/>
<text text-anchor="middle" x="117" y="-390.92" font-family="Obviously Narrow" font-size="40.00" fill="#fcfbf9">@/Palettes</text>
</g>
<!-- @/RenderDot -->
<g id="node7" class="node">
<title>@/RenderDot</title>
<path fill="#7209b7" stroke="black" d="M1332.75,-77.25C1332.75,-77.25 1073.25,-77.25 1073.25,-77.25 1067.25,-77.25 1061.25,-71.25 1061.25,-65.25 1061.25,-65.25 1061.25,-12 1061.25,-12 1061.25,-6 1067.25,0 1073.25,0 1073.25,0 1332.75,0 1332.75,0 1338.75,0 1344.75,-6 1344.75,-12 1344.75,-12 1344.75,-65.25 1344.75,-65.25 1344.75,-71.25 1338.75,-77.25 1332.75,-77.25"/>
<text text-anchor="middle" x="1203" y="-21.25" font-family="Obviously Narrow" font-size="40.00" fill="#fcfbf9">@/RenderDot</text>
</g>
<!-- @/RenderMermaid -->
<g id="node8" class="node">
<title>@/RenderMermaid</title>
<path fill="#7209b7" stroke="black" d="M1847.25,-446.92C1847.25,-446.92 1494.75,-446.92 1494.75,-446.92 1488.75,-446.92 1482.75,-440.92 1482.75,-434.92 1482.75,-434.92 1482.75,-381.67 1482.75,-381.67 1482.75,-375.67 1488.75,-369.67 1494.75,-369.67 1494.75,-369.67 1847.25,-369.67 1847.25,-369.67 1853.25,-369.67 1859.25,-375.67 1859.25,-381.67 1859.25,-381.67 1859.25,-434.92 1859.25,-434.92 1859.25,-440.92 1853.25,-446.92 1847.25,-446.92"/>
<text text-anchor="middle" x="1671" y="-390.92" font-family="Obviously Narrow" font-size="40.00" fill="#fcfbf9">@/RenderMermaid</text>
</g>
<!-- @/Ripgrep -->
<g id="node9" class="node">
<title>@/Ripgrep</title>
<path fill="#7209b7" stroke="black" d="M852.75,-446.92C852.75,-446.92 647.25,-446.92 647.25,-446.92 641.25,-446.92 635.25,-440.92 635.25,-434.92 635.25,-434.92 635.25,-381.67 635.25,-381.67 635.25,-375.67 641.25,-369.67 647.25,-369.67 647.25,-369.67 852.75,-369.67 852.75,-369.67 858.75,-369.67 864.75,-375.67 864.75,-381.67 864.75,-381.67 864.75,-434.92 864.75,-434.92 864.75,-440.92 858.75,-446.92 852.75,-446.92"/>
<text text-anchor="middle" x="750" y="-390.92" font-family="Obviously Narrow" font-size="40.00" fill="#fcfbf9">@/Ripgrep</text>
</g>
<!-- @/String -->
<g id="node10" class="node">
<title>@/String</title>
<path fill="#7209b7" stroke="black" d="M595.75,-816.59C595.75,-816.59 426.25,-816.59 426.25,-816.59 420.25,-816.59 414.25,-810.59 414.25,-804.59 414.25,-804.59 414.25,-751.34 414.25,-751.34 414.25,-745.34 420.25,-739.34 426.25,-739.34 426.25,-739.34 595.75,-739.34 595.75,-739.34 601.75,-739.34 607.75,-745.34 607.75,-751.34 607.75,-751.34 607.75,-804.59 607.75,-804.59 607.75,-810.59 601.75,-816.59 595.75,-816.59"/>
<text text-anchor="middle" x="511" y="-760.59" font-family="Obviously Narrow" font-size="40.00" fill="#fcfbf9">@/String</text>
</g>
<!-- @/Theme -->
<g id="node11" class="node">
<title>@/Theme</title>
<path fill="#7209b7" stroke="black" d="M605.5,-446.92C605.5,-446.92 416.5,-446.92 416.5,-446.92 410.5,-446.92 404.5,-440.92 404.5,-434.92 404.5,-434.92 404.5,-381.67 404.5,-381.67 404.5,-375.67 410.5,-369.67 416.5,-369.67 416.5,-369.67 605.5,-369.67 605.5,-369.67 611.5,-369.67 617.5,-375.67 617.5,-381.67 617.5,-381.67 617.5,-434.92 617.5,-434.92 617.5,-440.92 611.5,-446.92 605.5,-446.92"/>
<text text-anchor="middle" x="511" y="-390.92" font-family="Obviously Narrow" font-size="40.00" fill="#fcfbf9">@/Theme</text>
</g>
<!-- @/Theme/OhNo -->
<g id="node12" class="node">
<title>@/Theme/OhNo</title>
<path fill="#7209b7" stroke="black" d="M452.62,-77.25C452.62,-77.25 147.38,-77.25 147.38,-77.25 141.38,-77.25 135.38,-71.25 135.38,-65.25 135.38,-65.25 135.38,-12 135.38,-12 135.38,-6 141.38,0 147.38,0 147.38,0 452.62,0 452.62,0 458.62,0 464.62,-6 464.62,-12 464.62,-12 464.62,-65.25 464.62,-65.25 464.62,-71.25 458.62,-77.25 452.62,-77.25"/>
<text text-anchor="middle" x="300" y="-21.25" font-family="Obviously Narrow" font-size="40.00" fill="#fcfbf9">@/Theme/OhNo</text>
</g>
<!-- Dictionary -->
<g id="node13" class="node">
<title>Dictionary</title>
<polygon fill="#343434" stroke="#ef9b0f" stroke-width="4" points="1452.38,-806.84 1217.62,-806.84 1217.62,-749.09 1452.38,-749.09 1452.38,-806.84"/>
<text text-anchor="middle" x="1335" y="-769.84" font-family="Compadre" font-size="20.00" fill="#fcfbf9">Dictionary</text>
</g>
<!-- Either -->
<g id="node14" class="node">
<title>Either</title>
<polygon fill="#343434" stroke="#e44d2e" stroke-width="4" points="2767.12,-1162.34 2608.88,-1162.34 2608.88,-1104.59 2767.12,-1104.59 2767.12,-1162.34"/>
<text text-anchor="middle" x="2688" y="-1125.34" font-family="Compadre" font-size="20.00" fill="#fcfbf9">Either</text>
</g>
<!-- Float -->
<g id="node15" class="node">
<title>Float</title>
<polygon fill="#343434" stroke="#16166b" stroke-width="4" points="1057.25,-437.17 920.75,-437.17 920.75,-379.42 1057.25,-379.42 1057.25,-437.17"/>
<text text-anchor="middle" x="989" y="-400.17" font-family="Compadre" font-size="20.00" fill="#fcfbf9">Float</text>
</g>
<!-- Function -->
<g id="node16" class="node">
<title>Function</title>
<polygon fill="#343434" stroke="#8806ce" stroke-width="4" points="614.12,-1162.34 407.88,-1162.34 407.88,-1104.59 614.12,-1104.59 614.12,-1162.34"/>
<text text-anchor="middle" x="511" y="-1125.34" font-family="Compadre" font-size="20.00" fill="#fcfbf9">Function</text>
</g>
<!-- IO -->
<g id="node17" class="node">
<title>IO</title>
<polygon fill="#343434" stroke="#40e0d0" stroke-width="4" points="2277.88,-1162.34 2208.12,-1162.34 2208.12,-1104.59 2277.88,-1104.59 2277.88,-1162.34"/>
<text text-anchor="middle" x="2243" y="-1125.34" font-family="Compadre" font-size="20.00" fill="#fcfbf9">IO</text>
</g>
<!-- Integer -->
<g id="node18" class="node">
<title>Integer</title>
<polygon fill="#343434" stroke="#0000ff" stroke-width="4" points="1293.38,-437.17 1112.62,-437.17 1112.62,-379.42 1293.38,-379.42 1293.38,-437.17"/>
<text text-anchor="middle" x="1203" y="-400.17" font-family="Compadre" font-size="20.00" fill="#fcfbf9">Integer</text>
</g>
<!-- Json/Parse -->
<g id="node19" class="node">
<title>Json/Parse</title>
<polygon fill="#343434" stroke="#9f4576" stroke-width="4" points="2591,-1162.34 2351,-1162.34 2351,-1104.59 2591,-1104.59 2591,-1162.34"/>
<text text-anchor="middle" x="2471" y="-1125.34" font-family="Compadre" font-size="20.00" fill="#fcfbf9">Json/Parse</text>
</g>
<!-- List -->
<g id="node20" class="node">
<title>List</title>
<polygon fill="#343434" stroke="#ffd700" stroke-width="4" points="1186.88,-806.84 1081.12,-806.84 1081.12,-749.09 1186.88,-749.09 1186.88,-806.84"/>
<text text-anchor="middle" x="1134" y="-769.84" font-family="Compadre" font-size="20.00" fill="#fcfbf9">List</text>
</g>
<!-- Maybe -->
<g id="node21" class="node">
<title>Maybe</title>
<polygon fill="#343434" stroke="#de3163" stroke-width="4" points="785.5,-1162.34 632.5,-1162.34 632.5,-1104.59 785.5,-1104.59 785.5,-1162.34"/>
<text text-anchor="middle" x="709" y="-1125.34" font-family="Compadre" font-size="20.00" fill="#fcfbf9">Maybe</text>
</g>
<!-- Process -->
<g id="node22" class="node">
<title>Process</title>
<polygon fill="#343434" stroke="#03c03c" stroke-width="4" points="1139.38,-1162.34 946.62,-1162.34 946.62,-1104.59 1139.38,-1104.59 1139.38,-1162.34"/>
<text text-anchor="middle" x="1043" y="-1125.34" font-family="Compadre" font-size="20.00" fill="#fcfbf9">Process</text>
</g>
<!-- Set -->
<g id="node23" class="node">
<title>Set</title>
<polygon fill="#343434" stroke="#eedc82" stroke-width="4" points="1569.5,-806.84 1470.5,-806.84 1470.5,-749.09 1569.5,-749.09 1569.5,-806.84"/>
<text text-anchor="middle" x="1520" y="-769.84" font-family="Compadre" font-size="20.00" fill="#fcfbf9">Set</text>
</g>
<!-- String -->
<g id="node24" class="node">
<title>String</title>
<polygon fill="#343434" stroke="#4b0082" stroke-width="4" points="1316.12,-1162.34 1157.88,-1162.34 1157.88,-1104.59 1316.12,-1104.59 1316.12,-1162.34"/>
<text text-anchor="middle" x="1237" y="-1125.34" font-family="Compadre" font-size="20.00" fill="#fcfbf9">String</text>
</g>
<!-- Tuple -->
<g id="node25" class="node">
<title>Tuple</title>
<polygon fill="#343434" stroke="#ababab" stroke-width="4" points="1728.12,-806.84 1587.88,-806.84 1587.88,-749.09 1728.12,-749.09 1728.12,-806.84"/>
<text text-anchor="middle" x="1658" y="-769.84" font-family="Compadre" font-size="20.00" fill="#fcfbf9">Tuple</text>
</g>
<!-- Wish -->
<g id="node26" class="node">
<title>Wish</title>
<polygon fill="#343434" stroke="#ed2939" stroke-width="4" points="928.62,-1162.34 803.38,-1162.34 803.38,-1104.59 928.62,-1104.59 928.62,-1162.34"/>
<text text-anchor="middle" x="866" y="-1125.34" font-family="Compadre" font-size="20.00" fill="#fcfbf9">Wish</text>
</g>
</g>
</svg>
