<?xml version="1.0" encoding="UTF-8" standalone="no"?>
<!DOCTYPE svg PUBLIC "-//W3C//DTD SVG 1.1//EN"
 "http://www.w3.org/Graphics/SVG/1.1/DTD/svg11.dtd">
<!-- Generated by graphviz version 11.0.0 (20240428.1522)
 -->
<!-- Title: MadDeps Pages: 1 -->
<svg width="2819pt" height="951pt"
 viewBox="0.00 0.00 2818.62 950.75" xmlns="http://www.w3.org/2000/svg" xmlns:xlink="http://www.w3.org/1999/xlink">
<g id="graph0" class="graph" transform="scale(1 1) rotate(0) translate(4 946.75)">
<title>MadDeps</title>
<polygon fill="#191724" stroke="none" points="-4,4 -4,-946.75 2814.62,-946.75 2814.62,4 -4,4"/>
<!-- @/Dependencies&#45;&gt;@/RenderDot -->
<g id="edge47" class="edge">
<title>@/Dependencies&#45;&gt;@/RenderDot</title>
<path fill="none" stroke="#9ccfd8" stroke-width="2" d="M1006.39,-442.18C1057.48,-404.48 1135.85,-346.62 1190.28,-306.44"/>
<polygon fill="#9ccfd8" stroke="#9ccfd8" stroke-width="2" points="1192.09,-309.45 1198.05,-300.7 1187.93,-303.82 1192.09,-309.45"/>
</g>
<!-- @/External&#45;&gt;@/Dot.main -->
<g id="edge10" class="edge">
<title>@/External&#45;&gt;@/Dot.main</title>
<path fill="none" stroke="#9ccfd8" stroke-width="2" d="M2604.22,-663.44C2645.34,-611.61 2705.28,-516.66 2665,-442.5 2578.76,-283.75 2491.15,-289.8 2324,-221.25 2072.77,-118.21 1756.5,-71.42 1578.74,-51.95"/>
<polygon fill="#9ccfd8" stroke="#9ccfd8" stroke-width="2" points="1579.25,-48.49 1568.93,-50.9 1578.5,-55.45 1579.25,-48.49"/>
</g>
<!-- @/External&#45;&gt;@/Mermaid.main -->
<g id="edge33" class="edge">
<title>@/External&#45;&gt;@/Mermaid.main</title>
<path fill="none" stroke="#9ccfd8" stroke-width="2" d="M2558.13,-663.26C2536.05,-599.64 2490.2,-475.49 2458,-442.5 2393.37,-376.28 2299.95,-331.62 2220.75,-303.15"/>
<polygon fill="#9ccfd8" stroke="#9ccfd8" stroke-width="2" points="2222.12,-299.93 2211.53,-299.9 2219.8,-306.53 2222.12,-299.93"/>
</g>
<!-- @/External&#45;&gt;@/Ripgrep -->
<g id="edge62" class="edge">
<title>@/External&#45;&gt;@/Ripgrep</title>
<path fill="none" stroke="#9ccfd8" stroke-width="2" d="M2452.79,-674.6C2269.66,-633.12 1918.9,-553.68 1730.36,-510.97"/>
<polygon fill="#9ccfd8" stroke="#9ccfd8" stroke-width="2" points="1731.38,-507.61 1720.85,-508.82 1729.83,-514.44 1731.38,-507.61"/>
</g>
<!-- @/MadlibJson&#45;&gt;@/Dependencies -->
<g id="edge1" class="edge">
<title>@/MadlibJson&#45;&gt;@/Dependencies</title>
<path fill="none" stroke="#9ccfd8" stroke-width="2" d="M811.74,-663.68C840.89,-626.74 885.44,-570.29 917.11,-530.15"/>
<polygon fill="#9ccfd8" stroke="#9ccfd8" stroke-width="2" points="919.75,-532.45 923.19,-522.43 914.25,-528.12 919.75,-532.45"/>
</g>
<!-- @/MadlibJson&#45;&gt;@/Dot.main -->
<g id="edge11" class="edge">
<title>@/MadlibJson&#45;&gt;@/Dot.main</title>
<path fill="none" stroke="#9ccfd8" stroke-width="2" d="M766.13,-663.66C746.53,-610.84 720.13,-513.36 758,-442.5 869.41,-234.02 1138.63,-123.97 1303.84,-74.09"/>
<polygon fill="#9ccfd8" stroke="#9ccfd8" stroke-width="2" points="1304.56,-77.53 1313.14,-71.32 1302.56,-70.82 1304.56,-77.53"/>
</g>
<!-- @/MadlibJson&#45;&gt;@/Mermaid.main -->
<g id="edge34" class="edge">
<title>@/MadlibJson&#45;&gt;@/Mermaid.main</title>
<path fill="none" stroke="#9ccfd8" stroke-width="2" d="M856.5,-663.33C965.5,-608.79 1175.84,-507.79 1363,-442.5 1536.65,-381.92 1740.66,-331.53 1884.42,-299.32"/>
<polygon fill="#9ccfd8" stroke="#9ccfd8" stroke-width="2" points="1884.88,-302.8 1893.88,-297.21 1883.36,-295.97 1884.88,-302.8"/>
</g>
<!-- @/Palettes&#45;&gt;@/Theme/OhNo -->
<g id="edge70" class="edge">
<title>@/Palettes&#45;&gt;@/Theme/OhNo</title>
<path fill="none" stroke="#9ccfd8" stroke-width="2" d="M143.65,-442.43C169.65,-405.65 209.34,-349.51 237.69,-309.41"/>
<polygon fill="#9ccfd8" stroke="#9ccfd8" stroke-width="2" points="240.52,-311.47 243.44,-301.28 234.81,-307.42 240.52,-311.47"/>
</g>
<!-- @/RenderDot&#45;&gt;@/Dot.main -->
<g id="edge12" class="edge">
<title>@/RenderDot&#45;&gt;@/Dot.main</title>
<path fill="none" stroke="#9ccfd8" stroke-width="2" d="M1284.49,-221.18C1316.4,-184.16 1365.21,-127.55 1399.83,-87.39"/>
<polygon fill="#9ccfd8" stroke="#9ccfd8" stroke-width="2" points="1402.45,-89.71 1406.32,-79.85 1397.14,-85.14 1402.45,-89.71"/>
</g>
<!-- @/RenderMermaid&#45;&gt;@/Mermaid.main -->
<g id="edge35" class="edge">
<title>@/RenderMermaid&#45;&gt;@/Mermaid.main</title>
<path fill="none" stroke="#9ccfd8" stroke-width="2" d="M2137.56,-442.43C2123.65,-406.12 2102.51,-350.95 2087.19,-310.95"/>
<polygon fill="#9ccfd8" stroke="#9ccfd8" stroke-width="2" points="2090.46,-309.72 2083.62,-301.63 2083.93,-312.22 2090.46,-309.72"/>
</g>
<!-- @/Ripgrep&#45;&gt;@/Dot.main -->
<g id="edge13" class="edge">
<title>@/Ripgrep&#45;&gt;@/Dot.main</title>
<path fill="none" stroke="#9ccfd8" stroke-width="2" d="M1589.05,-442.19C1559.83,-362.74 1492.22,-178.89 1459.45,-89.8"/>
<polygon fill="#9ccfd8" stroke="#9ccfd8" stroke-width="2" points="1462.76,-88.65 1456.02,-80.47 1456.19,-91.06 1462.76,-88.65"/>
</g>
<!-- @/Ripgrep&#45;&gt;@/Mermaid.main -->
<g id="edge36" class="edge">
<title>@/Ripgrep&#45;&gt;@/Mermaid.main</title>
<path fill="none" stroke="#9ccfd8" stroke-width="2" d="M1683.73,-442.06C1765.08,-403.7 1890.45,-344.59 1975.69,-304.4"/>
<polygon fill="#9ccfd8" stroke="#9ccfd8" stroke-width="2" points="1977.16,-307.58 1984.71,-300.15 1974.17,-301.25 1977.16,-307.58"/>
</g>
<!-- @/String&#45;&gt;@/RenderDot -->
<g id="edge48" class="edge">
<title>@/String&#45;&gt;@/RenderDot</title>
<path fill="none" stroke="#9ccfd8" stroke-width="2" d="M1965.72,-663.4C1928.19,-607.56 1850.96,-503.34 1761,-442.5 1653.16,-369.57 1512.69,-322.34 1406.64,-294.37"/>
<polygon fill="#9ccfd8" stroke="#9ccfd8" stroke-width="2" points="1407.7,-291.03 1397.14,-291.9 1405.93,-297.81 1407.7,-291.03"/>
</g>
<!-- @/String&#45;&gt;@/RenderMermaid -->
<g id="edge55" class="edge">
<title>@/String&#45;&gt;@/RenderMermaid</title>
<path fill="none" stroke="#9ccfd8" stroke-width="2" d="M2017.85,-663.68C2045.09,-626.82 2086.68,-570.52 2116.33,-530.4"/>
<polygon fill="#9ccfd8" stroke="#9ccfd8" stroke-width="2" points="2119.05,-532.61 2122.17,-522.49 2113.42,-528.45 2119.05,-532.61"/>
</g>
<!-- @/Theme&#45;&gt;@/Dot.main -->
<g id="edge14" class="edge">
<title>@/Theme&#45;&gt;@/Dot.main</title>
<path fill="none" stroke="#9ccfd8" stroke-width="2" d="M403.56,-442.16C415.56,-384.85 446.69,-277.04 518,-221.25 638.42,-127.03 1076.45,-73.48 1303.07,-51.5"/>
<polygon fill="#9ccfd8" stroke="#9ccfd8" stroke-width="2" points="1303.39,-54.99 1313.01,-50.55 1302.72,-48.02 1303.39,-54.99"/>
</g>
<!-- @/Theme&#45;&gt;@/RenderDot -->
<g id="edge49" class="edge">
<title>@/Theme&#45;&gt;@/RenderDot</title>
<path fill="none" stroke="#9ccfd8" stroke-width="2" d="M503.99,-452.69C653.57,-414.33 926.07,-344.45 1097.62,-300.46"/>
<polygon fill="#9ccfd8" stroke="#9ccfd8" stroke-width="2" points="1098.3,-303.9 1107.12,-298.03 1096.56,-297.12 1098.3,-303.9"/>
</g>
<!-- @/Theme&#45;&gt;@/Theme/OhNo -->
<g id="edge71" class="edge">
<title>@/Theme&#45;&gt;@/Theme/OhNo</title>
<path fill="none" stroke="#9ccfd8" stroke-width="2" d="M375.51,-442.43C354.63,-405.81 322.81,-349.99 299.96,-309.92"/>
<polygon fill="#9ccfd8" stroke="#9ccfd8" stroke-width="2" points="303.12,-308.39 295.13,-301.44 297.04,-311.86 303.12,-308.39"/>
</g>
<!-- @/Theme/OhNo&#45;&gt;@/Dot.main -->
<g id="edge15" class="edge">
<title>@/Theme/OhNo&#45;&gt;@/Dot.main</title>
<path fill="none" stroke="#9ccfd8" stroke-width="2" d="M437.02,-227.48C448.18,-225.37 459.25,-223.28 470,-221.25 766.95,-165.26 1115.13,-100.3 1303.34,-65.25"/>
<polygon fill="#9ccfd8" stroke="#9ccfd8" stroke-width="2" points="1303.89,-68.7 1313.08,-63.43 1302.61,-61.82 1303.89,-68.7"/>
</g>
<!-- Dictionary&#45;&gt;@/Dependencies -->
<g id="edge2" class="edge">
<title>Dictionary&#45;&gt;@/Dependencies</title>
<path fill="none" stroke="#31748f" stroke-width="2" stroke-dasharray="5,2" d="M1377.59,-673.16C1294.82,-635.75 1147.94,-569.34 1051,-525.52"/>
<polygon fill="#31748f" stroke="#31748f" stroke-width="2" points="1052.45,-522.34 1041.9,-521.41 1049.57,-528.72 1052.45,-522.34"/>
</g>
<!-- Dictionary&#45;&gt;@/Dot.main -->
<g id="edge16" class="edge">
<title>Dictionary&#45;&gt;@/Dot.main</title>
<path fill="none" stroke="#31748f" stroke-width="2" stroke-dasharray="5,2" d="M1439.59,-673.06C1439.1,-637.33 1438.3,-573.99 1438,-519.75 1437.14,-363.32 1439.15,-178.23 1440.29,-90.56"/>
<polygon fill="#31748f" stroke="#31748f" stroke-width="2" points="1443.79,-90.66 1440.42,-80.62 1436.79,-90.57 1443.79,-90.66"/>
</g>
<!-- Dictionary&#45;&gt;@/Mermaid.main -->
<g id="edge37" class="edge">
<title>Dictionary&#45;&gt;@/Mermaid.main</title>
<path fill="none" stroke="#31748f" stroke-width="2" stroke-dasharray="5,2" d="M1435.42,-673.33C1428.6,-621.19 1422.08,-508.64 1479,-442.5 1532.34,-380.52 1731.91,-327.81 1884.1,-295.4"/>
<polygon fill="#31748f" stroke="#31748f" stroke-width="2" points="1884.8,-298.83 1893.86,-293.34 1883.35,-291.98 1884.8,-298.83"/>
</g>
<!-- Dictionary&#45;&gt;@/RenderDot -->
<g id="edge50" class="edge">
<title>Dictionary&#45;&gt;@/RenderDot</title>
<path fill="none" stroke="#31748f" stroke-width="2" stroke-dasharray="5,2" d="M1395.76,-673.23C1351.07,-641.93 1284.65,-586.83 1256,-519.75 1227.13,-452.16 1233.51,-365.3 1241.89,-311.36"/>
<polygon fill="#31748f" stroke="#31748f" stroke-width="2" points="1245.3,-312.14 1243.48,-301.7 1238.4,-311 1245.3,-312.14"/>
</g>
<!-- Dictionary&#45;&gt;@/RenderMermaid -->
<g id="edge56" class="edge">
<title>Dictionary&#45;&gt;@/RenderMermaid</title>
<path fill="none" stroke="#31748f" stroke-width="2" stroke-dasharray="5,2" d="M1531.99,-673.05C1655,-635.17 1874.01,-567.73 2016.08,-523.98"/>
<polygon fill="#31748f" stroke="#31748f" stroke-width="2" points="2016.88,-527.39 2025.41,-521.11 2014.82,-520.7 2016.88,-527.39"/>
</g>
<!-- Dictionary&#45;&gt;@/Ripgrep -->
<g id="edge63" class="edge">
<title>Dictionary&#45;&gt;@/Ripgrep</title>
<path fill="none" stroke="#31748f" stroke-width="2" stroke-dasharray="5,2" d="M1460.98,-673.16C1487.75,-637.15 1534.47,-574.3 1566.99,-530.56"/>
<polygon fill="#31748f" stroke="#31748f" stroke-width="2" points="1569.76,-532.7 1572.92,-522.59 1564.14,-528.53 1569.76,-532.7"/>
</g>
<!-- Either&#45;&gt;@/Dependencies -->
<g id="edge3" class="edge">
<title>Either&#45;&gt;@/Dependencies</title>
<path fill="none" stroke="#31748f" stroke-width="2" stroke-dasharray="5,2" d="M2148.54,-903.44C1891.88,-872.69 1099.12,-775.32 1056,-741 1022.49,-714.33 986.88,-600.12 968.2,-532.64"/>
<polygon fill="#31748f" stroke="#31748f" stroke-width="2" points="971.61,-531.85 965.6,-523.13 964.86,-533.69 971.61,-531.85"/>
</g>
<!-- Either&#45;&gt;@/Dot.main -->
<g id="edge17" class="edge">
<title>Either&#45;&gt;@/Dot.main</title>
<path fill="none" stroke="#31748f" stroke-width="2" stroke-dasharray="5,2" d="M2307.26,-895.4C2428.83,-866.8 2652.14,-806.6 2698,-741 2726.75,-699.88 2748.13,-573.36 2685,-442.5 2620.96,-309.76 2570.36,-286.06 2438,-221.25 2154.27,-82.33 1778.08,-48.93 1578.71,-41.38"/>
<polygon fill="#31748f" stroke="#31748f" stroke-width="2" points="1578.98,-37.88 1568.86,-41.02 1578.73,-44.88 1578.98,-37.88"/>
</g>
<!-- Either&#45;&gt;@/MadlibJson -->
<g id="edge30" class="edge">
<title>Either&#45;&gt;@/MadlibJson</title>
<path fill="none" stroke="#31748f" stroke-width="2" stroke-dasharray="5,2" d="M2148.65,-902.08C1955.2,-875.66 1443.91,-805.2 1018,-741 993.06,-737.24 966.65,-733.14 940.88,-729.08"/>
<polygon fill="#31748f" stroke="#31748f" stroke-width="2" points="941.7,-725.67 931.28,-727.57 940.61,-732.58 941.7,-725.67"/>
</g>
<!-- Either&#45;&gt;@/Mermaid.main -->
<g id="edge38" class="edge">
<title>Either&#45;&gt;@/Mermaid.main</title>
<path fill="none" stroke="#31748f" stroke-width="2" stroke-dasharray="5,2" d="M2258.93,-884.66C2291.18,-853.14 2340.17,-798.89 2363,-741 2411.78,-617.34 2448.42,-557.65 2382,-442.5 2343.86,-376.37 2271.43,-332.14 2205.74,-303.91"/>
<polygon fill="#31748f" stroke="#31748f" stroke-width="2" points="2207.36,-300.79 2196.78,-300.16 2204.66,-307.25 2207.36,-300.79"/>
</g>
<!-- File&#45;&gt;@/Dot.main -->
<g id="edge18" class="edge">
<title>File&#45;&gt;@/Dot.main</title>
<path fill="none" stroke="#31748f" stroke-width="2" stroke-dasharray="5,2" d="M2572.54,-451.85C2515.05,-398.3 2381.79,-282.03 2248,-221.25 2026.11,-120.45 1743.77,-73.48 1578.64,-53.27"/>
<polygon fill="#31748f" stroke="#31748f" stroke-width="2" points="1579.33,-49.82 1568.98,-52.1 1578.49,-56.77 1579.33,-49.82"/>
</g>
<!-- File&#45;&gt;@/Mermaid.main -->
<g id="edge39" class="edge">
<title>File&#45;&gt;@/Mermaid.main</title>
<path fill="none" stroke="#31748f" stroke-width="2" stroke-dasharray="5,2" d="M2552.63,-451.81C2546.42,-448.55 2540.11,-445.36 2534,-442.5 2419.59,-388.85 2284.67,-337.5 2189.53,-303.18"/>
<polygon fill="#31748f" stroke="#31748f" stroke-width="2" points="2190.99,-299.98 2180.39,-299.89 2188.62,-306.57 2190.99,-299.98"/>
</g>
<!-- Function&#45;&gt;@/Dependencies -->
<g id="edge4" class="edge">
<title>Function&#45;&gt;@/Dependencies</title>
<path fill="none" stroke="#31748f" stroke-width="2" stroke-dasharray="5,2" d="M1169.34,-673.16C1128.35,-636.62 1056.33,-572.44 1007.19,-528.64"/>
<polygon fill="#31748f" stroke="#31748f" stroke-width="2" points="1009.73,-526.22 999.94,-522.18 1005.07,-531.44 1009.73,-526.22"/>
</g>
<!-- Function&#45;&gt;@/Dot.main -->
<g id="edge19" class="edge">
<title>Function&#45;&gt;@/Dot.main</title>
<path fill="none" stroke="#31748f" stroke-width="2" stroke-dasharray="5,2" d="M1194.02,-673.02C1182.28,-625.39 1157.83,-526.29 1137,-442.5 1121.08,-378.48 1109.06,-363.98 1101,-298.5 1096.81,-264.42 1083.35,-250.7 1101,-221.25 1145.01,-147.85 1229.89,-102.46 1303.83,-75.41"/>
<polygon fill="#31748f" stroke="#31748f" stroke-width="2" points="1304.96,-78.72 1313.21,-72.08 1302.62,-72.13 1304.96,-78.72"/>
</g>
<!-- Function&#45;&gt;@/Mermaid.main -->
<g id="edge40" class="edge">
<title>Function&#45;&gt;@/Mermaid.main</title>
<path fill="none" stroke="#31748f" stroke-width="2" stroke-dasharray="5,2" d="M1225.1,-673.37C1280.06,-609.77 1411.91,-458.68 1438,-442.5 1574.59,-357.8 1752.16,-311.28 1883.95,-286.59"/>
<polygon fill="#31748f" stroke="#31748f" stroke-width="2" points="1884.38,-290.07 1893.58,-284.82 1883.11,-283.19 1884.38,-290.07"/>
</g>
<!-- Function&#45;&gt;@/RenderDot -->
<g id="edge51" class="edge">
<title>Function&#45;&gt;@/RenderDot</title>
<path fill="none" stroke="#31748f" stroke-width="2" stroke-dasharray="5,2" d="M1201.74,-673.31C1203.25,-625.68 1207.47,-526.07 1218,-442.5 1223.61,-398 1233.23,-347.92 1240.81,-311.64"/>
<polygon fill="#31748f" stroke="#31748f" stroke-width="2" points="1244.23,-312.4 1242.88,-301.9 1237.38,-310.95 1244.23,-312.4"/>
</g>
<!-- Function&#45;&gt;@/Ripgrep -->
<g id="edge64" class="edge">
<title>Function&#45;&gt;@/Ripgrep</title>
<path fill="none" stroke="#31748f" stroke-width="2" stroke-dasharray="5,2" d="M1252.73,-673.16C1320.98,-635.94 1441.85,-570.02 1522.2,-526.19"/>
<polygon fill="#31748f" stroke="#31748f" stroke-width="2" points="1523.5,-529.47 1530.6,-521.61 1520.15,-523.33 1523.5,-529.47"/>
</g>
<!-- IO&#45;&gt;@/Dependencies -->
<g id="edge5" class="edge">
<title>IO&#45;&gt;@/Dependencies</title>
<path fill="none" stroke="#31748f" stroke-width="2" stroke-dasharray="5,2" d="M2386.95,-902.33C2366.43,-896.5 2339.93,-889.53 2316,-885 2046.25,-833.96 1314.81,-897.14 1089,-741 1089,-741 1019.48,-606.7 980.59,-531.57"/>
<polygon fill="#31748f" stroke="#31748f" stroke-width="2" points="983.73,-530.01 976.02,-522.73 977.51,-533.22 983.73,-530.01"/>
</g>
<!-- IO&#45;&gt;@/Dot.main -->
<g id="edge20" class="edge">
<title>IO&#45;&gt;@/Dot.main</title>
<path fill="none" stroke="#31748f" stroke-width="2" stroke-dasharray="5,2" d="M2456.96,-890.48C2460,-888.61 2463.05,-886.76 2466,-885 2578.84,-817.84 2657.52,-854.24 2724,-741 2849.55,-527.14 2737.12,-342.88 2521,-221.25 2361.62,-131.55 1831.89,-74.1 1578.43,-51.08"/>
<polygon fill="#31748f" stroke="#31748f" stroke-width="2" points="1579.12,-47.63 1568.85,-50.22 1578.49,-54.6 1579.12,-47.63"/>
</g>
<!-- IO&#45;&gt;@/External -->
<g id="edge26" class="edge">
<title>IO&#45;&gt;@/External</title>
<path fill="none" stroke="#31748f" stroke-width="2" stroke-dasharray="5,2" d="M2442.09,-884.62C2466.23,-850.68 2507.12,-793.2 2536.37,-752.06"/>
<polygon fill="#31748f" stroke="#31748f" stroke-width="2" points="2539.22,-754.1 2542.16,-743.92 2533.52,-750.04 2539.22,-754.1"/>
</g>
<!-- IO&#45;&gt;@/Mermaid.main -->
<g id="edge41" class="edge">
<title>IO&#45;&gt;@/Mermaid.main</title>
<path fill="none" stroke="#31748f" stroke-width="2" stroke-dasharray="5,2" d="M2424.95,-884.74C2433.82,-794.94 2456.9,-516.76 2411,-442.5 2369.31,-375.04 2293.45,-331.22 2223.66,-303.56"/>
<polygon fill="#31748f" stroke="#31748f" stroke-width="2" points="2225.03,-300.34 2214.44,-300.01 2222.52,-306.87 2225.03,-300.34"/>
</g>
<!-- IO&#45;&gt;@/RenderMermaid -->
<g id="edge57" class="edge">
<title>IO&#45;&gt;@/RenderMermaid</title>
<path fill="none" stroke="#31748f" stroke-width="2" stroke-dasharray="5,2" d="M2409.29,-884.71C2387.61,-837.59 2341.01,-740.41 2292,-663.75 2261.52,-616.07 2221.73,-565.35 2192.36,-529.66"/>
<polygon fill="#31748f" stroke="#31748f" stroke-width="2" points="2195.37,-527.81 2186.3,-522.34 2189.98,-532.27 2195.37,-527.81"/>
</g>
<!-- Json/Parse&#45;&gt;@/MadlibJson -->
<g id="edge31" class="edge">
<title>Json/Parse&#45;&gt;@/MadlibJson</title>
<path fill="none" stroke="#31748f" stroke-width="2" stroke-dasharray="5,2" d="M782,-884.62C782,-851.33 782,-795.39 782,-754.44"/>
<polygon fill="#31748f" stroke="#31748f" stroke-width="2" points="785.5,-754.48 782,-744.48 778.5,-754.48 785.5,-754.48"/>
</g>
<!-- List&#45;&gt;@/Dependencies -->
<g id="edge6" class="edge">
<title>List&#45;&gt;@/Dependencies</title>
<path fill="none" stroke="#31748f" stroke-width="2" stroke-dasharray="5,2" d="M1730.66,-680.23C1715.39,-674.53 1698.64,-668.6 1683,-663.75 1500.86,-607.3 1288.99,-556.02 1140.94,-522.46"/>
<polygon fill="#31748f" stroke="#31748f" stroke-width="2" points="1142.08,-519.13 1131.56,-520.34 1140.54,-525.96 1142.08,-519.13"/>
</g>
<!-- List&#45;&gt;@/Dot.main -->
<g id="edge21" class="edge">
<title>List&#45;&gt;@/Dot.main</title>
<path fill="none" stroke="#31748f" stroke-width="2" stroke-dasharray="5,2" d="M1786.62,-673.35C1790.1,-624.51 1792.54,-521.49 1761,-442.5 1701.52,-293.54 1568.03,-155.33 1493.63,-86.08"/>
<polygon fill="#31748f" stroke="#31748f" stroke-width="2" points="1496.37,-83.84 1486.64,-79.63 1491.62,-88.99 1496.37,-83.84"/>
</g>
<!-- List&#45;&gt;@/Mermaid.main -->
<g id="edge42" class="edge">
<title>List&#45;&gt;@/Mermaid.main</title>
<path fill="none" stroke="#31748f" stroke-width="2" stroke-dasharray="5,2" d="M1796.87,-673.2C1819.55,-624.57 1869.25,-522.41 1922,-442.5 1953.58,-394.66 1994.92,-344.14 2025.55,-308.57"/>
<polygon fill="#31748f" stroke="#31748f" stroke-width="2" points="2028,-311.08 2031.9,-301.23 2022.71,-306.5 2028,-311.08"/>
</g>
<!-- List&#45;&gt;@/RenderDot -->
<g id="edge52" class="edge">
<title>List&#45;&gt;@/RenderDot</title>
<path fill="none" stroke="#31748f" stroke-width="2" stroke-dasharray="5,2" d="M1785.92,-673.07C1787.88,-621 1784.52,-509.27 1727,-442.5 1646.43,-348.98 1512.18,-303.44 1406.92,-281.36"/>
<polygon fill="#31748f" stroke="#31748f" stroke-width="2" points="1407.7,-277.95 1397.2,-279.39 1406.3,-284.81 1407.7,-277.95"/>
</g>
<!-- List&#45;&gt;@/RenderMermaid -->
<g id="edge58" class="edge">
<title>List&#45;&gt;@/RenderMermaid</title>
<path fill="none" stroke="#31748f" stroke-width="2" stroke-dasharray="5,2" d="M1831.36,-673.16C1893.58,-636.09 2003.57,-570.56 2077.13,-526.73"/>
<polygon fill="#31748f" stroke="#31748f" stroke-width="2" points="2078.76,-529.84 2085.56,-521.71 2075.17,-523.82 2078.76,-529.84"/>
</g>
<!-- List&#45;&gt;@/Ripgrep -->
<g id="edge65" class="edge">
<title>List&#45;&gt;@/Ripgrep</title>
<path fill="none" stroke="#31748f" stroke-width="2" stroke-dasharray="5,2" d="M1760.71,-673.16C1730.86,-637 1678.66,-573.77 1642.53,-530.01"/>
<polygon fill="#31748f" stroke="#31748f" stroke-width="2" points="1645.39,-527.98 1636.33,-522.5 1640,-532.44 1645.39,-527.98"/>
</g>
<!-- Maybe&#45;&gt;@/Dependencies -->
<g id="edge7" class="edge">
<title>Maybe&#45;&gt;@/Dependencies</title>
<path fill="none" stroke="#31748f" stroke-width="2" stroke-dasharray="5,2" d="M551.94,-884.65C556.7,-834.84 572.9,-730.32 627,-663.75 679.2,-599.52 760.45,-554.29 829.03,-525.03"/>
<polygon fill="#31748f" stroke="#31748f" stroke-width="2" points="830.12,-528.37 838,-521.28 827.42,-521.91 830.12,-528.37"/>
</g>
<!-- Maybe&#45;&gt;@/Dot.main -->
<g id="edge22" class="edge">
<title>Maybe&#45;&gt;@/Dot.main</title>
<path fill="none" stroke="#31748f" stroke-width="2" stroke-dasharray="5,2" d="M545.7,-884.66C535.48,-809.29 515.24,-598.4 581,-442.5 632.4,-320.64 667.47,-290.74 780,-221.25 943.41,-120.34 1163.47,-74.48 1303.82,-54.36"/>
<polygon fill="#31748f" stroke="#31748f" stroke-width="2" points="1303.89,-57.89 1313.31,-53.03 1302.92,-50.95 1303.89,-57.89"/>
</g>
<!-- Maybe&#45;&gt;@/MadlibJson -->
<g id="edge32" class="edge">
<title>Maybe&#45;&gt;@/MadlibJson</title>
<path fill="none" stroke="#31748f" stroke-width="2" stroke-dasharray="5,2" d="M581.29,-884.62C619.51,-850.11 684.71,-791.23 730.4,-749.97"/>
<polygon fill="#31748f" stroke="#31748f" stroke-width="2" points="732.51,-752.78 737.59,-743.48 727.82,-747.59 732.51,-752.78"/>
</g>
<!-- Maybe&#45;&gt;@/Mermaid.main -->
<g id="edge43" class="edge">
<title>Maybe&#45;&gt;@/Mermaid.main</title>
<path fill="none" stroke="#31748f" stroke-width="2" stroke-dasharray="5,2" d="M626.77,-890.8C635.57,-888.66 644.45,-886.66 653,-885 915.12,-833.99 1636.76,-906.91 1846,-741 1873.67,-719.06 1939.54,-474.24 1955,-442.5 1977.92,-395.45 2009.85,-345.17 2033.92,-309.46"/>
<polygon fill="#31748f" stroke="#31748f" stroke-width="2" points="2036.69,-311.61 2039.42,-301.37 2030.9,-307.68 2036.69,-311.61"/>
</g>
<!-- Maybe&#45;&gt;@/Theme -->
<g id="edge69" class="edge">
<title>Maybe&#45;&gt;@/Theme</title>
<path fill="none" stroke="#31748f" stroke-width="2" stroke-dasharray="5,2" d="M539.96,-884.61C514.5,-812.93 447.14,-623.28 414.81,-532.26"/>
<polygon fill="#31748f" stroke="#31748f" stroke-width="2" points="418.14,-531.2 411.5,-522.94 411.55,-533.54 418.14,-531.2"/>
</g>
<!-- Maybe&#45;&gt;@/Theme/OhNo -->
<g id="edge72" class="edge">
<title>Maybe&#45;&gt;@/Theme/OhNo</title>
<path fill="none" stroke="#31748f" stroke-width="2" stroke-dasharray="5,2" d="M521.82,-884.52C463.73,-823.89 331.85,-674.53 281,-519.75 258.23,-450.43 260.71,-364.99 265.57,-311.71"/>
<polygon fill="#31748f" stroke="#31748f" stroke-width="2" points="269.04,-312.2 266.55,-301.9 262.08,-311.5 269.04,-312.2"/>
</g>
<!-- Process&#45;&gt;@/External -->
<g id="edge27" class="edge">
<title>Process&#45;&gt;@/External</title>
<path fill="none" stroke="#31748f" stroke-width="2" stroke-dasharray="5,2" d="M2571,-884.62C2571,-851.33 2571,-795.39 2571,-754.44"/>
<polygon fill="#31748f" stroke="#31748f" stroke-width="2" points="2574.5,-754.48 2571,-744.48 2567.5,-754.48 2574.5,-754.48"/>
</g>
<!-- Set&#45;&gt;@/Dependencies -->
<g id="edge8" class="edge">
<title>Set&#45;&gt;@/Dependencies</title>
<path fill="none" stroke="#31748f" stroke-width="2" stroke-dasharray="5,2" d="M1583.91,-673.16C1578.04,-669.72 1571.97,-666.47 1566,-663.75 1428.89,-601.15 1264.73,-553.75 1141.11,-523.1"/>
<polygon fill="#31748f" stroke="#31748f" stroke-width="2" points="1142.01,-519.71 1131.46,-520.72 1140.33,-526.51 1142.01,-519.71"/>
</g>
<!-- Set&#45;&gt;@/Dot.main -->
<g id="edge23" class="edge">
<title>Set&#45;&gt;@/Dot.main</title>
<path fill="none" stroke="#31748f" stroke-width="2" stroke-dasharray="5,2" d="M1593.06,-673.25C1558.14,-640.35 1503.86,-582.35 1479,-519.75 1463.47,-480.65 1448.87,-206.22 1443.34,-90.7"/>
<polygon fill="#31748f" stroke="#31748f" stroke-width="2" points="1446.84,-90.59 1442.87,-80.77 1439.84,-90.92 1446.84,-90.59"/>
</g>
<!-- Set&#45;&gt;@/Mermaid.main -->
<g id="edge44" class="edge">
<title>Set&#45;&gt;@/Mermaid.main</title>
<path fill="none" stroke="#31748f" stroke-width="2" stroke-dasharray="5,2" d="M1650.77,-673.25C1695.1,-625.12 1789.04,-524.26 1872,-442.5 1919.77,-395.42 1976.1,-343.59 2016.08,-307.39"/>
<polygon fill="#31748f" stroke="#31748f" stroke-width="2" points="2018.31,-310.09 2023.38,-300.79 2013.61,-304.9 2018.31,-310.09"/>
</g>
<!-- Set&#45;&gt;@/RenderDot -->
<g id="edge53" class="edge">
<title>Set&#45;&gt;@/RenderDot</title>
<path fill="none" stroke="#31748f" stroke-width="2" stroke-dasharray="5,2" d="M1594.91,-673.28C1558.29,-638.53 1495.24,-576.96 1446,-519.75 1385.68,-449.66 1322.7,-362.64 1285.43,-309.46"/>
<polygon fill="#31748f" stroke="#31748f" stroke-width="2" points="1288.43,-307.64 1279.84,-301.45 1282.69,-311.65 1288.43,-307.64"/>
</g>
<!-- Set&#45;&gt;@/RenderMermaid -->
<g id="edge59" class="edge">
<title>Set&#45;&gt;@/RenderMermaid</title>
<path fill="none" stroke="#31748f" stroke-width="2" stroke-dasharray="5,2" d="M1674.58,-680.75C1759.83,-645.28 1935.9,-572.03 2048.75,-525.08"/>
<polygon fill="#31748f" stroke="#31748f" stroke-width="2" points="2049.8,-528.43 2057.69,-521.36 2047.11,-521.97 2049.8,-528.43"/>
</g>
<!-- Set&#45;&gt;@/Ripgrep -->
<g id="edge66" class="edge">
<title>Set&#45;&gt;@/Ripgrep</title>
<path fill="none" stroke="#31748f" stroke-width="2" stroke-dasharray="5,2" d="M1622.17,-673.16C1618.62,-637.84 1612.49,-576.68 1608.11,-533.08"/>
<polygon fill="#31748f" stroke="#31748f" stroke-width="2" points="1611.6,-532.77 1607.12,-523.17 1604.63,-533.47 1611.6,-532.77"/>
</g>
<!-- String&#45;&gt;@/Dependencies -->
<g id="edge9" class="edge">
<title>String&#45;&gt;@/Dependencies</title>
<path fill="none" stroke="#31748f" stroke-width="2" stroke-dasharray="5,2" d="M1767.54,-907.04C1581.44,-891.77 1125.02,-844.41 1018,-741 961.84,-686.73 952.35,-591.43 952.41,-532.84"/>
<polygon fill="#31748f" stroke="#31748f" stroke-width="2" points="955.9,-532.92 952.53,-522.88 948.9,-532.83 955.9,-532.92"/>
</g>
<!-- String&#45;&gt;@/Dot.main -->
<g id="edge24" class="edge">
<title>String&#45;&gt;@/Dot.main</title>
<path fill="none" stroke="#31748f" stroke-width="2" stroke-dasharray="5,2" d="M1767.6,-907.65C1508.85,-889.81 702.28,-827.63 627,-741 458.74,-547.37 674.49,-377.42 878,-221.25 1003.32,-125.08 1181.28,-78.91 1303.39,-57.37"/>
<polygon fill="#31748f" stroke="#31748f" stroke-width="2" points="1303.89,-60.84 1313.16,-55.69 1302.71,-53.94 1303.89,-60.84"/>
</g>
<!-- String&#45;&gt;@/External -->
<g id="edge28" class="edge">
<title>String&#45;&gt;@/External</title>
<path fill="none" stroke="#31748f" stroke-width="2" stroke-dasharray="5,2" d="M1926.55,-889.86C2050.35,-854.03 2290.41,-784.57 2440.02,-741.28"/>
<polygon fill="#31748f" stroke="#31748f" stroke-width="2" points="2440.88,-744.67 2449.51,-738.53 2438.94,-737.95 2440.88,-744.67"/>
</g>
<!-- String&#45;&gt;@/Mermaid.main -->
<g id="edge45" class="edge">
<title>String&#45;&gt;@/Mermaid.main</title>
<path fill="none" stroke="#31748f" stroke-width="2" stroke-dasharray="5,2" d="M1926.53,-904.21C2026.53,-889.02 2196.62,-848.19 2292,-741 2381.79,-640.1 2413.57,-561.13 2349,-442.5 2314.1,-378.39 2245.77,-333.46 2185.22,-304.33"/>
<polygon fill="#31748f" stroke="#31748f" stroke-width="2" points="2186.91,-301.25 2176.37,-300.17 2183.94,-307.59 2186.91,-301.25"/>
</g>
<!-- String&#45;&gt;@/RenderDot -->
<g id="edge54" class="edge">
<title>String&#45;&gt;@/RenderDot</title>
<path fill="none" stroke="#31748f" stroke-width="2" stroke-dasharray="5,2" d="M1767.67,-906.74C1575.7,-890.46 1092.88,-840.43 970,-741 940.98,-717.52 958.9,-693.98 937,-663.75 880.09,-585.2 813.01,-608.11 773,-519.75 707.6,-375.29 933.6,-308.99 1097.18,-280.45"/>
<polygon fill="#31748f" stroke="#31748f" stroke-width="2" points="1097.57,-283.94 1106.84,-278.81 1096.4,-277.04 1097.57,-283.94"/>
</g>
<!-- String&#45;&gt;@/RenderMermaid -->
<g id="edge60" class="edge">
<title>String&#45;&gt;@/RenderMermaid</title>
<path fill="none" stroke="#31748f" stroke-width="2" stroke-dasharray="5,2" d="M1913.22,-884.5C1970.56,-856.45 2051.15,-808.01 2096,-741 2138.18,-677.98 2149.25,-588.74 2151.8,-533.2"/>
<polygon fill="#31748f" stroke="#31748f" stroke-width="2" points="2155.29,-533.33 2152.15,-523.21 2148.3,-533.08 2155.29,-533.33"/>
</g>
<!-- String&#45;&gt;@/Ripgrep -->
<g id="edge67" class="edge">
<title>String&#45;&gt;@/Ripgrep</title>
<path fill="none" stroke="#31748f" stroke-width="2" stroke-dasharray="5,2" d="M1823.71,-884.57C1797.11,-851.45 1753.23,-794.33 1722,-741 1700.1,-703.61 1652.44,-596.14 1624.53,-532.03"/>
<polygon fill="#31748f" stroke="#31748f" stroke-width="2" points="1627.8,-530.76 1620.6,-522.98 1621.38,-533.55 1627.8,-530.76"/>
</g>
<!-- String&#45;&gt;@/String -->
<g id="edge68" class="edge">
<title>String&#45;&gt;@/String</title>
<path fill="none" stroke="#31748f" stroke-width="2" stroke-dasharray="5,2" d="M1866.29,-884.62C1889.45,-850.68 1928.69,-793.2 1956.77,-752.06"/>
<polygon fill="#31748f" stroke="#31748f" stroke-width="2" points="1959.56,-754.19 1962.3,-743.95 1953.77,-750.24 1959.56,-754.19"/>
</g>
<!-- Tuple&#45;&gt;@/RenderMermaid -->
<g id="edge61" class="edge">
<title>Tuple&#45;&gt;@/RenderMermaid</title>
<path fill="none" stroke="#31748f" stroke-width="2" stroke-dasharray="5,2" d="M2205.15,-673.16C2195.28,-637.69 2178.16,-576.16 2166.02,-532.52"/>
<polygon fill="#31748f" stroke="#31748f" stroke-width="2" points="2169.45,-531.77 2163.39,-523.08 2162.7,-533.65 2169.45,-531.77"/>
</g>
<!-- Wish&#45;&gt;@/Dot.main -->
<g id="edge25" class="edge">
<title>Wish&#45;&gt;@/Dot.main</title>
<path fill="none" stroke="#31748f" stroke-width="2" stroke-dasharray="5,2" d="M2757.1,-884.73C2779.72,-809.96 2832.63,-601.27 2775,-442.5 2731.26,-322.01 2701.52,-284.45 2590,-221.25 2419.18,-124.44 1845,-69.92 1578.73,-49.29"/>
<polygon fill="#31748f" stroke="#31748f" stroke-width="2" points="1579.16,-45.81 1568.92,-48.53 1578.62,-52.79 1579.16,-45.81"/>
</g>
<!-- Wish&#45;&gt;@/External -->
<g id="edge29" class="edge">
<title>Wish&#45;&gt;@/External</title>
<path fill="none" stroke="#31748f" stroke-width="2" stroke-dasharray="5,2" d="M2724.13,-884.62C2695.27,-850.47 2646.27,-792.46 2611.47,-751.27"/>
<polygon fill="#31748f" stroke="#31748f" stroke-width="2" points="2614.25,-749.14 2605.12,-743.76 2608.9,-753.66 2614.25,-749.14"/>
</g>
<!-- Wish&#45;&gt;@/Mermaid.main -->
<g id="edge46" class="edge">
<title>Wish&#45;&gt;@/Mermaid.main</title>
<path fill="none" stroke="#31748f" stroke-width="2" stroke-dasharray="5,2" d="M2747.96,-884.75C2746.72,-836.42 2738.95,-735.87 2698,-663.75 2650.92,-580.84 2599.39,-593.52 2539,-519.75 2513.69,-488.83 2523.07,-468.81 2493,-442.5 2417.52,-376.46 2314.44,-331.61 2228.7,-303.01"/>
<polygon fill="#31748f" stroke="#31748f" stroke-width="2" points="2229.92,-299.72 2219.32,-299.93 2227.74,-306.37 2229.92,-299.72"/>
</g>
<!-- @/Dependencies -->
<g id="node1" class="node">
<title>@/Dependencies</title>
<path fill="#9ccfd8" stroke="black" d="M1116.25,-519.75C1116.25,-519.75 793.75,-519.75 793.75,-519.75 787.75,-519.75 781.75,-513.75 781.75,-507.75 781.75,-507.75 781.75,-454.5 781.75,-454.5 781.75,-448.5 787.75,-442.5 793.75,-442.5 793.75,-442.5 1116.25,-442.5 1116.25,-442.5 1122.25,-442.5 1128.25,-448.5 1128.25,-454.5 1128.25,-454.5 1128.25,-507.75 1128.25,-507.75 1128.25,-513.75 1122.25,-519.75 1116.25,-519.75"/>
<text text-anchor="middle" x="955" y="-463.75" font-family="Obviously Narrow" font-size="40.00" fill="#191724">@/Dependencies</text>
</g>
<!-- @/Dot.main -->
<g id="node2" class="node">
<title>@/Dot.main</title>
<path fill="#9ccfd8" stroke="black" d="M1553.5,-77.25C1553.5,-77.25 1328.5,-77.25 1328.5,-77.25 1322.5,-77.25 1316.5,-71.25 1316.5,-65.25 1316.5,-65.25 1316.5,-12 1316.5,-12 1316.5,-6 1322.5,0 1328.5,0 1328.5,0 1553.5,0 1553.5,0 1559.5,0 1565.5,-6 1565.5,-12 1565.5,-12 1565.5,-65.25 1565.5,-65.25 1565.5,-71.25 1559.5,-77.25 1553.5,-77.25"/>
<text text-anchor="middle" x="1441" y="-21.25" font-family="Obviously Narrow" font-size="40.00" fill="#191724">@/Dot.main</text>
</g>
<!-- @/External -->
<g id="node3" class="node">
<title>@/External</title>
<path fill="#9ccfd8" stroke="black" d="M2677.12,-741C2677.12,-741 2464.88,-741 2464.88,-741 2458.88,-741 2452.88,-735 2452.88,-729 2452.88,-729 2452.88,-675.75 2452.88,-675.75 2452.88,-669.75 2458.88,-663.75 2464.88,-663.75 2464.88,-663.75 2677.12,-663.75 2677.12,-663.75 2683.12,-663.75 2689.12,-669.75 2689.12,-675.75 2689.12,-675.75 2689.12,-729 2689.12,-729 2689.12,-735 2683.12,-741 2677.12,-741"/>
<text text-anchor="middle" x="2571" y="-685" font-family="Obviously Narrow" font-size="40.00" fill="#191724">@/External</text>
</g>
<!-- @/MadlibJson -->
<g id="node4" class="node">
<title>@/MadlibJson</title>
<path fill="#9ccfd8" stroke="black" d="M915.88,-741C915.88,-741 648.12,-741 648.12,-741 642.12,-741 636.12,-735 636.12,-729 636.12,-729 636.12,-675.75 636.12,-675.75 636.12,-669.75 642.12,-663.75 648.12,-663.75 648.12,-663.75 915.88,-663.75 915.88,-663.75 921.88,-663.75 927.88,-669.75 927.88,-675.75 927.88,-675.75 927.88,-729 927.88,-729 927.88,-735 921.88,-741 915.88,-741"/>
<text text-anchor="middle" x="782" y="-685" font-family="Obviously Narrow" font-size="40.00" fill="#191724">@/MadlibJson</text>
</g>
<!-- @/Mermaid.main -->
<g id="node5" class="node">
<title>@/Mermaid.main</title>
<path fill="#9ccfd8" stroke="black" d="M2227,-298.5C2227,-298.5 1909,-298.5 1909,-298.5 1903,-298.5 1897,-292.5 1897,-286.5 1897,-286.5 1897,-233.25 1897,-233.25 1897,-227.25 1903,-221.25 1909,-221.25 1909,-221.25 2227,-221.25 2227,-221.25 2233,-221.25 2239,-227.25 2239,-233.25 2239,-233.25 2239,-286.5 2239,-286.5 2239,-292.5 2233,-298.5 2227,-298.5"/>
<text text-anchor="middle" x="2068" y="-242.5" font-family="Obviously Narrow" font-size="40.00" fill="#191724">@/Mermaid.main</text>
</g>
<!-- @/Palettes -->
<g id="node6" class="node">
<title>@/Palettes</title>
<path fill="#9ccfd8" stroke="black" d="M222,-519.75C222,-519.75 12,-519.75 12,-519.75 6,-519.75 0,-513.75 0,-507.75 0,-507.75 0,-454.5 0,-454.5 0,-448.5 6,-442.5 12,-442.5 12,-442.5 222,-442.5 222,-442.5 228,-442.5 234,-448.5 234,-454.5 234,-454.5 234,-507.75 234,-507.75 234,-513.75 228,-519.75 222,-519.75"/>
<text text-anchor="middle" x="117" y="-463.75" font-family="Obviously Narrow" font-size="40.00" fill="#191724">@/Palettes</text>
</g>
<!-- @/RenderDot -->
<g id="node7" class="node">
<title>@/RenderDot</title>
<path fill="#9ccfd8" stroke="black" d="M1381.75,-298.5C1381.75,-298.5 1122.25,-298.5 1122.25,-298.5 1116.25,-298.5 1110.25,-292.5 1110.25,-286.5 1110.25,-286.5 1110.25,-233.25 1110.25,-233.25 1110.25,-227.25 1116.25,-221.25 1122.25,-221.25 1122.25,-221.25 1381.75,-221.25 1381.75,-221.25 1387.75,-221.25 1393.75,-227.25 1393.75,-233.25 1393.75,-233.25 1393.75,-286.5 1393.75,-286.5 1393.75,-292.5 1387.75,-298.5 1381.75,-298.5"/>
<text text-anchor="middle" x="1252" y="-242.5" font-family="Obviously Narrow" font-size="40.00" fill="#191724">@/RenderDot</text>
</g>
<!-- @/RenderMermaid -->
<g id="node8" class="node">
<title>@/RenderMermaid</title>
<path fill="#9ccfd8" stroke="black" d="M2328.25,-519.75C2328.25,-519.75 1975.75,-519.75 1975.75,-519.75 1969.75,-519.75 1963.75,-513.75 1963.75,-507.75 1963.75,-507.75 1963.75,-454.5 1963.75,-454.5 1963.75,-448.5 1969.75,-442.5 1975.75,-442.5 1975.75,-442.5 2328.25,-442.5 2328.25,-442.5 2334.25,-442.5 2340.25,-448.5 2340.25,-454.5 2340.25,-454.5 2340.25,-507.75 2340.25,-507.75 2340.25,-513.75 2334.25,-519.75 2328.25,-519.75"/>
<text text-anchor="middle" x="2152" y="-463.75" font-family="Obviously Narrow" font-size="40.00" fill="#191724">@/RenderMermaid</text>
</g>
<!-- @/Ripgrep -->
<g id="node9" class="node">
<title>@/Ripgrep</title>
<path fill="#9ccfd8" stroke="black" d="M1705.75,-519.75C1705.75,-519.75 1500.25,-519.75 1500.25,-519.75 1494.25,-519.75 1488.25,-513.75 1488.25,-507.75 1488.25,-507.75 1488.25,-454.5 1488.25,-454.5 1488.25,-448.5 1494.25,-442.5 1500.25,-442.5 1500.25,-442.5 1705.75,-442.5 1705.75,-442.5 1711.75,-442.5 1717.75,-448.5 1717.75,-454.5 1717.75,-454.5 1717.75,-507.75 1717.75,-507.75 1717.75,-513.75 1711.75,-519.75 1705.75,-519.75"/>
<text text-anchor="middle" x="1603" y="-463.75" font-family="Obviously Narrow" font-size="40.00" fill="#191724">@/Ripgrep</text>
</g>
<!-- @/String -->
<g id="node10" class="node">
<title>@/String</title>
<path fill="#9ccfd8" stroke="black" d="M2074.75,-741C2074.75,-741 1905.25,-741 1905.25,-741 1899.25,-741 1893.25,-735 1893.25,-729 1893.25,-729 1893.25,-675.75 1893.25,-675.75 1893.25,-669.75 1899.25,-663.75 1905.25,-663.75 1905.25,-663.75 2074.75,-663.75 2074.75,-663.75 2080.75,-663.75 2086.75,-669.75 2086.75,-675.75 2086.75,-675.75 2086.75,-729 2086.75,-729 2086.75,-735 2080.75,-741 2074.75,-741"/>
<text text-anchor="middle" x="1990" y="-685" font-family="Obviously Narrow" font-size="40.00" fill="#191724">@/String</text>
</g>
<!-- @/Theme -->
<g id="node11" class="node">
<title>@/Theme</title>
<path fill="#9ccfd8" stroke="black" d="M491.5,-519.75C491.5,-519.75 302.5,-519.75 302.5,-519.75 296.5,-519.75 290.5,-513.75 290.5,-507.75 290.5,-507.75 290.5,-454.5 290.5,-454.5 290.5,-448.5 296.5,-442.5 302.5,-442.5 302.5,-442.5 491.5,-442.5 491.5,-442.5 497.5,-442.5 503.5,-448.5 503.5,-454.5 503.5,-454.5 503.5,-507.75 503.5,-507.75 503.5,-513.75 497.5,-519.75 491.5,-519.75"/>
<text text-anchor="middle" x="397" y="-463.75" font-family="Obviously Narrow" font-size="40.00" fill="#191724">@/Theme</text>
</g>
<!-- @/Theme/OhNo -->
<g id="node12" class="node">
<title>@/Theme/OhNo</title>
<path fill="#9ccfd8" stroke="black" d="M424.62,-298.5C424.62,-298.5 119.37,-298.5 119.37,-298.5 113.38,-298.5 107.38,-292.5 107.38,-286.5 107.38,-286.5 107.38,-233.25 107.38,-233.25 107.38,-227.25 113.38,-221.25 119.38,-221.25 119.38,-221.25 424.62,-221.25 424.62,-221.25 430.62,-221.25 436.62,-227.25 436.62,-233.25 436.62,-233.25 436.62,-286.5 436.62,-286.5 436.62,-292.5 430.62,-298.5 424.62,-298.5"/>
<text text-anchor="middle" x="272" y="-242.5" font-family="Obviously Narrow" font-size="40.00" fill="#191724">@/Theme/OhNo</text>
</g>
<!-- Dictionary -->
<g id="node13" class="node">
<title>Dictionary</title>
<polygon fill="#31748f" stroke="black" points="1557.38,-731.25 1322.62,-731.25 1322.62,-673.5 1557.38,-673.5 1557.38,-731.25"/>
<text text-anchor="middle" x="1440" y="-694.25" font-family="Compadre" font-size="20.00" fill="#191724">Dictionary</text>
</g>
<!-- Either -->
<g id="node14" class="node">
<title>Either</title>
<polygon fill="#31748f" stroke="black" points="2307.12,-942.75 2148.88,-942.75 2148.88,-885 2307.12,-885 2307.12,-942.75"/>
<text text-anchor="middle" x="2228" y="-905.75" font-family="Compadre" font-size="20.00" fill="#191724">Either</text>
</g>
<!-- File -->
<g id="node15" class="node">
<title>File</title>
<polygon fill="#31748f" stroke="black" points="2656.38,-510 2547.62,-510 2547.62,-452.25 2656.38,-452.25 2656.38,-510"/>
<text text-anchor="middle" x="2602" y="-473" font-family="Compadre" font-size="20.00" fill="#191724">File</text>
</g>
<!-- Function -->
<g id="node16" class="node">
<title>Function</title>
<polygon fill="#31748f" stroke="black" points="1304.12,-731.25 1097.88,-731.25 1097.88,-673.5 1304.12,-673.5 1304.12,-731.25"/>
<text text-anchor="middle" x="1201" y="-694.25" font-family="Compadre" font-size="20.00" fill="#191724">Function</text>
</g>
<!-- IO -->
<g id="node17" class="node">
<title>IO</title>
<polygon fill="#31748f" stroke="black" points="2456.88,-942.75 2387.12,-942.75 2387.12,-885 2456.88,-885 2456.88,-942.75"/>
<text text-anchor="middle" x="2422" y="-905.75" font-family="Compadre" font-size="20.00" fill="#191724">IO</text>
</g>
<!-- Json/Parse -->
<g id="node18" class="node">
<title>Json/Parse</title>
<polygon fill="#31748f" stroke="black" points="902,-942.75 662,-942.75 662,-885 902,-885 902,-942.75"/>
<text text-anchor="middle" x="782" y="-905.75" font-family="Compadre" font-size="20.00" fill="#191724">Json/Parse</text>
</g>
<!-- List -->
<g id="node19" class="node">
<title>List</title>
<polygon fill="#31748f" stroke="black" points="1836.88,-731.25 1731.12,-731.25 1731.12,-673.5 1836.88,-673.5 1836.88,-731.25"/>
<text text-anchor="middle" x="1784" y="-694.25" font-family="Compadre" font-size="20.00" fill="#191724">List</text>
</g>
<!-- Maybe -->
<g id="node20" class="node">
<title>Maybe</title>
<polygon fill="#31748f" stroke="black" points="626.5,-942.75 473.5,-942.75 473.5,-885 626.5,-885 626.5,-942.75"/>
<text text-anchor="middle" x="550" y="-905.75" font-family="Compadre" font-size="20.00" fill="#191724">Maybe</text>
</g>
<!-- Process -->
<g id="node21" class="node">
<title>Process</title>
<polygon fill="#31748f" stroke="black" points="2667.38,-942.75 2474.62,-942.75 2474.62,-885 2667.38,-885 2667.38,-942.75"/>
<text text-anchor="middle" x="2571" y="-905.75" font-family="Compadre" font-size="20.00" fill="#191724">Process</text>
</g>
<!-- Set -->
<g id="node22" class="node">
<title>Set</title>
<polygon fill="#31748f" stroke="black" points="1674.5,-731.25 1575.5,-731.25 1575.5,-673.5 1674.5,-673.5 1674.5,-731.25"/>
<text text-anchor="middle" x="1625" y="-694.25" font-family="Compadre" font-size="20.00" fill="#191724">Set</text>
</g>
<!-- String -->
<g id="node23" class="node">
<title>String</title>
<polygon fill="#31748f" stroke="black" points="1926.12,-942.75 1767.88,-942.75 1767.88,-885 1926.12,-885 1926.12,-942.75"/>
<text text-anchor="middle" x="1847" y="-905.75" font-family="Compadre" font-size="20.00" fill="#191724">String</text>
</g>
<!-- Tuple -->
<g id="node24" class="node">
<title>Tuple</title>
<polygon fill="#31748f" stroke="black" points="2283.12,-731.25 2142.88,-731.25 2142.88,-673.5 2283.12,-673.5 2283.12,-731.25"/>
<text text-anchor="middle" x="2213" y="-694.25" font-family="Compadre" font-size="20.00" fill="#191724">Tuple</text>
</g>
<!-- Wish -->
<g id="node25" class="node">
<title>Wish</title>
<polygon fill="#31748f" stroke="black" points="2810.62,-942.75 2685.38,-942.75 2685.38,-885 2810.62,-885 2810.62,-942.75"/>
<text text-anchor="middle" x="2748" y="-905.75" font-family="Compadre" font-size="20.00" fill="#191724">Wish</text>
</g>
</g>
</svg>
