<?xml version="1.0" encoding="UTF-8" standalone="no"?>
<!DOCTYPE svg PUBLIC "-//W3C//DTD SVG 1.1//EN"
 "http://www.w3.org/Graphics/SVG/1.1/DTD/svg11.dtd">
<!-- Generated by graphviz version 11.0.0 (20240428.1522)
 -->
<!-- Title: MadDeps Pages: 1 -->
<svg width="3587pt" height="3910pt"
 viewBox="0.00 0.00 3587.07 3909.83" xmlns="http://www.w3.org/2000/svg" xmlns:xlink="http://www.w3.org/1999/xlink">
<g id="graph0" class="graph" transform="scale(1 1) rotate(0) translate(4 3905.83)">
<title>MadDeps</title>
<polygon fill="#191724" stroke="none" points="-4,4 -4,-3905.83 3583.07,-3905.83 3583.07,4 -4,4"/>
<!-- @/Dependencies&#45;&gt;@/RenderDot -->
<g id="edge47" class="edge">
<title>@/Dependencies&#45;&gt;@/RenderDot</title>
<path fill="none" stroke="#9ccfd8" stroke-width="2" d="M986.89,-1452.27C1079.64,-1536.82 1299.99,-1737.7 1400.92,-1829.71"/>
<polygon fill="#9ccfd8" stroke="#9ccfd8" stroke-width="2" points="1398.33,-1832.07 1408.07,-1836.22 1403.04,-1826.9 1398.33,-1832.07"/>
</g>
<!-- @/External&#45;&gt;@/Dot.main -->
<g id="edge10" class="edge">
<title>@/External&#45;&gt;@/Dot.main</title>
<path fill="none" stroke="#9ccfd8" stroke-width="2" d="M2687.74,-2161.57C2406.74,-2236.14 1700.77,-2423.49 1401.83,-2502.82"/>
<polygon fill="#9ccfd8" stroke="#9ccfd8" stroke-width="2" points="1401.33,-2499.33 1392.57,-2505.28 1403.13,-2506.09 1401.33,-2499.33"/>
</g>
<!-- @/External&#45;&gt;@/Mermaid.main -->
<g id="edge33" class="edge">
<title>@/External&#45;&gt;@/Mermaid.main</title>
<path fill="none" stroke="#9ccfd8" stroke-width="2" d="M2782,-2091.17C2649.32,-1876.88 2009.23,-843.1 1860.61,-603.08"/>
<polygon fill="#9ccfd8" stroke="#9ccfd8" stroke-width="2" points="1863.75,-601.49 1855.51,-594.83 1857.79,-605.17 1863.75,-601.49"/>
</g>
<!-- @/External&#45;&gt;@/Ripgrep -->
<g id="edge61" class="edge">
<title>@/External&#45;&gt;@/Ripgrep</title>
<path fill="none" stroke="#9ccfd8" stroke-width="2" d="M2781.94,-2169.24C2696.4,-2307.4 2408.34,-2772.62 2313.3,-2926.12"/>
<polygon fill="#9ccfd8" stroke="#9ccfd8" stroke-width="2" points="2310.42,-2924.13 2308.13,-2934.47 2316.37,-2927.81 2310.42,-2924.13"/>
</g>
<!-- @/MadlibJson&#45;&gt;@/Dependencies -->
<g id="edge1" class="edge">
<title>@/MadlibJson&#45;&gt;@/Dependencies</title>
<path fill="none" stroke="#9ccfd8" stroke-width="2" d="M2568.49,-2563.01C2317.66,-2385.48 1281.34,-1652 1009.78,-1459.81"/>
<polygon fill="#9ccfd8" stroke="#9ccfd8" stroke-width="2" points="1011.97,-1457.07 1001.79,-1454.15 1007.93,-1462.78 1011.97,-1457.07"/>
</g>
<!-- @/MadlibJson&#45;&gt;@/Dot.main -->
<g id="edge11" class="edge">
<title>@/MadlibJson&#45;&gt;@/Dot.main</title>
<path fill="none" stroke="#9ccfd8" stroke-width="2" d="M2477.02,-2595.12C2212.82,-2582.94 1659.83,-2557.43 1402.23,-2545.55"/>
<polygon fill="#9ccfd8" stroke="#9ccfd8" stroke-width="2" points="1402.61,-2542.07 1392.46,-2545.1 1402.29,-2549.06 1402.61,-2542.07"/>
</g>
<!-- @/MadlibJson&#45;&gt;@/Mermaid.main -->
<g id="edge34" class="edge">
<title>@/MadlibJson&#45;&gt;@/Mermaid.main</title>
<path fill="none" stroke="#9ccfd8" stroke-width="2" d="M2608.25,-2562.77C2509.8,-2308.64 1961.21,-892.58 1849.58,-604.41"/>
<polygon fill="#9ccfd8" stroke="#9ccfd8" stroke-width="2" points="1852.86,-603.2 1845.98,-595.14 1846.33,-605.73 1852.86,-603.2"/>
</g>
<!-- @/Palettes&#45;&gt;@/Theme/OhNo -->
<g id="edge73" class="edge">
<title>@/Palettes&#45;&gt;@/Theme/OhNo</title>
<path fill="none" stroke="#9ccfd8" stroke-width="2" d="M2007.02,-3824.26C1974.73,-3710.78 1880.72,-3380.36 1844.35,-3252.53"/>
<polygon fill="#9ccfd8" stroke="#9ccfd8" stroke-width="2" points="1847.74,-3251.67 1841.64,-3243.01 1841.01,-3253.58 1847.74,-3251.67"/>
</g>
<!-- @/RenderDot&#45;&gt;@/Dot.main -->
<g id="edge12" class="edge">
<title>@/RenderDot&#45;&gt;@/Dot.main</title>
<path fill="none" stroke="#9ccfd8" stroke-width="2" d="M1441.96,-1916.16C1409.67,-2029.63 1315.66,-2360.06 1279.29,-2487.88"/>
<polygon fill="#9ccfd8" stroke="#9ccfd8" stroke-width="2" points="1275.95,-2486.83 1276.58,-2497.41 1282.68,-2488.75 1275.95,-2486.83"/>
</g>
<!-- @/RenderMermaid&#45;&gt;@/Mermaid.main -->
<g id="edge35" class="edge">
<title>@/RenderMermaid&#45;&gt;@/Mermaid.main</title>
<path fill="none" stroke="#9ccfd8" stroke-width="2" d="M1028.06,-627.51C1205.53,-611.07 1469.62,-586.6 1645.62,-570.29"/>
<polygon fill="#9ccfd8" stroke="#9ccfd8" stroke-width="2" points="1645.75,-573.79 1655.39,-569.38 1645.11,-566.82 1645.75,-573.79"/>
</g>
<!-- @/Ripgrep&#45;&gt;@/Dot.main -->
<g id="edge13" class="edge">
<title>@/Ripgrep&#45;&gt;@/Dot.main</title>
<path fill="none" stroke="#9ccfd8" stroke-width="2" d="M2191.36,-2936.6C2001.87,-2855.34 1566.77,-2668.75 1367.61,-2583.35"/>
<polygon fill="#9ccfd8" stroke="#9ccfd8" stroke-width="2" points="1369.06,-2580.16 1358.49,-2579.44 1366.3,-2586.6 1369.06,-2580.16"/>
</g>
<!-- @/Ripgrep&#45;&gt;@/Mermaid.main -->
<g id="edge36" class="edge">
<title>@/Ripgrep&#45;&gt;@/Mermaid.main</title>
<path fill="none" stroke="#9ccfd8" stroke-width="2" d="M2275.29,-2936.68C2222.5,-2654.27 1899.38,-925.73 1839.34,-604.56"/>
<polygon fill="#9ccfd8" stroke="#9ccfd8" stroke-width="2" points="1842.83,-604.18 1837.55,-595 1835.95,-605.47 1842.83,-604.18"/>
</g>
<!-- @/String&#45;&gt;@/RenderDot -->
<g id="edge48" class="edge">
<title>@/String&#45;&gt;@/RenderDot</title>
<path fill="none" stroke="#9ccfd8" stroke-width="2" d="M1165.67,-1300.11C1219.15,-1407.5 1368.5,-1707.43 1428.06,-1827.04"/>
<polygon fill="#9ccfd8" stroke="#9ccfd8" stroke-width="2" points="1424.76,-1828.28 1432.35,-1835.67 1431.03,-1825.16 1424.76,-1828.28"/>
</g>
<!-- @/String&#45;&gt;@/RenderMermaid -->
<g id="edge54" class="edge">
<title>@/String&#45;&gt;@/RenderMermaid</title>
<path fill="none" stroke="#9ccfd8" stroke-width="2" d="M1126.83,-1222.09C1073.35,-1114.7 924,-814.77 864.45,-695.16"/>
<polygon fill="#9ccfd8" stroke="#9ccfd8" stroke-width="2" points="867.74,-693.93 860.15,-686.54 861.48,-697.05 867.74,-693.93"/>
</g>
<!-- @/String&#45;&gt;@/Theme -->
<g id="edge69" class="edge">
<title>@/String&#45;&gt;@/Theme</title>
<path fill="none" stroke="#9ccfd8" stroke-width="2" d="M1243.45,-1233.45C1252.37,-1230.91 1261.47,-1228.32 1270.55,-1225.74"/>
<polygon fill="#9ccfd8" stroke="#9ccfd8" stroke-width="2" points="1271.33,-1229.15 1279.99,-1223.05 1269.41,-1222.42 1271.33,-1229.15"/>
</g>
<!-- @/String&#45;&gt;@/Theme/OhNo -->
<g id="edge74" class="edge">
<title>@/String&#45;&gt;@/Theme/OhNo</title>
<path fill="none" stroke="#9ccfd8" stroke-width="2" d="M1159.9,-1299.86C1246.07,-1544.43 1714,-2872.66 1811.82,-3150.31"/>
<polygon fill="#9ccfd8" stroke="#9ccfd8" stroke-width="2" points="1808.43,-3151.24 1815.06,-3159.5 1815.03,-3148.91 1808.43,-3151.24"/>
</g>
<!-- @/Theme&#45;&gt;@/Dot.main -->
<g id="edge14" class="edge">
<title>@/Theme&#45;&gt;@/Dot.main</title>
<path fill="none" stroke="#9ccfd8" stroke-width="2" d="M1385.93,-1230.75C1368.15,-1422.62 1289.79,-2268.24 1269.5,-2487.26"/>
<polygon fill="#9ccfd8" stroke="#9ccfd8" stroke-width="2" points="1266.02,-2486.89 1268.58,-2497.17 1272.99,-2487.53 1266.02,-2486.89"/>
</g>
<!-- @/Theme&#45;&gt;@/RenderDot -->
<g id="edge49" class="edge">
<title>@/Theme&#45;&gt;@/RenderDot</title>
<path fill="none" stroke="#9ccfd8" stroke-width="2" d="M1393.15,-1230.94C1403.97,-1347.69 1436.06,-1694.03 1448.26,-1825.67"/>
<polygon fill="#9ccfd8" stroke="#9ccfd8" stroke-width="2" points="1444.76,-1825.8 1449.17,-1835.44 1451.73,-1825.15 1444.76,-1825.8"/>
</g>
<!-- @/Theme&#45;&gt;@/Theme/OhNo -->
<g id="edge75" class="edge">
<title>@/Theme&#45;&gt;@/Theme/OhNo</title>
<path fill="none" stroke="#9ccfd8" stroke-width="2" d="M1398.03,-1230.67C1452.82,-1480.76 1755.95,-2864.36 1818.47,-3149.72"/>
<polygon fill="#9ccfd8" stroke="#9ccfd8" stroke-width="2" points="1814.97,-3150.11 1820.53,-3159.13 1821.81,-3148.61 1814.97,-3150.11"/>
</g>
<!-- @/Theme/OhNo&#45;&gt;@/Dot.main -->
<g id="edge15" class="edge">
<title>@/Theme/OhNo&#45;&gt;@/Dot.main</title>
<path fill="none" stroke="#9ccfd8" stroke-width="2" d="M1796.51,-3162.27C1698.96,-3047.99 1413.61,-2713.68 1306.21,-2587.86"/>
<polygon fill="#9ccfd8" stroke="#9ccfd8" stroke-width="2" points="1309,-2585.74 1299.85,-2580.4 1303.68,-2590.28 1309,-2585.74"/>
</g>
<!-- Dictionary&#45;&gt;@/Dependencies -->
<g id="edge2" class="edge">
<title>Dictionary&#45;&gt;@/Dependencies</title>
<path fill="none" stroke="#31748f" stroke-width="2" stroke-dasharray="5,2" d="M1538.17,-1244.59C1420.77,-1277.99 1228.02,-1332.83 1094.11,-1370.94"/>
<polygon fill="#31748f" stroke="#31748f" stroke-width="2" points="1093.32,-1367.52 1084.66,-1373.63 1095.23,-1374.25 1093.32,-1367.52"/>
</g>
<!-- Dictionary&#45;&gt;@/Dot.main -->
<g id="edge16" class="edge">
<title>Dictionary&#45;&gt;@/Dot.main</title>
<path fill="none" stroke="#31748f" stroke-width="2" stroke-dasharray="5,2" d="M1633.09,-1244.42C1584.95,-1413.6 1341.79,-2268.2 1279.33,-2487.74"/>
<polygon fill="#31748f" stroke="#31748f" stroke-width="2" points="1276.01,-2486.61 1276.64,-2497.18 1282.75,-2488.52 1276.01,-2486.61"/>
</g>
<!-- Dictionary&#45;&gt;@/Mermaid.main -->
<g id="edge37" class="edge">
<title>Dictionary&#45;&gt;@/Mermaid.main</title>
<path fill="none" stroke="#31748f" stroke-width="2" stroke-dasharray="5,2" d="M1649.73,-1185.92C1679.05,-1082.88 1777.65,-736.32 1815.13,-604.61"/>
<polygon fill="#31748f" stroke="#31748f" stroke-width="2" points="1818.46,-605.67 1817.83,-595.09 1811.73,-603.75 1818.46,-605.67"/>
</g>
<!-- Dictionary&#45;&gt;@/RenderDot -->
<g id="edge50" class="edge">
<title>Dictionary&#45;&gt;@/RenderDot</title>
<path fill="none" stroke="#31748f" stroke-width="2" stroke-dasharray="5,2" d="M1633.06,-1244.52C1603.74,-1347.56 1505.13,-1694.12 1467.66,-1825.83"/>
<polygon fill="#31748f" stroke="#31748f" stroke-width="2" points="1464.32,-1824.77 1464.95,-1835.35 1471.05,-1826.69 1464.32,-1824.77"/>
</g>
<!-- Dictionary&#45;&gt;@/RenderMermaid -->
<g id="edge55" class="edge">
<title>Dictionary&#45;&gt;@/RenderMermaid</title>
<path fill="none" stroke="#31748f" stroke-width="2" stroke-dasharray="5,2" d="M1600.24,-1185.96C1469.74,-1093.16 1064.35,-804.9 904.86,-691.49"/>
<polygon fill="#31748f" stroke="#31748f" stroke-width="2" points="906.91,-688.66 896.73,-685.71 902.85,-694.36 906.91,-688.66"/>
</g>
<!-- Dictionary&#45;&gt;@/Ripgrep -->
<g id="edge62" class="edge">
<title>Dictionary&#45;&gt;@/Ripgrep</title>
<path fill="none" stroke="#31748f" stroke-width="2" stroke-dasharray="5,2" d="M1651.99,-1244.31C1726.16,-1447.96 2167.54,-2659.83 2263.98,-2924.63"/>
<polygon fill="#31748f" stroke="#31748f" stroke-width="2" points="2260.69,-2925.82 2267.4,-2934.02 2267.27,-2923.43 2260.69,-2925.82"/>
</g>
<!-- Dictionary&#45;&gt;@/Theme -->
<g id="edge70" class="edge">
<title>Dictionary&#45;&gt;@/Theme</title>
<path fill="none" stroke="#31748f" stroke-width="2" stroke-dasharray="5,2" d="M1523.57,-1204.3C1518.75,-1203.86 1513.9,-1203.41 1509.07,-1202.96"/>
<polygon fill="#31748f" stroke="#31748f" stroke-width="2" points="1509.62,-1199.5 1499.34,-1202.06 1508.97,-1206.47 1509.62,-1199.5"/>
</g>
<!-- Either&#45;&gt;@/Dependencies -->
<g id="edge3" class="edge">
<title>Either&#45;&gt;@/Dependencies</title>
<path fill="none" stroke="#31748f" stroke-width="2" stroke-dasharray="5,2" d="M1319.96,-3218.7C1276.43,-3009.47 1011.94,-1738.19 955.14,-1465.15"/>
<polygon fill="#31748f" stroke="#31748f" stroke-width="2" points="958.6,-1464.59 953.14,-1455.51 951.75,-1466.01 958.6,-1464.59"/>
</g>
<!-- Either&#45;&gt;@/Dot.main -->
<g id="edge17" class="edge">
<title>Either&#45;&gt;@/Dot.main</title>
<path fill="none" stroke="#31748f" stroke-width="2" stroke-dasharray="5,2" d="M1323.51,-3218.78C1314.14,-3110.54 1281.22,-2730.27 1269.16,-2590.91"/>
<polygon fill="#31748f" stroke="#31748f" stroke-width="2" points="1272.67,-2590.86 1268.32,-2581.2 1265.7,-2591.47 1272.67,-2590.86"/>
</g>
<!-- Either&#45;&gt;@/MadlibJson -->
<g id="edge30" class="edge">
<title>Either&#45;&gt;@/MadlibJson</title>
<path fill="none" stroke="#31748f" stroke-width="2" stroke-dasharray="5,2" d="M1384.72,-3218.66C1591.18,-3115.85 2284.94,-2770.4 2533.69,-2646.54"/>
<polygon fill="#31748f" stroke="#31748f" stroke-width="2" points="2535.1,-2649.75 2542.49,-2642.16 2531.98,-2643.48 2535.1,-2649.75"/>
</g>
<!-- Either&#45;&gt;@/Mermaid.main -->
<g id="edge38" class="edge">
<title>Either&#45;&gt;@/Mermaid.main</title>
<path fill="none" stroke="#31748f" stroke-width="2" stroke-dasharray="5,2" d="M1331.51,-3218.54C1381.33,-2952.04 1755.15,-952.26 1820.13,-604.66"/>
<polygon fill="#31748f" stroke="#31748f" stroke-width="2" points="1823.53,-605.53 1821.93,-595.05 1816.65,-604.24 1823.53,-605.53"/>
</g>
<!-- File&#45;&gt;@/Dot.main -->
<g id="edge18" class="edge">
<title>File&#45;&gt;@/Dot.main</title>
<path fill="none" stroke="#31748f" stroke-width="2" stroke-dasharray="5,2" d="M861.13,-3080.38C929.65,-2988.49 1142.14,-2703.54 1228.07,-2588.31"/>
<polygon fill="#31748f" stroke="#31748f" stroke-width="2" points="1230.76,-2590.56 1233.93,-2580.46 1225.15,-2586.38 1230.76,-2590.56"/>
</g>
<!-- File&#45;&gt;@/Mermaid.main -->
<g id="edge39" class="edge">
<title>File&#45;&gt;@/Mermaid.main</title>
<path fill="none" stroke="#31748f" stroke-width="2" stroke-dasharray="5,2" d="M850.75,-3080.29C950.5,-2822.83 1680.4,-938.75 1810.07,-604.01"/>
<polygon fill="#31748f" stroke="#31748f" stroke-width="2" points="1813.16,-605.73 1813.51,-595.14 1806.63,-603.2 1813.16,-605.73"/>
</g>
<!-- Function&#45;&gt;@/Dependencies -->
<g id="edge4" class="edge">
<title>Function&#45;&gt;@/Dependencies</title>
<path fill="none" stroke="#31748f" stroke-width="2" stroke-dasharray="5,2" d="M446.39,-2775.53C510.23,-2600.92 842.97,-1690.93 925.74,-1464.56"/>
<polygon fill="#31748f" stroke="#31748f" stroke-width="2" points="928.98,-1465.9 929.13,-1455.31 922.41,-1463.5 928.98,-1465.9"/>
</g>
<!-- Function&#45;&gt;@/Dot.main -->
<g id="edge19" class="edge">
<title>Function&#45;&gt;@/Dot.main</title>
<path fill="none" stroke="#31748f" stroke-width="2" stroke-dasharray="5,2" d="M527.24,-2775.3C673.55,-2728.46 960.93,-2636.45 1130.51,-2582.16"/>
<polygon fill="#31748f" stroke="#31748f" stroke-width="2" points="1131.43,-2585.55 1139.89,-2579.16 1129.29,-2578.88 1131.43,-2585.55"/>
</g>
<!-- Function&#45;&gt;@/Mermaid.main -->
<g id="edge40" class="edge">
<title>Function&#45;&gt;@/Mermaid.main</title>
<path fill="none" stroke="#31748f" stroke-width="2" stroke-dasharray="5,2" d="M453.9,-2775.3C601.82,-2536.39 1609.55,-908.85 1799.06,-602.79"/>
<polygon fill="#31748f" stroke="#31748f" stroke-width="2" points="1801.82,-604.97 1804.11,-594.63 1795.87,-601.29 1801.82,-604.97"/>
</g>
<!-- Function&#45;&gt;@/Ripgrep -->
<g id="edge63" class="edge">
<title>Function&#45;&gt;@/Ripgrep</title>
<path fill="none" stroke="#31748f" stroke-width="2" stroke-dasharray="5,2" d="M539.35,-2814.18C855.62,-2843.49 1808.25,-2931.76 2154.78,-2963.87"/>
<polygon fill="#31748f" stroke="#31748f" stroke-width="2" points="2154.31,-2967.35 2164.59,-2964.78 2154.95,-2960.38 2154.31,-2967.35"/>
</g>
<!-- Function&#45;&gt;@/String -->
<g id="edge67" class="edge">
<title>Function&#45;&gt;@/String</title>
<path fill="none" stroke="#31748f" stroke-width="2" stroke-dasharray="5,2" d="M449.17,-2775.47C535.38,-2588.17 1011.88,-1553.02 1123.05,-1311.49"/>
<polygon fill="#31748f" stroke="#31748f" stroke-width="2" points="1126.1,-1313.25 1127.1,-1302.7 1119.74,-1310.32 1126.1,-1313.25"/>
</g>
<!-- IO&#45;&gt;@/Dependencies -->
<g id="edge5" class="edge">
<title>IO&#45;&gt;@/Dependencies</title>
<path fill="none" stroke="#31748f" stroke-width="2" stroke-dasharray="5,2" d="M193.07,-2345.19C303.13,-2208.72 766.22,-1634.48 904.96,-1462.44"/>
<polygon fill="#31748f" stroke="#31748f" stroke-width="2" points="907.6,-1464.75 911.15,-1454.77 902.15,-1460.35 907.6,-1464.75"/>
</g>
<!-- IO&#45;&gt;@/Dot.main -->
<g id="edge20" class="edge">
<title>IO&#45;&gt;@/Dot.main</title>
<path fill="none" stroke="#31748f" stroke-width="2" stroke-dasharray="5,2" d="M204.65,-2379.77C345.62,-2400.98 873.96,-2480.44 1127.4,-2518.56"/>
<polygon fill="#31748f" stroke="#31748f" stroke-width="2" points="1126.59,-2521.98 1137,-2520.01 1127.63,-2515.06 1126.59,-2521.98"/>
</g>
<!-- IO&#45;&gt;@/External -->
<g id="edge26" class="edge">
<title>IO&#45;&gt;@/External</title>
<path fill="none" stroke="#31748f" stroke-width="2" stroke-dasharray="5,2" d="M204.73,-2371.21C472.32,-2346.41 2184.85,-2187.73 2675.15,-2142.29"/>
<polygon fill="#31748f" stroke="#31748f" stroke-width="2" points="2675.26,-2145.8 2684.89,-2141.39 2674.61,-2138.83 2675.26,-2145.8"/>
</g>
<!-- IO&#45;&gt;@/Mermaid.main -->
<g id="edge41" class="edge">
<title>IO&#45;&gt;@/Mermaid.main</title>
<path fill="none" stroke="#31748f" stroke-width="2" stroke-dasharray="5,2" d="M196.21,-2345.13C387.27,-2135.54 1544.09,-866.58 1785.58,-601.67"/>
<polygon fill="#31748f" stroke="#31748f" stroke-width="2" points="1787.92,-604.3 1792.07,-594.55 1782.75,-599.58 1787.92,-604.3"/>
</g>
<!-- IO&#45;&gt;@/RenderMermaid -->
<g id="edge56" class="edge">
<title>IO&#45;&gt;@/RenderMermaid</title>
<path fill="none" stroke="#31748f" stroke-width="2" stroke-dasharray="5,2" d="M180.8,-2345.19C259.05,-2143.2 718.49,-957.26 819.73,-695.92"/>
<polygon fill="#31748f" stroke="#31748f" stroke-width="2" points="822.97,-697.25 823.32,-686.66 816.44,-694.72 822.97,-697.25"/>
</g>
<!-- Json/Parse&#45;&gt;@/MadlibJson -->
<g id="edge31" class="edge">
<title>Json/Parse&#45;&gt;@/MadlibJson</title>
<path fill="none" stroke="#31748f" stroke-width="2" stroke-dasharray="5,2" d="M3161.18,-2934.85C3059.36,-2871.81 2819.11,-2723.05 2697.16,-2647.54"/>
<polygon fill="#31748f" stroke="#31748f" stroke-width="2" points="2699.37,-2644.79 2689.02,-2642.51 2695.68,-2650.75 2699.37,-2644.79"/>
</g>
<!-- List&#45;&gt;@/Dependencies -->
<g id="edge6" class="edge">
<title>List&#45;&gt;@/Dependencies</title>
<path fill="none" stroke="#31748f" stroke-width="2" stroke-dasharray="5,2" d="M1814.51,-1332.9C1684.31,-1344.97 1345.08,-1376.4 1130.7,-1396.27"/>
<polygon fill="#31748f" stroke="#31748f" stroke-width="2" points="1130.69,-1392.75 1121.06,-1397.16 1131.34,-1399.72 1130.69,-1392.75"/>
</g>
<!-- List&#45;&gt;@/Dot.main -->
<g id="edge21" class="edge">
<title>List&#45;&gt;@/Dot.main</title>
<path fill="none" stroke="#31748f" stroke-width="2" stroke-dasharray="5,2" d="M1853.2,-1357.31C1773.61,-1517.15 1392.11,-2283.3 1289.92,-2488.54"/>
<polygon fill="#31748f" stroke="#31748f" stroke-width="2" points="1286.82,-2486.91 1285.5,-2497.42 1293.09,-2490.03 1286.82,-2486.91"/>
</g>
<!-- List&#45;&gt;@/Mermaid.main -->
<g id="edge42" class="edge">
<title>List&#45;&gt;@/Mermaid.main</title>
<path fill="none" stroke="#31748f" stroke-width="2" stroke-dasharray="5,2" d="M1866.39,-1299.01C1860.71,-1183.41 1839.62,-754.07 1832.28,-604.78"/>
<polygon fill="#31748f" stroke="#31748f" stroke-width="2" points="1835.79,-604.88 1831.8,-595.07 1828.8,-605.23 1835.79,-604.88"/>
</g>
<!-- List&#45;&gt;@/RenderDot -->
<g id="edge51" class="edge">
<title>List&#45;&gt;@/RenderDot</title>
<path fill="none" stroke="#31748f" stroke-width="2" stroke-dasharray="5,2" d="M1845.81,-1357.11C1778.47,-1446.27 1574.72,-1716.09 1490.29,-1827.88"/>
<polygon fill="#31748f" stroke="#31748f" stroke-width="2" points="1487.56,-1825.69 1484.33,-1835.78 1493.15,-1829.91 1487.56,-1825.69"/>
</g>
<!-- List&#45;&gt;@/RenderMermaid -->
<g id="edge57" class="edge">
<title>List&#45;&gt;@/RenderMermaid</title>
<path fill="none" stroke="#31748f" stroke-width="2" stroke-dasharray="5,2" d="M1823.63,-1298.62C1662.52,-1191.62 1105.8,-821.87 909.03,-691.19"/>
<polygon fill="#31748f" stroke="#31748f" stroke-width="2" points="911.05,-688.33 900.78,-685.71 907.17,-694.16 911.05,-688.33"/>
</g>
<!-- List&#45;&gt;@/Ripgrep -->
<g id="edge64" class="edge">
<title>List&#45;&gt;@/Ripgrep</title>
<path fill="none" stroke="#31748f" stroke-width="2" stroke-dasharray="5,2" d="M1875.19,-1357.26C1924.44,-1552.91 2205.6,-2669.88 2269.62,-2924.19"/>
<polygon fill="#31748f" stroke="#31748f" stroke-width="2" points="2266.18,-2924.89 2272.02,-2933.73 2272.97,-2923.18 2266.18,-2924.89"/>
</g>
<!-- Maybe&#45;&gt;@/Dependencies -->
<g id="edge7" class="edge">
<title>Maybe&#45;&gt;@/Dependencies</title>
<path fill="none" stroke="#31748f" stroke-width="2" stroke-dasharray="5,2" d="M131.45,-1847.86C278.75,-1769.16 683.23,-1553.06 859.94,-1458.66"/>
<polygon fill="#31748f" stroke="#31748f" stroke-width="2" points="861.4,-1461.84 868.57,-1454.05 858.1,-1455.67 861.4,-1461.84"/>
</g>
<!-- Maybe&#45;&gt;@/Dot.main -->
<g id="edge22" class="edge">
<title>Maybe&#45;&gt;@/Dot.main</title>
<path fill="none" stroke="#31748f" stroke-width="2" stroke-dasharray="5,2" d="M129.09,-1906.51C317.02,-2011.22 956.25,-2367.37 1183.6,-2494.04"/>
<polygon fill="#31748f" stroke="#31748f" stroke-width="2" points="1181.68,-2496.97 1192.12,-2498.78 1185.09,-2490.86 1181.68,-2496.97"/>
</g>
<!-- Maybe&#45;&gt;@/MadlibJson -->
<g id="edge32" class="edge">
<title>Maybe&#45;&gt;@/MadlibJson</title>
<path fill="none" stroke="#31748f" stroke-width="2" stroke-dasharray="5,2" d="M153.42,-1899.1C508.7,-2000.19 1994.04,-2422.8 2473.49,-2559.22"/>
<polygon fill="#31748f" stroke="#31748f" stroke-width="2" points="2472.52,-2562.58 2483.09,-2561.95 2474.43,-2555.85 2472.52,-2562.58"/>
</g>
<!-- Maybe&#45;&gt;@/Mermaid.main -->
<g id="edge43" class="edge">
<title>Maybe&#45;&gt;@/Mermaid.main</title>
<path fill="none" stroke="#31748f" stroke-width="2" stroke-dasharray="5,2" d="M115.16,-1848.02C340.87,-1677.57 1487.83,-811.43 1767.96,-599.88"/>
<polygon fill="#31748f" stroke="#31748f" stroke-width="2" points="1769.66,-602.99 1775.53,-594.17 1765.44,-597.4 1769.66,-602.99"/>
</g>
<!-- Maybe&#45;&gt;@/Theme -->
<g id="edge71" class="edge">
<title>Maybe&#45;&gt;@/Theme</title>
<path fill="none" stroke="#31748f" stroke-width="2" stroke-dasharray="5,2" d="M132.5,-1847.99C338.37,-1740.53 1054.21,-1366.9 1303.3,-1236.89"/>
<polygon fill="#31748f" stroke="#31748f" stroke-width="2" points="1304.87,-1240.02 1312.12,-1232.29 1301.63,-1233.81 1304.87,-1240.02"/>
</g>
<!-- Maybe&#45;&gt;@/Theme/OhNo -->
<g id="edge76" class="edge">
<title>Maybe&#45;&gt;@/Theme/OhNo</title>
<path fill="none" stroke="#31748f" stroke-width="2" stroke-dasharray="5,2" d="M115.16,-1906.41C340.87,-2076.86 1487.83,-2943 1767.96,-3154.55"/>
<polygon fill="#31748f" stroke="#31748f" stroke-width="2" points="1765.44,-3157.03 1775.53,-3160.27 1769.66,-3151.45 1765.44,-3157.03"/>
</g>
<!-- Process&#45;&gt;@/External -->
<g id="edge27" class="edge">
<title>Process&#45;&gt;@/External</title>
<path fill="none" stroke="#31748f" stroke-width="2" stroke-dasharray="5,2" d="M3386.12,-2238.57C3268.34,-2216.55 3068.74,-2179.24 2937.17,-2154.65"/>
<polygon fill="#31748f" stroke="#31748f" stroke-width="2" points="2938.11,-2151.26 2927.63,-2152.87 2936.82,-2158.14 2938.11,-2151.26"/>
</g>
<!-- Set&#45;&gt;@/Dependencies -->
<g id="edge8" class="edge">
<title>Set&#45;&gt;@/Dependencies</title>
<path fill="none" stroke="#31748f" stroke-width="2" stroke-dasharray="5,2" d="M1988.38,-1510.27C1838.88,-1496.42 1388.69,-1454.7 1130.94,-1430.82"/>
<polygon fill="#31748f" stroke="#31748f" stroke-width="2" points="1131.35,-1427.34 1121.07,-1429.9 1130.71,-1434.31 1131.35,-1427.34"/>
</g>
<!-- Set&#45;&gt;@/Dot.main -->
<g id="edge23" class="edge">
<title>Set&#45;&gt;@/Dot.main</title>
<path fill="none" stroke="#31748f" stroke-width="2" stroke-dasharray="5,2" d="M2016.11,-1544.17C1908.37,-1686.83 1438.07,-2309.61 1301.81,-2490.05"/>
<polygon fill="#31748f" stroke="#31748f" stroke-width="2" points="1299.12,-2487.8 1295.89,-2497.89 1304.71,-2492.02 1299.12,-2487.8"/>
</g>
<!-- Set&#45;&gt;@/Mermaid.main -->
<g id="edge44" class="edge">
<title>Set&#45;&gt;@/Mermaid.main</title>
<path fill="none" stroke="#31748f" stroke-width="2" stroke-dasharray="5,2" d="M2031.86,-1485.58C2002.4,-1349.68 1878.92,-780.06 1840.92,-604.78"/>
<polygon fill="#31748f" stroke="#31748f" stroke-width="2" points="1844.36,-604.12 1838.82,-595.09 1837.52,-605.6 1844.36,-604.12"/>
</g>
<!-- Set&#45;&gt;@/RenderDot -->
<g id="edge52" class="edge">
<title>Set&#45;&gt;@/RenderDot</title>
<path fill="none" stroke="#31748f" stroke-width="2" stroke-dasharray="5,2" d="M1990.83,-1544.23C1889.01,-1607.28 1648.75,-1756.04 1526.8,-1831.54"/>
<polygon fill="#31748f" stroke="#31748f" stroke-width="2" points="1525.33,-1828.34 1518.67,-1836.58 1529.01,-1834.29 1525.33,-1828.34"/>
</g>
<!-- Set&#45;&gt;@/RenderMermaid -->
<g id="edge58" class="edge">
<title>Set&#45;&gt;@/RenderMermaid</title>
<path fill="none" stroke="#31748f" stroke-width="2" stroke-dasharray="5,2" d="M1997.99,-1485.7C1822.13,-1358.08 1120.03,-848.59 903.43,-691.41"/>
<polygon fill="#31748f" stroke="#31748f" stroke-width="2" points="905.78,-688.79 895.63,-685.75 901.67,-694.45 905.78,-688.79"/>
</g>
<!-- Set&#45;&gt;@/Ripgrep -->
<g id="edge65" class="edge">
<title>Set&#45;&gt;@/Ripgrep</title>
<path fill="none" stroke="#31748f" stroke-width="2" stroke-dasharray="5,2" d="M2043.1,-1544.07C2073.3,-1724.63 2234.72,-2689.56 2273.98,-2924.24"/>
<polygon fill="#31748f" stroke="#31748f" stroke-width="2" points="2270.47,-2924.49 2275.57,-2933.77 2277.37,-2923.33 2270.47,-2924.49"/>
</g>
<!-- String&#45;&gt;@/Dependencies -->
<g id="edge9" class="edge">
<title>String&#45;&gt;@/Dependencies</title>
<path fill="none" stroke="#31748f" stroke-width="2" stroke-dasharray="5,2" d="M2049.99,-1728.1C1854.41,-1672.45 1347.84,-1528.32 1093.99,-1456.09"/>
<polygon fill="#31748f" stroke="#31748f" stroke-width="2" points="1095.22,-1452.8 1084.64,-1453.43 1093.3,-1459.54 1095.22,-1452.8"/>
</g>
<!-- String&#45;&gt;@/Dot.main -->
<g id="edge24" class="edge">
<title>String&#45;&gt;@/Dot.main</title>
<path fill="none" stroke="#31748f" stroke-width="2" stroke-dasharray="5,2" d="M2097.52,-1779.98C1967.43,-1898.57 1478.31,-2344.46 1316.8,-2491.7"/>
<polygon fill="#31748f" stroke="#31748f" stroke-width="2" points="1314.81,-2488.78 1309.78,-2498.1 1319.53,-2493.95 1314.81,-2488.78"/>
</g>
<!-- String&#45;&gt;@/External -->
<g id="edge28" class="edge">
<title>String&#45;&gt;@/External</title>
<path fill="none" stroke="#31748f" stroke-width="2" stroke-dasharray="5,2" d="M2181.83,-1780.04C2299.3,-1845.92 2584.93,-2006.1 2725.41,-2084.88"/>
<polygon fill="#31748f" stroke="#31748f" stroke-width="2" points="2723.42,-2087.78 2733.86,-2089.62 2726.85,-2081.67 2723.42,-2087.78"/>
</g>
<!-- String&#45;&gt;@/Mermaid.main -->
<g id="edge45" class="edge">
<title>String&#45;&gt;@/Mermaid.main</title>
<path fill="none" stroke="#31748f" stroke-width="2" stroke-dasharray="5,2" d="M2122.25,-1721.44C2082.6,-1563.07 1893.81,-809.08 1842.59,-604.52"/>
<polygon fill="#31748f" stroke="#31748f" stroke-width="2" points="1846.05,-603.92 1840.22,-595.07 1839.26,-605.62 1846.05,-603.92"/>
</g>
<!-- String&#45;&gt;@/RenderDot -->
<g id="edge53" class="edge">
<title>String&#45;&gt;@/RenderDot</title>
<path fill="none" stroke="#31748f" stroke-width="2" stroke-dasharray="5,2" d="M2049.99,-1765.63C1941.68,-1785.87 1745.62,-1822.52 1607.82,-1848.28"/>
<polygon fill="#31748f" stroke="#31748f" stroke-width="2" points="1607.25,-1844.83 1598.06,-1850.11 1608.54,-1851.71 1607.25,-1844.83"/>
</g>
<!-- String&#45;&gt;@/RenderMermaid -->
<g id="edge59" class="edge">
<title>String&#45;&gt;@/RenderMermaid</title>
<path fill="none" stroke="#31748f" stroke-width="2" stroke-dasharray="5,2" d="M2095.41,-1721.45C1919.3,-1570.51 1114.02,-880.31 894.74,-692.37"/>
<polygon fill="#31748f" stroke="#31748f" stroke-width="2" points="897.22,-689.88 887.35,-686.03 892.66,-695.19 897.22,-689.88"/>
</g>
<!-- String&#45;&gt;@/Ripgrep -->
<g id="edge66" class="edge">
<title>String&#45;&gt;@/Ripgrep</title>
<path fill="none" stroke="#31748f" stroke-width="2" stroke-dasharray="5,2" d="M2133.26,-1780.12C2153.35,-1940.95 2250.06,-2715.27 2276.11,-2923.86"/>
<polygon fill="#31748f" stroke="#31748f" stroke-width="2" points="2272.64,-2924.28 2277.35,-2933.77 2279.58,-2923.41 2272.64,-2924.28"/>
</g>
<!-- String&#45;&gt;@/String -->
<g id="edge68" class="edge">
<title>String&#45;&gt;@/String</title>
<path fill="none" stroke="#31748f" stroke-width="2" stroke-dasharray="5,2" d="M2070.66,-1721.4C1905.01,-1638.92 1434.44,-1404.6 1236.13,-1305.85"/>
<polygon fill="#31748f" stroke="#31748f" stroke-width="2" points="1237.83,-1302.79 1227.31,-1301.47 1234.71,-1309.06 1237.83,-1302.79"/>
</g>
<!-- String&#45;&gt;@/Theme -->
<g id="edge72" class="edge">
<title>String&#45;&gt;@/Theme</title>
<path fill="none" stroke="#31748f" stroke-width="2" stroke-dasharray="5,2" d="M2090.84,-1721.49C1970.02,-1630.25 1599.41,-1350.37 1451.47,-1238.65"/>
<polygon fill="#31748f" stroke="#31748f" stroke-width="2" points="1453.71,-1235.96 1443.62,-1232.73 1449.49,-1241.55 1453.71,-1235.96"/>
</g>
<!-- Tuple&#45;&gt;@/RenderMermaid -->
<g id="edge60" class="edge">
<title>Tuple&#45;&gt;@/RenderMermaid</title>
<path fill="none" stroke="#31748f" stroke-width="2" stroke-dasharray="5,2" d="M547.27,-58.18C595.89,-155.83 752.8,-470.95 814.35,-594.57"/>
<polygon fill="#31748f" stroke="#31748f" stroke-width="2" points="811.07,-595.81 818.66,-603.21 817.33,-592.69 811.07,-595.81"/>
</g>
<!-- Wish&#45;&gt;@/Dot.main -->
<g id="edge25" class="edge">
<title>Wish&#45;&gt;@/Dot.main</title>
<path fill="none" stroke="#31748f" stroke-width="2" stroke-dasharray="5,2" d="M197.08,-1409.19C343.97,-1564.67 1033.74,-2294.76 1218.86,-2490.71"/>
<polygon fill="#31748f" stroke="#31748f" stroke-width="2" points="1216.31,-2493.11 1225.72,-2497.97 1221.4,-2488.3 1216.31,-2493.11"/>
</g>
<!-- Wish&#45;&gt;@/External -->
<g id="edge29" class="edge">
<title>Wish&#45;&gt;@/External</title>
<path fill="none" stroke="#31748f" stroke-width="2" stroke-dasharray="5,2" d="M232.35,-1397.85C573.1,-1494.8 2199.98,-1957.69 2675.4,-2092.95"/>
<polygon fill="#31748f" stroke="#31748f" stroke-width="2" points="2674.28,-2096.28 2684.86,-2095.65 2676.2,-2089.54 2674.28,-2096.28"/>
</g>
<!-- Wish&#45;&gt;@/Mermaid.main -->
<g id="edge46" class="edge">
<title>Wish&#45;&gt;@/Mermaid.main</title>
<path fill="none" stroke="#31748f" stroke-width="2" stroke-dasharray="5,2" d="M228.06,-1350.77C476.06,-1227.28 1440.28,-747.16 1740.2,-597.81"/>
<polygon fill="#31748f" stroke="#31748f" stroke-width="2" points="1741.34,-601.16 1748.73,-593.57 1738.22,-594.89 1741.34,-601.16"/>
</g>
<!-- @/Dependencies -->
<g id="node1" class="node">
<title>@/Dependencies</title>
<path fill="#9ccfd8" stroke="black" d="M1105.65,-1452.16C1105.65,-1452.16 783.15,-1452.16 783.15,-1452.16 777.15,-1452.16 771.15,-1446.16 771.15,-1440.16 771.15,-1440.16 771.15,-1386.91 771.15,-1386.91 771.15,-1380.91 777.15,-1374.91 783.15,-1374.91 783.15,-1374.91 1105.65,-1374.91 1105.65,-1374.91 1111.65,-1374.91 1117.65,-1380.91 1117.65,-1386.91 1117.65,-1386.91 1117.65,-1440.16 1117.65,-1440.16 1117.65,-1446.16 1111.65,-1452.16 1105.65,-1452.16"/>
<text text-anchor="middle" x="944.4" y="-1396.16" font-family="Obviously Narrow" font-size="40.00" fill="#191724">@/Dependencies</text>
</g>
<!-- @/Dot.main -->
<g id="node2" class="node">
<title>@/Dot.main</title>
<path fill="#9ccfd8" stroke="black" d="M1377.19,-2577.84C1377.19,-2577.84 1152.19,-2577.84 1152.19,-2577.84 1146.19,-2577.84 1140.19,-2571.84 1140.19,-2565.84 1140.19,-2565.84 1140.19,-2512.59 1140.19,-2512.59 1140.19,-2506.59 1146.19,-2500.59 1152.19,-2500.59 1152.19,-2500.59 1377.19,-2500.59 1377.19,-2500.59 1383.19,-2500.59 1389.19,-2506.59 1389.19,-2512.59 1389.19,-2512.59 1389.19,-2565.84 1389.19,-2565.84 1389.19,-2571.84 1383.19,-2577.84 1377.19,-2577.84"/>
<text text-anchor="middle" x="1264.69" y="-2521.84" font-family="Obviously Narrow" font-size="40.00" fill="#191724">@/Dot.main</text>
</g>
<!-- @/External -->
<g id="node3" class="node">
<title>@/External</title>
<path fill="#9ccfd8" stroke="black" d="M2912.26,-2168.78C2912.26,-2168.78 2700.01,-2168.78 2700.01,-2168.78 2694.01,-2168.78 2688.01,-2162.78 2688.01,-2156.78 2688.01,-2156.78 2688.01,-2103.53 2688.01,-2103.53 2688.01,-2097.53 2694.01,-2091.53 2700.01,-2091.53 2700.01,-2091.53 2912.26,-2091.53 2912.26,-2091.53 2918.26,-2091.53 2924.26,-2097.53 2924.26,-2103.53 2924.26,-2103.53 2924.26,-2156.78 2924.26,-2156.78 2924.26,-2162.78 2918.26,-2168.78 2912.26,-2168.78"/>
<text text-anchor="middle" x="2806.14" y="-2112.78" font-family="Obviously Narrow" font-size="40.00" fill="#191724">@/External</text>
</g>
<!-- @/MadlibJson -->
<g id="node4" class="node">
<title>@/MadlibJson</title>
<path fill="#9ccfd8" stroke="black" d="M2757.27,-2640.5C2757.27,-2640.5 2489.52,-2640.5 2489.52,-2640.5 2483.52,-2640.5 2477.52,-2634.5 2477.52,-2628.5 2477.52,-2628.5 2477.52,-2575.25 2477.52,-2575.25 2477.52,-2569.25 2483.52,-2563.25 2489.52,-2563.25 2489.52,-2563.25 2757.27,-2563.25 2757.27,-2563.25 2763.27,-2563.25 2769.27,-2569.25 2769.27,-2575.25 2769.27,-2575.25 2769.27,-2628.5 2769.27,-2628.5 2769.27,-2634.5 2763.27,-2640.5 2757.27,-2640.5"/>
<text text-anchor="middle" x="2623.4" y="-2584.5" font-family="Obviously Narrow" font-size="40.00" fill="#191724">@/MadlibJson</text>
</g>
<!-- @/Mermaid.main -->
<g id="node5" class="node">
<title>@/Mermaid.main</title>
<path fill="#9ccfd8" stroke="black" d="M1988.75,-591.85C1988.75,-591.85 1670.75,-591.85 1670.75,-591.85 1664.75,-591.85 1658.75,-585.85 1658.75,-579.85 1658.75,-579.85 1658.75,-526.6 1658.75,-526.6 1658.75,-520.6 1664.75,-514.6 1670.75,-514.6 1670.75,-514.6 1988.75,-514.6 1988.75,-514.6 1994.75,-514.6 2000.75,-520.6 2000.75,-526.6 2000.75,-526.6 2000.75,-579.85 2000.75,-579.85 2000.75,-585.85 1994.75,-591.85 1988.75,-591.85"/>
<text text-anchor="middle" x="1829.75" y="-535.85" font-family="Obviously Narrow" font-size="40.00" fill="#191724">@/Mermaid.main</text>
</g>
<!-- @/Palettes -->
<g id="node6" class="node">
<title>@/Palettes</title>
<path fill="#9ccfd8" stroke="black" d="M2123.1,-3901.83C2123.1,-3901.83 1913.1,-3901.83 1913.1,-3901.83 1907.1,-3901.83 1901.1,-3895.83 1901.1,-3889.83 1901.1,-3889.83 1901.1,-3836.58 1901.1,-3836.58 1901.1,-3830.58 1907.1,-3824.58 1913.1,-3824.58 1913.1,-3824.58 2123.1,-3824.58 2123.1,-3824.58 2129.1,-3824.58 2135.1,-3830.58 2135.1,-3836.58 2135.1,-3836.58 2135.1,-3889.83 2135.1,-3889.83 2135.1,-3895.83 2129.1,-3901.83 2123.1,-3901.83"/>
<text text-anchor="middle" x="2018.1" y="-3845.83" font-family="Obviously Narrow" font-size="40.00" fill="#191724">@/Palettes</text>
</g>
<!-- @/RenderDot -->
<g id="node7" class="node">
<title>@/RenderDot</title>
<path fill="#9ccfd8" stroke="black" d="M1582.79,-1915.84C1582.79,-1915.84 1323.29,-1915.84 1323.29,-1915.84 1317.29,-1915.84 1311.29,-1909.84 1311.29,-1903.84 1311.29,-1903.84 1311.29,-1850.59 1311.29,-1850.59 1311.29,-1844.59 1317.29,-1838.59 1323.29,-1838.59 1323.29,-1838.59 1582.79,-1838.59 1582.79,-1838.59 1588.79,-1838.59 1594.79,-1844.59 1594.79,-1850.59 1594.79,-1850.59 1594.79,-1903.84 1594.79,-1903.84 1594.79,-1909.84 1588.79,-1915.84 1582.79,-1915.84"/>
<text text-anchor="middle" x="1453.04" y="-1859.84" font-family="Obviously Narrow" font-size="40.00" fill="#191724">@/RenderDot</text>
</g>
<!-- @/RenderMermaid -->
<g id="node8" class="node">
<title>@/RenderMermaid</title>
<path fill="#9ccfd8" stroke="black" d="M1015.71,-683.61C1015.71,-683.61 663.21,-683.61 663.21,-683.61 657.21,-683.61 651.21,-677.61 651.21,-671.61 651.21,-671.61 651.21,-618.36 651.21,-618.36 651.21,-612.36 657.21,-606.36 663.21,-606.36 663.21,-606.36 1015.71,-606.36 1015.71,-606.36 1021.71,-606.36 1027.71,-612.36 1027.71,-618.36 1027.71,-618.36 1027.71,-671.61 1027.71,-671.61 1027.71,-677.61 1021.71,-683.61 1015.71,-683.61"/>
<text text-anchor="middle" x="839.46" y="-627.61" font-family="Obviously Narrow" font-size="40.00" fill="#191724">@/RenderMermaid</text>
</g>
<!-- @/Ripgrep -->
<g id="node9" class="node">
<title>@/Ripgrep</title>
<path fill="#9ccfd8" stroke="black" d="M2385.34,-3014.34C2385.34,-3014.34 2179.84,-3014.34 2179.84,-3014.34 2173.84,-3014.34 2167.84,-3008.34 2167.84,-3002.34 2167.84,-3002.34 2167.84,-2949.09 2167.84,-2949.09 2167.84,-2943.09 2173.84,-2937.09 2179.84,-2937.09 2179.84,-2937.09 2385.34,-2937.09 2385.34,-2937.09 2391.34,-2937.09 2397.34,-2943.09 2397.34,-2949.09 2397.34,-2949.09 2397.34,-3002.34 2397.34,-3002.34 2397.34,-3008.34 2391.34,-3014.34 2385.34,-3014.34"/>
<text text-anchor="middle" x="2282.59" y="-2958.34" font-family="Obviously Narrow" font-size="40.00" fill="#191724">@/Ripgrep</text>
</g>
<!-- @/String -->
<g id="node10" class="node">
<title>@/String</title>
<path fill="#9ccfd8" stroke="black" d="M1231,-1299.73C1231,-1299.73 1061.5,-1299.73 1061.5,-1299.73 1055.5,-1299.73 1049.5,-1293.73 1049.5,-1287.73 1049.5,-1287.73 1049.5,-1234.48 1049.5,-1234.48 1049.5,-1228.48 1055.5,-1222.48 1061.5,-1222.48 1061.5,-1222.48 1231,-1222.48 1231,-1222.48 1237,-1222.48 1243,-1228.48 1243,-1234.48 1243,-1234.48 1243,-1287.73 1243,-1287.73 1243,-1293.73 1237,-1299.73 1231,-1299.73"/>
<text text-anchor="middle" x="1146.25" y="-1243.73" font-family="Obviously Narrow" font-size="40.00" fill="#191724">@/String</text>
</g>
<!-- @/Theme -->
<g id="node11" class="node">
<title>@/Theme</title>
<path fill="#9ccfd8" stroke="black" d="M1484.03,-1230.51C1484.03,-1230.51 1295.03,-1230.51 1295.03,-1230.51 1289.03,-1230.51 1283.03,-1224.51 1283.03,-1218.51 1283.03,-1218.51 1283.03,-1165.26 1283.03,-1165.26 1283.03,-1159.26 1289.03,-1153.26 1295.03,-1153.26 1295.03,-1153.26 1484.03,-1153.26 1484.03,-1153.26 1490.03,-1153.26 1496.03,-1159.26 1496.03,-1165.26 1496.03,-1165.26 1496.03,-1218.51 1496.03,-1218.51 1496.03,-1224.51 1490.03,-1230.51 1484.03,-1230.51"/>
<text text-anchor="middle" x="1389.53" y="-1174.51" font-family="Obviously Narrow" font-size="40.00" fill="#191724">@/Theme</text>
</g>
<!-- @/Theme/OhNo -->
<g id="node12" class="node">
<title>@/Theme/OhNo</title>
<path fill="#9ccfd8" stroke="black" d="M1982.37,-3239.83C1982.37,-3239.83 1677.12,-3239.83 1677.12,-3239.83 1671.12,-3239.83 1665.12,-3233.83 1665.12,-3227.83 1665.12,-3227.83 1665.12,-3174.58 1665.12,-3174.58 1665.12,-3168.58 1671.12,-3162.58 1677.12,-3162.58 1677.12,-3162.58 1982.37,-3162.58 1982.37,-3162.58 1988.37,-3162.58 1994.37,-3168.58 1994.37,-3174.58 1994.37,-3174.58 1994.37,-3227.83 1994.37,-3227.83 1994.37,-3233.83 1988.37,-3239.83 1982.37,-3239.83"/>
<text text-anchor="middle" x="1829.75" y="-3183.83" font-family="Obviously Narrow" font-size="40.00" fill="#191724">@/Theme/OhNo</text>
</g>
<!-- Dictionary -->
<g id="node13" class="node">
<title>Dictionary</title>
<polygon fill="#31748f" stroke="black" points="1758.77,-1244.1 1524.02,-1244.1 1524.02,-1186.35 1758.77,-1186.35 1758.77,-1244.1"/>
<text text-anchor="middle" x="1641.39" y="-1207.1" font-family="Compadre" font-size="20.00" fill="#191724">Dictionary</text>
</g>
<!-- Either -->
<g id="node14" class="node">
<title>Either</title>
<polygon fill="#31748f" stroke="black" points="1405.15,-3276.76 1246.9,-3276.76 1246.9,-3219.01 1405.15,-3219.01 1405.15,-3276.76"/>
<text text-anchor="middle" x="1326.03" y="-3239.76" font-family="Compadre" font-size="20.00" fill="#191724">Either</text>
</g>
<!-- File -->
<g id="node15" class="node">
<title>File</title>
<polygon fill="#31748f" stroke="black" points="893.84,-3138.32 785.09,-3138.32 785.09,-3080.57 893.84,-3080.57 893.84,-3138.32"/>
<text text-anchor="middle" x="839.46" y="-3101.32" font-family="Compadre" font-size="20.00" fill="#191724">File</text>
</g>
<!-- Function -->
<g id="node16" class="node">
<title>Function</title>
<polygon fill="#31748f" stroke="black" points="538.89,-2833.46 332.64,-2833.46 332.64,-2775.71 538.89,-2775.71 538.89,-2833.46"/>
<text text-anchor="middle" x="435.76" y="-2796.46" font-family="Compadre" font-size="20.00" fill="#191724">Function</text>
</g>
<!-- IO -->
<g id="node17" class="node">
<title>IO</title>
<polygon fill="#31748f" stroke="black" points="204.33,-2403.35 134.58,-2403.35 134.58,-2345.6 204.33,-2345.6 204.33,-2403.35"/>
<text text-anchor="middle" x="169.45" y="-2366.35" font-family="Compadre" font-size="20.00" fill="#191724">IO</text>
</g>
<!-- Json/Parse -->
<g id="node18" class="node">
<title>Json/Parse</title>
<polygon fill="#31748f" stroke="black" points="3328.57,-2993.07 3088.57,-2993.07 3088.57,-2935.32 3328.57,-2935.32 3328.57,-2993.07"/>
<text text-anchor="middle" x="3208.57" y="-2956.07" font-family="Compadre" font-size="20.00" fill="#191724">Json/Parse</text>
</g>
<!-- List -->
<g id="node19" class="node">
<title>List</title>
<polygon fill="#31748f" stroke="black" points="1920.69,-1356.84 1814.94,-1356.84 1814.94,-1299.09 1920.69,-1299.09 1920.69,-1356.84"/>
<text text-anchor="middle" x="1867.81" y="-1319.84" font-family="Compadre" font-size="20.00" fill="#191724">List</text>
</g>
<!-- Maybe -->
<g id="node20" class="node">
<title>Maybe</title>
<polygon fill="#31748f" stroke="black" points="153,-1906.09 0,-1906.09 0,-1848.34 153,-1848.34 153,-1906.09"/>
<text text-anchor="middle" x="76.5" y="-1869.09" font-family="Compadre" font-size="20.00" fill="#191724">Maybe</text>
</g>
<!-- Process -->
<g id="node21" class="node">
<title>Process</title>
<polygon fill="#31748f" stroke="black" points="3579.07,-2285.5 3386.32,-2285.5 3386.32,-2227.75 3579.07,-2227.75 3579.07,-2285.5"/>
<text text-anchor="middle" x="3482.69" y="-2248.5" font-family="Compadre" font-size="20.00" fill="#191724">Process</text>
</g>
<!-- Set -->
<g id="node22" class="node">
<title>Set</title>
<polygon fill="#31748f" stroke="black" points="2087.72,-1543.76 1988.72,-1543.76 1988.72,-1486.01 2087.72,-1486.01 2087.72,-1543.76"/>
<text text-anchor="middle" x="2038.22" y="-1506.76" font-family="Compadre" font-size="20.00" fill="#191724">Set</text>
</g>
<!-- String -->
<g id="node23" class="node">
<title>String</title>
<polygon fill="#31748f" stroke="black" points="2208.71,-1779.62 2050.46,-1779.62 2050.46,-1721.87 2208.71,-1721.87 2208.71,-1779.62"/>
<text text-anchor="middle" x="2129.59" y="-1742.62" font-family="Compadre" font-size="20.00" fill="#191724">String</text>
</g>
<!-- Tuple -->
<g id="node24" class="node">
<title>Tuple</title>
<polygon fill="#31748f" stroke="black" points="602.8,-57.75 462.55,-57.75 462.55,0 602.8,0 602.8,-57.75"/>
<text text-anchor="middle" x="532.67" y="-20.75" font-family="Compadre" font-size="20.00" fill="#191724">Tuple</text>
</g>
<!-- Wish -->
<g id="node25" class="node">
<title>Wish</title>
<polygon fill="#31748f" stroke="black" points="232.08,-1408.83 106.83,-1408.83 106.83,-1351.08 232.08,-1351.08 232.08,-1408.83"/>
<text text-anchor="middle" x="169.45" y="-1371.83" font-family="Compadre" font-size="20.00" fill="#191724">Wish</text>
</g>
</g>
</svg>
