<?xml version="1.0" encoding="UTF-8" standalone="no"?>
<!DOCTYPE svg PUBLIC "-//W3C//DTD SVG 1.1//EN"
 "http://www.w3.org/Graphics/SVG/1.1/DTD/svg11.dtd">
<!-- Generated by graphviz version 11.0.0 (20240428.1522)
 -->
<!-- Title: MadDeps Pages: 1 -->
<svg width="2167pt" height="1181pt"
 viewBox="0.00 0.00 2167.38 1181.00" xmlns="http://www.w3.org/2000/svg" xmlns:xlink="http://www.w3.org/1999/xlink">
<g id="graph0" class="graph" transform="scale(1 1) rotate(0) translate(4 1177)">
<title>MadDeps</title>
<polygon fill="#240046" stroke="none" points="-4,4 -4,-1177 2163.38,-1177 2163.38,4 -4,4"/>
<!-- Dye&#45;&gt;@/RenderDot -->
<g id="edge11" class="edge">
<title>Dye&#45;&gt;@/RenderDot</title>
<path fill="none" stroke="#f72585" stroke-width="2" d="M450.61,-730.28C511.38,-663.59 637.39,-525.3 703.88,-452.33"/>
<polygon fill="#f72585" stroke="#f72585" stroke-width="2" points="706.28,-454.9 710.43,-445.15 701.11,-450.18 706.28,-454.9"/>
</g>
<!-- Dye/Hexadecimal&#45;&gt;@/RenderDot -->
<g id="edge12" class="edge">
<title>Dye/Hexadecimal&#45;&gt;@/RenderDot</title>
<path fill="none" stroke="#f72585" stroke-width="2" d="M999.74,-730.28C948.07,-663.72 841.05,-525.86 784.31,-452.78"/>
<polygon fill="#f72585" stroke="#f72585" stroke-width="2" points="787.4,-451.05 778.51,-445.3 781.88,-455.35 787.4,-451.05"/>
</g>
<!-- @/Dependencies&#45;&gt;@/RenderDot -->
<g id="edge8" class="edge">
<title>@/Dependencies&#45;&gt;@/RenderDot</title>
<path fill="none" stroke="#7209b7" stroke-width="2" d="M670.09,-730.28C685.65,-664.54 717.68,-529.23 735.14,-455.5"/>
<polygon fill="#7209b7" stroke="#7209b7" stroke-width="2" points="738.53,-456.39 737.42,-445.85 731.71,-454.78 738.53,-456.39"/>
</g>
<!-- @/External&#45;&gt;@/Dot.main -->
<g id="edge2" class="edge">
<title>@/External&#45;&gt;@/Dot.main</title>
<path fill="none" stroke="#7209b7" stroke-width="2" d="M99.89,-730.23C66.92,-655.94 6.24,-487.73 67.12,-365.25 135.13,-228.46 291.07,-133.77 395.27,-83.08"/>
<polygon fill="#7209b7" stroke="#7209b7" stroke-width="2" points="396.53,-86.36 404.03,-78.88 393.5,-80.05 396.53,-86.36"/>
</g>
<!-- @/External&#45;&gt;@/Ripgrep -->
<g id="edge14" class="edge">
<title>@/External&#45;&gt;@/Ripgrep</title>
<path fill="none" stroke="#7209b7" stroke-width="2" d="M125.73,-730.28C138.94,-664.54 166.13,-529.23 180.95,-455.5"/>
<polygon fill="#7209b7" stroke="#7209b7" stroke-width="2" points="184.35,-456.37 182.89,-445.88 177.48,-454.99 184.35,-456.37"/>
</g>
<!-- @/MadlibJson&#45;&gt;@/Dependencies -->
<g id="edge1" class="edge">
<title>@/MadlibJson&#45;&gt;@/Dependencies</title>
<path fill="none" stroke="#7209b7" stroke-width="2" d="M515.11,-1095.53C544.73,-1029.52 605.82,-893.36 638.82,-819.83"/>
<polygon fill="#7209b7" stroke="#7209b7" stroke-width="2" points="641.92,-821.48 642.82,-810.92 635.53,-818.61 641.92,-821.48"/>
</g>
<!-- @/MadlibJson&#45;&gt;@/Dot.main -->
<g id="edge3" class="edge">
<title>@/MadlibJson&#45;&gt;@/Dot.main</title>
<path fill="none" stroke="#7209b7" stroke-width="2" d="M474.94,-1095.58C440.3,-1036.67 376.61,-918.22 353.12,-807.75 295.72,-537.71 420.54,-211.68 474.18,-89.26"/>
<polygon fill="#7209b7" stroke="#7209b7" stroke-width="2" points="477.21,-91.05 478.06,-80.49 470.81,-88.21 477.21,-91.05"/>
</g>
<!-- @/Palettes&#45;&gt;@/Theme/OhNo -->
<g id="edge16" class="edge">
<title>@/Palettes&#45;&gt;@/Theme/OhNo</title>
<path fill="none" stroke="#7209b7" stroke-width="2" d="M1597.52,-730.28C1575.57,-664.4 1530.36,-528.67 1505.83,-455.04"/>
<polygon fill="#7209b7" stroke="#7209b7" stroke-width="2" points="1509.23,-454.16 1502.75,-445.78 1502.59,-456.37 1509.23,-454.16"/>
</g>
<!-- @/RenderDot&#45;&gt;@/Dot.main -->
<g id="edge4" class="edge">
<title>@/RenderDot&#45;&gt;@/Dot.main</title>
<path fill="none" stroke="#7209b7" stroke-width="2" d="M721.08,-365.03C675.37,-298.61 580.78,-161.18 530.4,-87.98"/>
<polygon fill="#7209b7" stroke="#7209b7" stroke-width="2" points="533.57,-86.41 525.02,-80.15 527.8,-90.37 533.57,-86.41"/>
</g>
<!-- @/Ripgrep&#45;&gt;@/Dot.main -->
<g id="edge5" class="edge">
<title>@/Ripgrep&#45;&gt;@/Dot.main</title>
<path fill="none" stroke="#7209b7" stroke-width="2" d="M223.01,-365.03C279.07,-298.47 395.21,-160.61 456.77,-87.53"/>
<polygon fill="#7209b7" stroke="#7209b7" stroke-width="2" points="459.37,-89.88 463.14,-79.97 454.02,-85.37 459.37,-89.88"/>
</g>
<!-- @/String&#45;&gt;@/RenderDot -->
<g id="edge9" class="edge">
<title>@/String&#45;&gt;@/RenderDot</title>
<path fill="none" stroke="#7209b7" stroke-width="2" d="M1517.9,-1095.34C1454.21,-1037.73 1333.99,-922.83 1253.12,-807.75 1231.01,-776.28 1239.33,-759.55 1214.12,-730.5 1104.97,-604.71 937.18,-503.43 835.24,-448.9"/>
<polygon fill="#7209b7" stroke="#7209b7" stroke-width="2" points="836.9,-445.82 826.42,-444.23 833.62,-452.01 836.9,-445.82"/>
</g>
<!-- @/String&#45;&gt;@/RenderMermaid -->
<g id="edge13" class="edge">
<title>@/String&#45;&gt;@/RenderMermaid</title>
<path fill="none" stroke="#7209b7" stroke-width="2" d="M1603.84,-1095.53C1679.43,-1028.56 1836.48,-889.42 1918.57,-816.69"/>
<polygon fill="#7209b7" stroke="#7209b7" stroke-width="2" points="1920.77,-819.42 1925.93,-810.17 1916.12,-814.18 1920.77,-819.42"/>
</g>
<!-- @/String&#45;&gt;@/Theme -->
<g id="edge15" class="edge">
<title>@/String&#45;&gt;@/Theme</title>
<path fill="none" stroke="#7209b7" stroke-width="2" d="M1541.02,-1095.53C1505.87,-1029.38 1433.3,-892.8 1394.29,-819.38"/>
<polygon fill="#7209b7" stroke="#7209b7" stroke-width="2" points="1397.54,-818.02 1389.75,-810.83 1391.35,-821.31 1397.54,-818.02"/>
</g>
<!-- @/String&#45;&gt;@/Theme/OhNo -->
<g id="edge17" class="edge">
<title>@/String&#45;&gt;@/Theme/OhNo</title>
<path fill="none" stroke="#7209b7" stroke-width="2" d="M1598.22,-1095.35C1662.29,-1024.87 1782.56,-868.55 1736.12,-730.5 1697.69,-616.23 1601.47,-510.2 1541.1,-451.81"/>
<polygon fill="#7209b7" stroke="#7209b7" stroke-width="2" points="1543.56,-449.33 1533.92,-444.95 1538.73,-454.39 1543.56,-449.33"/>
</g>
<!-- @/Theme&#45;&gt;@/Dot.main -->
<g id="edge6" class="edge">
<title>@/Theme&#45;&gt;@/Dot.main</title>
<path fill="none" stroke="#7209b7" stroke-width="2" d="M1324.72,-730.24C1242.2,-658.38 1056.77,-497.62 898.12,-365.25 777.03,-264.22 633.08,-148.33 554.82,-85.68"/>
<polygon fill="#7209b7" stroke="#7209b7" stroke-width="2" points="557.04,-82.97 547.05,-79.46 552.67,-88.44 557.04,-82.97"/>
</g>
<!-- @/Theme&#45;&gt;@/RenderDot -->
<g id="edge10" class="edge">
<title>@/Theme&#45;&gt;@/RenderDot</title>
<path fill="none" stroke="#7209b7" stroke-width="2" d="M1303.13,-730.11C1187.46,-662.45 946.49,-521.49 823.26,-449.41"/>
<polygon fill="#7209b7" stroke="#7209b7" stroke-width="2" points="825.08,-446.42 814.69,-444.39 821.55,-452.46 825.08,-446.42"/>
</g>
<!-- @/Theme&#45;&gt;@/Theme/OhNo -->
<g id="edge18" class="edge">
<title>@/Theme&#45;&gt;@/Theme/OhNo</title>
<path fill="none" stroke="#7209b7" stroke-width="2" d="M1380.73,-730.28C1402.68,-664.4 1447.89,-528.67 1472.42,-455.04"/>
<polygon fill="#7209b7" stroke="#7209b7" stroke-width="2" points="1475.66,-456.37 1475.5,-445.78 1469.02,-454.16 1475.66,-456.37"/>
</g>
<!-- @/Theme/OhNo&#45;&gt;@/Dot.main -->
<g id="edge7" class="edge">
<title>@/Theme/OhNo&#45;&gt;@/Dot.main</title>
<path fill="none" stroke="#7209b7" stroke-width="2" d="M1385.31,-364.86C1198.67,-296.52 807.82,-153.39 612.86,-82"/>
<polygon fill="#7209b7" stroke="#7209b7" stroke-width="2" points="614.31,-78.81 603.72,-78.66 611.9,-85.38 614.31,-78.81"/>
</g>
<!-- Dye -->
<g id="node1" class="node">
<title>Dye</title>
<polygon fill="#f72585" stroke="black" points="470.12,-807.75 362.12,-807.75 362.12,-730.5 470.12,-730.5 470.12,-807.75"/>
<text text-anchor="middle" x="416.12" y="-751.75" font-family="Obviously Narrow" font-size="40.00" fill="#fcfbf9">Dye</text>
</g>
<!-- Dye/Hexadecimal -->
<g id="node2" class="node">
<title>Dye/Hexadecimal</title>
<polygon fill="#f72585" stroke="black" points="1205.38,-807.75 852.88,-807.75 852.88,-730.5 1205.38,-730.5 1205.38,-807.75"/>
<text text-anchor="middle" x="1029.12" y="-751.75" font-family="Obviously Narrow" font-size="40.00" fill="#fcfbf9">Dye/Hexadecimal</text>
</g>
<!-- @/Dependencies -->
<g id="node3" class="node">
<title>@/Dependencies</title>
<path fill="#7209b7" stroke="black" d="M822.38,-807.75C822.38,-807.75 499.88,-807.75 499.88,-807.75 493.88,-807.75 487.88,-801.75 487.88,-795.75 487.88,-795.75 487.88,-742.5 487.88,-742.5 487.88,-736.5 493.88,-730.5 499.88,-730.5 499.88,-730.5 822.38,-730.5 822.38,-730.5 828.38,-730.5 834.38,-736.5 834.38,-742.5 834.38,-742.5 834.38,-795.75 834.38,-795.75 834.38,-801.75 828.38,-807.75 822.38,-807.75"/>
<text text-anchor="middle" x="661.12" y="-751.75" font-family="Obviously Narrow" font-size="40.00" fill="#fcfbf9">@/Dependencies</text>
</g>
<!-- @/Dot.main -->
<g id="node4" class="node">
<title>@/Dot.main</title>
<path fill="#7209b7" stroke="black" d="M609.62,-77.25C609.62,-77.25 384.62,-77.25 384.62,-77.25 378.62,-77.25 372.62,-71.25 372.62,-65.25 372.62,-65.25 372.62,-12 372.62,-12 372.62,-6 378.62,0 384.62,0 384.62,0 609.62,0 609.62,0 615.62,0 621.62,-6 621.62,-12 621.62,-12 621.62,-65.25 621.62,-65.25 621.62,-71.25 615.62,-77.25 609.62,-77.25"/>
<text text-anchor="middle" x="497.12" y="-21.25" font-family="Obviously Narrow" font-size="40.00" fill="#fcfbf9">@/Dot.main</text>
</g>
<!-- @/External -->
<g id="node5" class="node">
<title>@/External</title>
<path fill="#7209b7" stroke="black" d="M224.25,-807.75C224.25,-807.75 12,-807.75 12,-807.75 6,-807.75 0,-801.75 0,-795.75 0,-795.75 0,-742.5 0,-742.5 0,-736.5 6,-730.5 12,-730.5 12,-730.5 224.25,-730.5 224.25,-730.5 230.25,-730.5 236.25,-736.5 236.25,-742.5 236.25,-742.5 236.25,-795.75 236.25,-795.75 236.25,-801.75 230.25,-807.75 224.25,-807.75"/>
<text text-anchor="middle" x="118.12" y="-751.75" font-family="Obviously Narrow" font-size="40.00" fill="#fcfbf9">@/External</text>
</g>
<!-- @/MadlibJson -->
<g id="node6" class="node">
<title>@/MadlibJson</title>
<path fill="#7209b7" stroke="black" d="M632,-1173C632,-1173 364.25,-1173 364.25,-1173 358.25,-1173 352.25,-1167 352.25,-1161 352.25,-1161 352.25,-1107.75 352.25,-1107.75 352.25,-1101.75 358.25,-1095.75 364.25,-1095.75 364.25,-1095.75 632,-1095.75 632,-1095.75 638,-1095.75 644,-1101.75 644,-1107.75 644,-1107.75 644,-1161 644,-1161 644,-1167 638,-1173 632,-1173"/>
<text text-anchor="middle" x="498.12" y="-1117" font-family="Obviously Narrow" font-size="40.00" fill="#fcfbf9">@/MadlibJson</text>
</g>
<!-- @/Palettes -->
<g id="node7" class="node">
<title>@/Palettes</title>
<path fill="#7209b7" stroke="black" d="M1715.12,-807.75C1715.12,-807.75 1505.12,-807.75 1505.12,-807.75 1499.12,-807.75 1493.12,-801.75 1493.12,-795.75 1493.12,-795.75 1493.12,-742.5 1493.12,-742.5 1493.12,-736.5 1499.12,-730.5 1505.12,-730.5 1505.12,-730.5 1715.12,-730.5 1715.12,-730.5 1721.12,-730.5 1727.12,-736.5 1727.12,-742.5 1727.12,-742.5 1727.12,-795.75 1727.12,-795.75 1727.12,-801.75 1721.12,-807.75 1715.12,-807.75"/>
<text text-anchor="middle" x="1610.12" y="-751.75" font-family="Obviously Narrow" font-size="40.00" fill="#fcfbf9">@/Palettes</text>
</g>
<!-- @/RenderDot -->
<g id="node8" class="node">
<title>@/RenderDot</title>
<path fill="#7209b7" stroke="black" d="M876.88,-442.5C876.88,-442.5 617.38,-442.5 617.38,-442.5 611.38,-442.5 605.38,-436.5 605.38,-430.5 605.38,-430.5 605.38,-377.25 605.38,-377.25 605.38,-371.25 611.38,-365.25 617.38,-365.25 617.38,-365.25 876.88,-365.25 876.88,-365.25 882.88,-365.25 888.88,-371.25 888.88,-377.25 888.88,-377.25 888.88,-430.5 888.88,-430.5 888.88,-436.5 882.88,-442.5 876.88,-442.5"/>
<text text-anchor="middle" x="747.12" y="-386.5" font-family="Obviously Narrow" font-size="40.00" fill="#fcfbf9">@/RenderDot</text>
</g>
<!-- @/RenderMermaid -->
<g id="node9" class="node">
<title>@/RenderMermaid</title>
<path fill="#7209b7" stroke="black" d="M2147.38,-807.75C2147.38,-807.75 1794.88,-807.75 1794.88,-807.75 1788.88,-807.75 1782.88,-801.75 1782.88,-795.75 1782.88,-795.75 1782.88,-742.5 1782.88,-742.5 1782.88,-736.5 1788.88,-730.5 1794.88,-730.5 1794.88,-730.5 2147.38,-730.5 2147.38,-730.5 2153.38,-730.5 2159.38,-736.5 2159.38,-742.5 2159.38,-742.5 2159.38,-795.75 2159.38,-795.75 2159.38,-801.75 2153.38,-807.75 2147.38,-807.75"/>
<text text-anchor="middle" x="1971.12" y="-751.75" font-family="Obviously Narrow" font-size="40.00" fill="#fcfbf9">@/RenderMermaid</text>
</g>
<!-- @/Ripgrep -->
<g id="node10" class="node">
<title>@/Ripgrep</title>
<path fill="#7209b7" stroke="black" d="M293.88,-442.5C293.88,-442.5 88.38,-442.5 88.38,-442.5 82.38,-442.5 76.38,-436.5 76.38,-430.5 76.38,-430.5 76.38,-377.25 76.38,-377.25 76.38,-371.25 82.38,-365.25 88.38,-365.25 88.38,-365.25 293.88,-365.25 293.88,-365.25 299.88,-365.25 305.88,-371.25 305.88,-377.25 305.88,-377.25 305.88,-430.5 305.88,-430.5 305.88,-436.5 299.88,-442.5 293.88,-442.5"/>
<text text-anchor="middle" x="191.12" y="-386.5" font-family="Obviously Narrow" font-size="40.00" fill="#fcfbf9">@/Ripgrep</text>
</g>
<!-- @/String -->
<g id="node11" class="node">
<title>@/String</title>
<path fill="#7209b7" stroke="black" d="M1645.88,-1173C1645.88,-1173 1476.38,-1173 1476.38,-1173 1470.38,-1173 1464.38,-1167 1464.38,-1161 1464.38,-1161 1464.38,-1107.75 1464.38,-1107.75 1464.38,-1101.75 1470.38,-1095.75 1476.38,-1095.75 1476.38,-1095.75 1645.88,-1095.75 1645.88,-1095.75 1651.88,-1095.75 1657.88,-1101.75 1657.88,-1107.75 1657.88,-1107.75 1657.88,-1161 1657.88,-1161 1657.88,-1167 1651.88,-1173 1645.88,-1173"/>
<text text-anchor="middle" x="1561.12" y="-1117" font-family="Obviously Narrow" font-size="40.00" fill="#fcfbf9">@/String</text>
</g>
<!-- @/Theme -->
<g id="node12" class="node">
<title>@/Theme</title>
<path fill="#7209b7" stroke="black" d="M1462.62,-807.75C1462.62,-807.75 1273.62,-807.75 1273.62,-807.75 1267.62,-807.75 1261.62,-801.75 1261.62,-795.75 1261.62,-795.75 1261.62,-742.5 1261.62,-742.5 1261.62,-736.5 1267.62,-730.5 1273.62,-730.5 1273.62,-730.5 1462.62,-730.5 1462.62,-730.5 1468.62,-730.5 1474.62,-736.5 1474.62,-742.5 1474.62,-742.5 1474.62,-795.75 1474.62,-795.75 1474.62,-801.75 1468.62,-807.75 1462.62,-807.75"/>
<text text-anchor="middle" x="1368.12" y="-751.75" font-family="Obviously Narrow" font-size="40.00" fill="#fcfbf9">@/Theme</text>
</g>
<!-- @/Theme/OhNo -->
<g id="node13" class="node">
<title>@/Theme/OhNo</title>
<path fill="#7209b7" stroke="black" d="M1641.75,-442.5C1641.75,-442.5 1336.5,-442.5 1336.5,-442.5 1330.5,-442.5 1324.5,-436.5 1324.5,-430.5 1324.5,-430.5 1324.5,-377.25 1324.5,-377.25 1324.5,-371.25 1330.5,-365.25 1336.5,-365.25 1336.5,-365.25 1641.75,-365.25 1641.75,-365.25 1647.75,-365.25 1653.75,-371.25 1653.75,-377.25 1653.75,-377.25 1653.75,-430.5 1653.75,-430.5 1653.75,-436.5 1647.75,-442.5 1641.75,-442.5"/>
<text text-anchor="middle" x="1489.12" y="-386.5" font-family="Obviously Narrow" font-size="40.00" fill="#fcfbf9">@/Theme/OhNo</text>
</g>
</g>
</svg>
