<?xml version="1.0" encoding="UTF-8" standalone="no"?>
<!DOCTYPE svg PUBLIC "-//W3C//DTD SVG 1.1//EN"
 "http://www.w3.org/Graphics/SVG/1.1/DTD/svg11.dtd">
<!-- Generated by graphviz version 11.0.0 (20240428.1522)
 -->
<!-- Title: MadDeps Pages: 1 -->
<svg width="1511pt" height="730pt"
 viewBox="0.00 0.00 1511.03 729.50" xmlns="http://www.w3.org/2000/svg" xmlns:xlink="http://www.w3.org/1999/xlink">
<g id="graph0" class="graph" transform="scale(1 1) rotate(0) translate(4 725.5)">
<title>MadDeps</title>
<polygon fill="#19647e" stroke="none" points="-4,4 -4,-725.5 1507.03,-725.5 1507.03,4 -4,4"/>
<!-- @/Dependencies&#45;&gt;@/Render -->
<g id="edge17" class="edge">
<title>@/Dependencies:s&#45;&gt;@/Render</title>
<path fill="none" stroke="#28afb0" stroke-width="2" d="M549.12,-221.25C549.12,-160.24 600.74,-114.42 651.66,-84.06"/>
<polygon fill="#28afb0" stroke="#28afb0" stroke-width="2" points="653.3,-87.16 660.22,-79.14 649.8,-81.1 653.3,-87.16"/>
</g>
<!-- @/External&#45;&gt;@/Ripgrep -->
<g id="edge23" class="edge">
<title>@/External:s&#45;&gt;@/Ripgrep</title>
<path fill="none" stroke="#28afb0" stroke-width="2" d="M1083.12,-442.5C1083.12,-393.16 1055.26,-343.99 1029.71,-309.27"/>
<polygon fill="#28afb0" stroke="#28afb0" stroke-width="2" points="1032.55,-307.23 1023.72,-301.39 1026.98,-311.47 1032.55,-307.23"/>
</g>
<!-- @/MadlibJson&#45;&gt;@/Dependencies -->
<g id="edge1" class="edge">
<title>@/MadlibJson:s&#45;&gt;@/Dependencies</title>
<path fill="none" stroke="#28afb0" stroke-width="2" d="M297.12,-442.5C297.12,-376.89 354.04,-332.62 413.77,-304.23"/>
<polygon fill="#28afb0" stroke="#28afb0" stroke-width="2" points="414.95,-307.54 422.59,-300.19 412.04,-301.17 414.95,-307.54"/>
</g>
<!-- Dictionary&#45;&gt;@/Dependencies -->
<g id="edge2" class="edge">
<title>Dictionary:s&#45;&gt;@/Dependencies</title>
<path fill="none" stroke="#f4d35e" stroke-width="2" stroke-dasharray="5,2" d="M1337.12,-451.25C1337.12,-435.84 968.25,-352.4 735.26,-301.23"/>
<polygon fill="#f4d35e" stroke="#f4d35e" stroke-width="2" points="736.02,-297.82 725.5,-299.09 734.52,-304.65 736.02,-297.82"/>
</g>
<!-- Dictionary&#45;&gt;@/Render -->
<g id="edge18" class="edge">
<title>Dictionary:s&#45;&gt;@/Render</title>
<path fill="none" stroke="#f4d35e" stroke-width="2" stroke-dasharray="5,2" d="M1337.12,-451.25C1337.12,-344.89 1531.27,-355.2 1482.12,-260.88"/>
<path fill="none" stroke="#f4d35e" stroke-width="2" stroke-dasharray="5,2" d="M1482.12,-258.88C1410.18,-120.78 854.66,-51.59 762.93,-41.05"/>
<polygon fill="#f4d35e" stroke="#f4d35e" stroke-width="2" points="763.46,-37.59 753.13,-39.96 762.68,-44.55 763.46,-37.59"/>
</g>
<!-- Dictionary&#45;&gt;@/Ripgrep -->
<g id="edge24" class="edge">
<title>Dictionary:s&#45;&gt;@/Ripgrep</title>
<path fill="none" stroke="#f4d35e" stroke-width="2" stroke-dasharray="5,2" d="M1337.12,-451.25C1337.12,-347 1215.64,-299.5 1116.02,-278.07"/>
<polygon fill="#f4d35e" stroke="#f4d35e" stroke-width="2" points="1116.83,-274.66 1106.33,-276.07 1115.42,-281.52 1116.83,-274.66"/>
</g>
<!-- Either&#45;&gt;@/Dependencies -->
<g id="edge3" class="edge">
<title>Either:s&#45;&gt;@/Dependencies</title>
<path fill="none" stroke="#f4d35e" stroke-width="2" stroke-dasharray="5,2" d="M79.12,-663.75C79.12,-580.69 87.33,-557.07 123.12,-482.12"/>
<path fill="none" stroke="#f4d35e" stroke-width="2" stroke-dasharray="5,2" d="M123.12,-480.12C131.2,-463.22 128.57,-455.43 142.12,-442.5 266.74,-323.71 482.19,-274.21 536.44,-263.29"/>
<polygon fill="#f4d35e" stroke="#f4d35e" stroke-width="2" points="536.98,-266.75 546.15,-261.44 535.67,-259.87 536.98,-266.75"/>
</g>
<!-- Either&#45;&gt;@/MadlibJson -->
<g id="edge14" class="edge">
<title>Either:s&#45;&gt;@/MadlibJson</title>
<path fill="none" stroke="#f4d35e" stroke-width="2" stroke-dasharray="5,2" d="M79.12,-663.75C79.12,-600.96 133.17,-555.67 187.45,-526.02"/>
<polygon fill="#f4d35e" stroke="#f4d35e" stroke-width="2" points="188.76,-529.28 195.97,-521.52 185.49,-523.09 188.76,-529.28"/>
</g>
<!-- Function&#45;&gt;@/Dependencies -->
<g id="edge4" class="edge">
<title>Function:s&#45;&gt;@/Dependencies</title>
<path fill="none" stroke="#f4d35e" stroke-width="2" stroke-dasharray="5,2" d="M720.12,-451.25C720.12,-390.25 670.93,-339.92 625.32,-306.36"/>
<polygon fill="#f4d35e" stroke="#f4d35e" stroke-width="2" points="627.39,-303.54 617.21,-300.58 623.33,-309.24 627.39,-303.54"/>
</g>
<!-- Function&#45;&gt;@/Render -->
<g id="edge19" class="edge">
<title>Function:s&#45;&gt;@/Render</title>
<path fill="none" stroke="#f4d35e" stroke-width="2" stroke-dasharray="5,2" d="M720.12,-451.25C720.12,-365.59 744.55,-346.35 750.12,-260.88"/>
</g>
<!-- Function&#45;&gt;@/Ripgrep -->
<g id="edge25" class="edge">
<title>Function:s&#45;&gt;@/Ripgrep</title>
<path fill="none" stroke="#f4d35e" stroke-width="2" stroke-dasharray="5,2" d="M720.12,-451.25C720.12,-375.72 791.75,-327.4 860.94,-298.35"/>
<polygon fill="#f4d35e" stroke="#f4d35e" stroke-width="2" points="862.15,-301.64 870.11,-294.64 859.53,-295.15 862.15,-301.64"/>
</g>
<!-- IO&#45;&gt;@/Dependencies -->
<g id="edge5" class="edge">
<title>IO:s&#45;&gt;@/Dependencies</title>
<path fill="none" stroke="#f4d35e" stroke-width="2" stroke-dasharray="5,2" d="M471.12,-480.12C436.62,-400.85 514.31,-300.9 540.73,-270.24"/>
<polygon fill="#f4d35e" stroke="#f4d35e" stroke-width="2" points="543.04,-272.91 547.1,-263.13 537.82,-268.24 543.04,-272.91"/>
<path fill="none" stroke="#f4d35e" stroke-width="2" stroke-dasharray="5,2" d="M699.12,-663.75C699.12,-551.31 565.85,-603.77 491.12,-519.75 478.54,-505.6 478.68,-499.49 471.12,-482.12"/>
</g>
<!-- IO&#45;&gt;@/External -->
<g id="edge10" class="edge">
<title>IO:s&#45;&gt;@/External</title>
<path fill="none" stroke="#f4d35e" stroke-width="2" stroke-dasharray="5,2" d="M699.12,-663.75C699.12,-633.7 854.77,-568.3 967.88,-524.73"/>
<polygon fill="#f4d35e" stroke="#f4d35e" stroke-width="2" points="968.8,-528.13 976.89,-521.28 966.3,-521.59 968.8,-528.13"/>
</g>
<!-- Json/Parse&#45;&gt;@/MadlibJson -->
<g id="edge15" class="edge">
<title>Json/Parse:s&#45;&gt;@/MadlibJson</title>
<path fill="none" stroke="#f4d35e" stroke-width="2" stroke-dasharray="5,2" d="M468.12,-663.75C468.12,-606.01 421.75,-559.16 377.31,-527.51"/>
<polygon fill="#f4d35e" stroke="#f4d35e" stroke-width="2" points="379.39,-524.69 369.17,-521.9 375.42,-530.46 379.39,-524.69"/>
</g>
<!-- List&#45;&gt;@/Dependencies -->
<g id="edge6" class="edge">
<title>List:s&#45;&gt;@/Dependencies</title>
<path fill="none" stroke="#f4d35e" stroke-width="2" stroke-dasharray="5,2" d="M894.12,-451.25C894.12,-399.07 771.62,-341.48 672.61,-303.45"/>
<polygon fill="#f4d35e" stroke="#f4d35e" stroke-width="2" points="674.08,-300.27 663.49,-299.99 671.6,-306.81 674.08,-300.27"/>
</g>
<!-- List&#45;&gt;@/Render -->
<g id="edge20" class="edge">
<title>List:s&#45;&gt;@/Render</title>
<path fill="none" stroke="#f4d35e" stroke-width="2" stroke-dasharray="5,2" d="M894.12,-451.25C894.12,-345.16 743.22,-366.74 750.12,-260.88"/>
</g>
<!-- List&#45;&gt;@/Ripgrep -->
<g id="edge26" class="edge">
<title>List:s&#45;&gt;@/Ripgrep</title>
<path fill="none" stroke="#f4d35e" stroke-width="2" stroke-dasharray="5,2" d="M894.12,-451.25C894.12,-398.75 923.23,-345.73 949.04,-309.03"/>
<polygon fill="#f4d35e" stroke="#f4d35e" stroke-width="2" points="951.75,-311.26 954.79,-301.1 946.08,-307.15 951.75,-311.26"/>
</g>
<!-- Maybe&#45;&gt;@/Dependencies -->
<g id="edge7" class="edge">
<title>Maybe:s&#45;&gt;@/Dependencies</title>
<path fill="none" stroke="#f4d35e" stroke-width="2" stroke-dasharray="5,2" d="M253.12,-663.75C253.12,-564.48 80.34,-571.7 123.12,-482.12"/>
</g>
<!-- Maybe&#45;&gt;@/MadlibJson -->
<g id="edge16" class="edge">
<title>Maybe:s&#45;&gt;@/MadlibJson</title>
<path fill="none" stroke="#f4d35e" stroke-width="2" stroke-dasharray="5,2" d="M253.12,-663.75C253.12,-618.33 266.28,-568.27 278.21,-532.23"/>
<polygon fill="#f4d35e" stroke="#f4d35e" stroke-width="2" points="281.45,-533.56 281.37,-522.96 274.83,-531.29 281.45,-533.56"/>
</g>
<!-- Process&#45;&gt;@/External -->
<g id="edge11" class="edge">
<title>Process:s&#45;&gt;@/External</title>
<path fill="none" stroke="#f4d35e" stroke-width="2" stroke-dasharray="5,2" d="M877.12,-663.75C877.12,-602.21 929.49,-556.56 981.42,-526.41"/>
<polygon fill="#f4d35e" stroke="#f4d35e" stroke-width="2" points="982.82,-529.64 989.83,-521.7 979.4,-523.53 982.82,-529.64"/>
</g>
<!-- Set&#45;&gt;@/Dependencies -->
<g id="edge8" class="edge">
<title>Set:s&#45;&gt;@/Dependencies</title>
<path fill="none" stroke="#f4d35e" stroke-width="2" stroke-dasharray="5,2" d="M549.12,-451.25C549.12,-403.95 549.12,-350.03 549.12,-311.68"/>
<polygon fill="#f4d35e" stroke="#f4d35e" stroke-width="2" points="552.63,-311.83 549.13,-301.83 545.63,-311.83 552.63,-311.83"/>
</g>
<!-- Set&#45;&gt;@/Render -->
<g id="edge21" class="edge">
<title>Set:s&#45;&gt;@/Render</title>
<path fill="none" stroke="#f4d35e" stroke-width="2" stroke-dasharray="5,2" d="M549.12,-451.25C549.12,-328.21 742.11,-383.66 750.12,-260.88"/>
<path fill="none" stroke="#f4d35e" stroke-width="2" stroke-dasharray="5,2" d="M750.12,-258.88C755.23,-180.63 752.12,-86.34 750.71,-52.49"/>
<polygon fill="#f4d35e" stroke="#f4d35e" stroke-width="2" points="754.21,-52.48 750.26,-42.65 747.22,-52.8 754.21,-52.48"/>
</g>
<!-- Set&#45;&gt;@/Ripgrep -->
<g id="edge27" class="edge">
<title>Set:s&#45;&gt;@/Ripgrep</title>
<path fill="none" stroke="#f4d35e" stroke-width="2" stroke-dasharray="5,2" d="M549.12,-451.25C549.12,-382.79 731.07,-323.58 860.7,-290.08"/>
<polygon fill="#f4d35e" stroke="#f4d35e" stroke-width="2" points="861.31,-293.53 870.14,-287.66 859.58,-286.75 861.31,-293.53"/>
</g>
<!-- String&#45;&gt;@/Dependencies -->
<g id="edge9" class="edge">
<title>String:s&#45;&gt;@/Dependencies</title>
<path fill="none" stroke="#f4d35e" stroke-width="2" stroke-dasharray="5,2" d="M1214.12,-663.75C1214.12,-336.11 754.04,-715.26 491.12,-519.75 475.93,-508.45 478.68,-499.49 471.12,-482.12"/>
</g>
<!-- String&#45;&gt;@/External -->
<g id="edge12" class="edge">
<title>String:s&#45;&gt;@/External</title>
<path fill="none" stroke="#f4d35e" stroke-width="2" stroke-dasharray="5,2" d="M1214.12,-663.75C1214.12,-610.39 1176.48,-562.05 1141.55,-528.68"/>
<polygon fill="#f4d35e" stroke="#f4d35e" stroke-width="2" points="1144.21,-526.38 1134.5,-522.15 1139.46,-531.51 1144.21,-526.38"/>
</g>
<!-- String&#45;&gt;@/Render -->
<g id="edge22" class="edge">
<title>String:s&#45;&gt;@/Render</title>
<path fill="none" stroke="#f4d35e" stroke-width="2" stroke-dasharray="5,2" d="M1482.12,-480.12C1485.16,-382.73 1527.15,-347.29 1482.12,-260.88"/>
</g>
<!-- String&#45;&gt;@/Ripgrep -->
<g id="edge28" class="edge">
<title>String:s&#45;&gt;@/Ripgrep</title>
<path fill="none" stroke="#f4d35e" stroke-width="2" stroke-dasharray="5,2" d="M1482.12,-480.12C1488.9,-263.01 1079.45,-259.28 1001.02,-260.55"/>
<polygon fill="#f4d35e" stroke="#f4d35e" stroke-width="2" points="1001.06,-257.05 991.15,-260.8 1001.24,-264.04 1001.06,-257.05"/>
<path fill="none" stroke="#f4d35e" stroke-width="2" stroke-dasharray="5,2" d="M1214.12,-663.75C1214.12,-519.86 1477.64,-625.94 1482.12,-482.12"/>
</g>
<!-- Wish&#45;&gt;@/External -->
<g id="edge13" class="edge">
<title>Wish:s&#45;&gt;@/External</title>
<path fill="none" stroke="#f4d35e" stroke-width="2" stroke-dasharray="5,2" d="M1054.12,-663.75C1054.12,-619.1 1062.78,-569.04 1070.63,-532.8"/>
<polygon fill="#f4d35e" stroke="#f4d35e" stroke-width="2" points="1074.04,-533.59 1072.81,-523.07 1067.21,-532.06 1074.04,-533.59"/>
</g>
<!-- @/Dependencies -->
<g id="node1" class="node">
<title>@/Dependencies</title>
<path fill="#28afb0" stroke="black" d="M710.38,-298.5C710.38,-298.5 387.88,-298.5 387.88,-298.5 381.88,-298.5 375.88,-292.5 375.88,-286.5 375.88,-286.5 375.88,-233.25 375.88,-233.25 375.88,-227.25 381.88,-221.25 387.88,-221.25 387.88,-221.25 710.38,-221.25 710.38,-221.25 716.38,-221.25 722.38,-227.25 722.38,-233.25 722.38,-233.25 722.38,-286.5 722.38,-286.5 722.38,-292.5 716.38,-298.5 710.38,-298.5"/>
<text text-anchor="middle" x="549.12" y="-242.5" font-family="Obviously Narrow" font-size="40.00" fill="#1f271b">@/Dependencies</text>
</g>
<!-- @/External -->
<g id="node2" class="node">
<title>@/External</title>
<path fill="#28afb0" stroke="black" d="M1189.25,-519.75C1189.25,-519.75 977,-519.75 977,-519.75 971,-519.75 965,-513.75 965,-507.75 965,-507.75 965,-454.5 965,-454.5 965,-448.5 971,-442.5 977,-442.5 977,-442.5 1189.25,-442.5 1189.25,-442.5 1195.25,-442.5 1201.25,-448.5 1201.25,-454.5 1201.25,-454.5 1201.25,-507.75 1201.25,-507.75 1201.25,-513.75 1195.25,-519.75 1189.25,-519.75"/>
<text text-anchor="middle" x="1083.12" y="-463.75" font-family="Obviously Narrow" font-size="40.00" fill="#1f271b">@/External</text>
</g>
<!-- @/MadlibJson -->
<g id="node3" class="node">
<title>@/MadlibJson</title>
<path fill="#28afb0" stroke="black" d="M431,-519.75C431,-519.75 163.25,-519.75 163.25,-519.75 157.25,-519.75 151.25,-513.75 151.25,-507.75 151.25,-507.75 151.25,-454.5 151.25,-454.5 151.25,-448.5 157.25,-442.5 163.25,-442.5 163.25,-442.5 431,-442.5 431,-442.5 437,-442.5 443,-448.5 443,-454.5 443,-454.5 443,-507.75 443,-507.75 443,-513.75 437,-519.75 431,-519.75"/>
<text text-anchor="middle" x="297.12" y="-463.75" font-family="Obviously Narrow" font-size="40.00" fill="#1f271b">@/MadlibJson</text>
</g>
<!-- @/Render -->
<g id="node4" class="node">
<title>@/Render</title>
<path fill="#28afb0" stroke="black" d="M848.38,-77.25C848.38,-77.25 651.88,-77.25 651.88,-77.25 645.88,-77.25 639.88,-71.25 639.88,-65.25 639.88,-65.25 639.88,-12 639.88,-12 639.88,-6 645.88,0 651.88,0 651.88,0 848.38,0 848.38,0 854.38,0 860.38,-6 860.38,-12 860.38,-12 860.38,-65.25 860.38,-65.25 860.38,-71.25 854.38,-77.25 848.38,-77.25"/>
<text text-anchor="middle" x="750.12" y="-21.25" font-family="Obviously Narrow" font-size="40.00" fill="#1f271b">@/Render</text>
</g>
<!-- @/Ripgrep -->
<g id="node5" class="node">
<title>@/Ripgrep</title>
<path fill="#28afb0" stroke="black" d="M1090.88,-298.5C1090.88,-298.5 885.38,-298.5 885.38,-298.5 879.38,-298.5 873.38,-292.5 873.38,-286.5 873.38,-286.5 873.38,-233.25 873.38,-233.25 873.38,-227.25 879.38,-221.25 885.38,-221.25 885.38,-221.25 1090.88,-221.25 1090.88,-221.25 1096.88,-221.25 1102.88,-227.25 1102.88,-233.25 1102.88,-233.25 1102.88,-286.5 1102.88,-286.5 1102.88,-292.5 1096.88,-298.5 1090.88,-298.5"/>
<text text-anchor="middle" x="988.12" y="-242.5" font-family="Obviously Narrow" font-size="40.00" fill="#1f271b">@/Ripgrep</text>
</g>
<!-- Dictionary -->
<g id="node6" class="node">
<title>Dictionary</title>
<polygon fill="#f4d35e" stroke="black" points="1454.5,-510 1219.75,-510 1219.75,-452.25 1454.5,-452.25 1454.5,-510"/>
<text text-anchor="middle" x="1337.12" y="-473" font-family="Compadre" font-size="20.00" fill="#1f271b">Dictionary</text>
</g>
<!-- Either -->
<g id="node7" class="node">
<title>Either</title>
<polygon fill="#f4d35e" stroke="black" points="158.25,-721.5 0,-721.5 0,-663.75 158.25,-663.75 158.25,-721.5"/>
<text text-anchor="middle" x="79.12" y="-684.5" font-family="Compadre" font-size="20.00" fill="#1f271b">Either</text>
</g>
<!-- Function -->
<g id="node8" class="node">
<title>Function</title>
<polygon fill="#f4d35e" stroke="black" points="823.25,-510 617,-510 617,-452.25 823.25,-452.25 823.25,-510"/>
<text text-anchor="middle" x="720.12" y="-473" font-family="Compadre" font-size="20.00" fill="#1f271b">Function</text>
</g>
<!-- IO -->
<g id="node9" class="node">
<title>IO</title>
<polygon fill="#f4d35e" stroke="black" points="734,-721.5 664.25,-721.5 664.25,-663.75 734,-663.75 734,-721.5"/>
<text text-anchor="middle" x="699.12" y="-684.5" font-family="Compadre" font-size="20.00" fill="#1f271b">IO</text>
</g>
<!-- Json/Parse -->
<g id="node10" class="node">
<title>Json/Parse</title>
<polygon fill="#f4d35e" stroke="black" points="588.12,-721.5 348.12,-721.5 348.12,-663.75 588.12,-663.75 588.12,-721.5"/>
<text text-anchor="middle" x="468.12" y="-684.5" font-family="Compadre" font-size="20.00" fill="#1f271b">Json/Parse</text>
</g>
<!-- List -->
<g id="node11" class="node">
<title>List</title>
<polygon fill="#f4d35e" stroke="black" points="947,-510 841.25,-510 841.25,-452.25 947,-452.25 947,-510"/>
<text text-anchor="middle" x="894.12" y="-473" font-family="Compadre" font-size="20.00" fill="#1f271b">List</text>
</g>
<!-- Maybe -->
<g id="node12" class="node">
<title>Maybe</title>
<polygon fill="#f4d35e" stroke="black" points="329.62,-721.5 176.62,-721.5 176.62,-663.75 329.62,-663.75 329.62,-721.5"/>
<text text-anchor="middle" x="253.12" y="-684.5" font-family="Compadre" font-size="20.00" fill="#1f271b">Maybe</text>
</g>
<!-- Process -->
<g id="node13" class="node">
<title>Process</title>
<polygon fill="#f4d35e" stroke="black" points="973.5,-721.5 780.75,-721.5 780.75,-663.75 973.5,-663.75 973.5,-721.5"/>
<text text-anchor="middle" x="877.12" y="-684.5" font-family="Compadre" font-size="20.00" fill="#1f271b">Process</text>
</g>
<!-- Set -->
<g id="node14" class="node">
<title>Set</title>
<polygon fill="#f4d35e" stroke="black" points="598.62,-510 499.62,-510 499.62,-452.25 598.62,-452.25 598.62,-510"/>
<text text-anchor="middle" x="549.12" y="-473" font-family="Compadre" font-size="20.00" fill="#1f271b">Set</text>
</g>
<!-- String -->
<g id="node15" class="node">
<title>String</title>
<polygon fill="#f4d35e" stroke="black" points="1293.25,-721.5 1135,-721.5 1135,-663.75 1293.25,-663.75 1293.25,-721.5"/>
<text text-anchor="middle" x="1214.12" y="-684.5" font-family="Compadre" font-size="20.00" fill="#1f271b">String</text>
</g>
<!-- Wish -->
<g id="node16" class="node">
<title>Wish</title>
<polygon fill="#f4d35e" stroke="black" points="1116.75,-721.5 991.5,-721.5 991.5,-663.75 1116.75,-663.75 1116.75,-721.5"/>
<text text-anchor="middle" x="1054.12" y="-684.5" font-family="Compadre" font-size="20.00" fill="#1f271b">Wish</text>
</g>
</g>
</svg>
